<?xml version="1.0" encoding="UTF-8" standalone="no"?>
<!DOCTYPE svg PUBLIC "-//W3C//DTD SVG 1.1//EN"
 "http://www.w3.org/Graphics/SVG/1.1/DTD/svg11.dtd">
<!-- Generated by graphviz version 2.42.3 (20191010.1750)
 -->
<!-- Title: snakemake_dag Pages: 1 -->
<svg width="1351pt" height="980pt"
 viewBox="0.00 0.00 1351.13 980.00" xmlns="http://www.w3.org/2000/svg" xmlns:xlink="http://www.w3.org/1999/xlink">
<g id="graph0" class="graph" transform="scale(1 1) rotate(0) translate(4 976)">
<title>snakemake_dag</title>
<polygon fill="white" stroke="transparent" points="-4,4 -4,-976 1347.13,-976 1347.13,4 -4,4"/>
<!-- 0 -->
<g id="node1" class="node">
<title>0</title>
<path fill="none" stroke="#56d87b" stroke-width="2" stroke-dasharray="5,2" d="M638.5,-36C638.5,-36 608.5,-36 608.5,-36 602.5,-36 596.5,-30 596.5,-24 596.5,-24 596.5,-12 596.5,-12 596.5,-6 602.5,0 608.5,0 608.5,0 638.5,0 638.5,0 644.5,0 650.5,-6 650.5,-12 650.5,-12 650.5,-24 650.5,-24 650.5,-30 644.5,-36 638.5,-36"/>
<text text-anchor="middle" x="623.5" y="-15.5" font-family="sans" font-size="10.00">all</text>
</g>
<!-- 1 -->
<g id="node2" class="node">
<title>1</title>
<path fill="none" stroke="#56a9d8" stroke-width="2" stroke-dasharray="5,2" d="M638.5,-108C638.5,-108 608.5,-108 608.5,-108 602.5,-108 596.5,-102 596.5,-96 596.5,-96 596.5,-84 596.5,-84 596.5,-78 602.5,-72 608.5,-72 608.5,-72 638.5,-72 638.5,-72 644.5,-72 650.5,-78 650.5,-84 650.5,-84 650.5,-96 650.5,-96 650.5,-102 644.5,-108 638.5,-108"/>
<text text-anchor="middle" x="623.5" y="-87.5" font-family="sans" font-size="10.00">finish</text>
</g>
<!-- 1&#45;&gt;0 -->
<g id="edge1" class="edge">
<title>1&#45;&gt;0</title>
<path fill="none" stroke="grey" stroke-width="2" d="M623.5,-71.7C623.5,-63.98 623.5,-54.71 623.5,-46.11"/>
<polygon fill="grey" stroke="grey" stroke-width="2" points="627,-46.1 623.5,-36.1 620,-46.1 627,-46.1"/>
</g>
<!-- 2 -->
<g id="node3" class="node">
<title>2</title>
<path fill="none" stroke="#d8bc56" stroke-width="2" stroke-dasharray="5,2" d="M554,-180C554,-180 509,-180 509,-180 503,-180 497,-174 497,-168 497,-168 497,-156 497,-156 497,-150 503,-144 509,-144 509,-144 554,-144 554,-144 560,-144 566,-150 566,-156 566,-156 566,-168 566,-168 566,-174 560,-180 554,-180"/>
<text text-anchor="middle" x="531.5" y="-159.5" font-family="sans" font-size="10.00">zip_probes</text>
</g>
<!-- 2&#45;&gt;1 -->
<g id="edge2" class="edge">
<title>2&#45;&gt;1</title>
<path fill="none" stroke="grey" stroke-width="2" d="M554.24,-143.7C565.94,-134.8 580.36,-123.82 593.01,-114.2"/>
<polygon fill="grey" stroke="grey" stroke-width="2" points="595.18,-116.94 601.02,-108.1 590.94,-111.37 595.18,-116.94"/>
</g>
<!-- 3 -->
<g id="node4" class="node">
<title>3</title>
<path fill="none" stroke="#d85656" stroke-width="2" stroke-dasharray="5,2" d="M749.5,-180C749.5,-180 689.5,-180 689.5,-180 683.5,-180 677.5,-174 677.5,-168 677.5,-168 677.5,-156 677.5,-156 677.5,-150 683.5,-144 689.5,-144 689.5,-144 749.5,-144 749.5,-144 755.5,-144 761.5,-150 761.5,-156 761.5,-156 761.5,-168 761.5,-168 761.5,-174 755.5,-180 749.5,-180"/>
<text text-anchor="middle" x="719.5" y="-159.5" font-family="sans" font-size="10.00">zip_refseq_db</text>
</g>
<!-- 3&#45;&gt;1 -->
<g id="edge3" class="edge">
<title>3&#45;&gt;1</title>
<path fill="none" stroke="grey" stroke-width="2" d="M695.77,-143.7C683.56,-134.8 668.51,-123.82 655.32,-114.2"/>
<polygon fill="grey" stroke="grey" stroke-width="2" points="657.1,-111.17 646.96,-108.1 652.98,-116.82 657.1,-111.17"/>
</g>
<!-- 4 -->
<g id="node5" class="node">
<title>4</title>
<path fill="none" stroke="#b6d856" stroke-width="2" stroke-dasharray="5,2" d="M645.5,-180C645.5,-180 601.5,-180 601.5,-180 595.5,-180 589.5,-174 589.5,-168 589.5,-168 589.5,-156 589.5,-156 589.5,-150 595.5,-144 601.5,-144 601.5,-144 645.5,-144 645.5,-144 651.5,-144 657.5,-150 657.5,-156 657.5,-156 657.5,-168 657.5,-168 657.5,-174 651.5,-180 645.5,-180"/>
<text text-anchor="middle" x="623.5" y="-159.5" font-family="sans" font-size="10.00">zip_iso_db</text>
</g>
<!-- 4&#45;&gt;1 -->
<g id="edge4" class="edge">
<title>4&#45;&gt;1</title>
<path fill="none" stroke="grey" stroke-width="2" d="M623.5,-143.7C623.5,-135.98 623.5,-126.71 623.5,-118.11"/>
<polygon fill="grey" stroke="grey" stroke-width="2" points="627,-118.1 623.5,-108.1 620,-118.1 627,-118.1"/>
</g>
<!-- 5 -->
<g id="node6" class="node">
<title>5</title>
<path fill="none" stroke="#56d892" stroke-width="2" stroke-dasharray="5,2" d="M557.5,-252C557.5,-252 495.5,-252 495.5,-252 489.5,-252 483.5,-246 483.5,-240 483.5,-240 483.5,-228 483.5,-228 483.5,-222 489.5,-216 495.5,-216 495.5,-216 557.5,-216 557.5,-216 563.5,-216 569.5,-222 569.5,-228 569.5,-228 569.5,-240 569.5,-240 569.5,-246 563.5,-252 557.5,-252"/>
<text text-anchor="middle" x="526.5" y="-231.5" font-family="sans" font-size="10.00">merge_probes</text>
</g>
<!-- 5&#45;&gt;2 -->
<g id="edge5" class="edge">
<title>5&#45;&gt;2</title>
<path fill="none" stroke="grey" stroke-width="2" d="M527.74,-215.7C528.29,-207.98 528.95,-198.71 529.56,-190.11"/>
<polygon fill="grey" stroke="grey" stroke-width="2" points="533.06,-190.33 530.28,-180.1 526.07,-189.83 533.06,-190.33"/>
</g>
<!-- 6 -->
<g id="node7" class="node">
<title>6</title>
<path fill="none" stroke="#567bd8" stroke-width="2" stroke-dasharray="5,2" d="M753.5,-252C753.5,-252 689.5,-252 689.5,-252 683.5,-252 677.5,-246 677.5,-240 677.5,-240 677.5,-228 677.5,-228 677.5,-222 683.5,-216 689.5,-216 689.5,-216 753.5,-216 753.5,-216 759.5,-216 765.5,-222 765.5,-228 765.5,-228 765.5,-240 765.5,-240 765.5,-246 759.5,-252 753.5,-252"/>
<text text-anchor="middle" x="721.5" y="-231.5" font-family="sans" font-size="10.00">gen_refseq_db</text>
</g>
<!-- 6&#45;&gt;3 -->
<g id="edge6" class="edge">
<title>6&#45;&gt;3</title>
<path fill="none" stroke="grey" stroke-width="2" d="M721.01,-215.7C720.79,-207.98 720.52,-198.71 720.27,-190.11"/>
<polygon fill="grey" stroke="grey" stroke-width="2" points="723.77,-190 719.99,-180.1 716.78,-190.2 723.77,-190"/>
</g>
<!-- 7 -->
<g id="node8" class="node">
<title>7</title>
<path fill="none" stroke="#a7d856" stroke-width="2" stroke-dasharray="5,2" d="M647,-252C647,-252 600,-252 600,-252 594,-252 588,-246 588,-240 588,-240 588,-228 588,-228 588,-222 594,-216 600,-216 600,-216 647,-216 647,-216 653,-216 659,-222 659,-228 659,-228 659,-240 659,-240 659,-246 653,-252 647,-252"/>
<text text-anchor="middle" x="623.5" y="-231.5" font-family="sans" font-size="10.00">gen_iso_db</text>
</g>
<!-- 7&#45;&gt;4 -->
<g id="edge7" class="edge">
<title>7&#45;&gt;4</title>
<path fill="none" stroke="grey" stroke-width="2" d="M623.5,-215.7C623.5,-207.98 623.5,-198.71 623.5,-190.11"/>
<polygon fill="grey" stroke="grey" stroke-width="2" points="627,-190.1 623.5,-180.1 620,-190.1 627,-190.1"/>
</g>
<!-- 8 -->
<g id="node9" class="node">
<title>8</title>
<path fill="none" stroke="#d89556" stroke-width="2" stroke-dasharray="5,2" d="M554.5,-324C554.5,-324 502.5,-324 502.5,-324 496.5,-324 490.5,-318 490.5,-312 490.5,-312 490.5,-300 490.5,-300 490.5,-294 496.5,-288 502.5,-288 502.5,-288 554.5,-288 554.5,-288 560.5,-288 566.5,-294 566.5,-300 566.5,-300 566.5,-312 566.5,-312 566.5,-318 560.5,-324 554.5,-324"/>
<text text-anchor="middle" x="528.5" y="-303.5" font-family="sans" font-size="10.00">final_probes</text>
</g>
<!-- 8&#45;&gt;5 -->
<g id="edge8" class="edge">
<title>8&#45;&gt;5</title>
<path fill="none" stroke="grey" stroke-width="2" d="M528.01,-287.7C527.79,-279.98 527.52,-270.71 527.27,-262.11"/>
<polygon fill="grey" stroke="grey" stroke-width="2" points="530.77,-262 526.99,-252.1 523.78,-262.2 530.77,-262"/>
</g>
<!-- 8&#45;&gt;6 -->
<g id="edge12" class="edge">
<title>8&#45;&gt;6</title>
<path fill="none" stroke="grey" stroke-width="2" d="M566.63,-291.17C595.5,-280.7 635.54,-266.18 667.67,-254.52"/>
<polygon fill="grey" stroke="grey" stroke-width="2" points="669.16,-257.71 677.37,-251.01 666.78,-251.13 669.16,-257.71"/>
</g>
<!-- 8&#45;&gt;7 -->
<g id="edge17" class="edge">
<title>8&#45;&gt;7</title>
<path fill="none" stroke="grey" stroke-width="2" d="M551.98,-287.7C564.06,-278.8 578.95,-267.82 592.02,-258.2"/>
<polygon fill="grey" stroke="grey" stroke-width="2" points="594.31,-260.85 600.29,-252.1 590.16,-255.22 594.31,-260.85"/>
</g>
<!-- 9 -->
<g id="node10" class="node">
<title>9</title>
<path fill="none" stroke="#d89556" stroke-width="2" stroke-dasharray="5,2" d="M649.5,-324C649.5,-324 597.5,-324 597.5,-324 591.5,-324 585.5,-318 585.5,-312 585.5,-312 585.5,-300 585.5,-300 585.5,-294 591.5,-288 597.5,-288 597.5,-288 649.5,-288 649.5,-288 655.5,-288 661.5,-294 661.5,-300 661.5,-300 661.5,-312 661.5,-312 661.5,-318 655.5,-324 649.5,-324"/>
<text text-anchor="middle" x="623.5" y="-303.5" font-family="sans" font-size="10.00">final_probes</text>
</g>
<!-- 9&#45;&gt;5 -->
<g id="edge9" class="edge">
<title>9&#45;&gt;5</title>
<path fill="none" stroke="grey" stroke-width="2" d="M599.52,-287.7C587.19,-278.8 571.98,-267.82 558.65,-258.2"/>
<polygon fill="grey" stroke="grey" stroke-width="2" points="560.36,-255.12 550.2,-252.1 556.26,-260.79 560.36,-255.12"/>
</g>
<!-- 9&#45;&gt;6 -->
<g id="edge13" class="edge">
<title>9&#45;&gt;6</title>
<path fill="none" stroke="grey" stroke-width="2" d="M647.47,-287.88C660.05,-278.89 675.63,-267.76 689.25,-258.03"/>
<polygon fill="grey" stroke="grey" stroke-width="2" points="691.33,-260.85 697.43,-252.19 687.26,-255.15 691.33,-260.85"/>
</g>
<!-- 9&#45;&gt;7 -->
<g id="edge18" class="edge">
<title>9&#45;&gt;7</title>
<path fill="none" stroke="grey" stroke-width="2" d="M623.5,-287.7C623.5,-279.98 623.5,-270.71 623.5,-262.11"/>
<polygon fill="grey" stroke="grey" stroke-width="2" points="627,-262.1 623.5,-252.1 620,-262.1 627,-262.1"/>
</g>
<!-- 10 -->
<g id="node11" class="node">
<title>10</title>
<path fill="none" stroke="#d89556" stroke-width="2" stroke-dasharray="5,2" d="M747.5,-324C747.5,-324 695.5,-324 695.5,-324 689.5,-324 683.5,-318 683.5,-312 683.5,-312 683.5,-300 683.5,-300 683.5,-294 689.5,-288 695.5,-288 695.5,-288 747.5,-288 747.5,-288 753.5,-288 759.5,-294 759.5,-300 759.5,-300 759.5,-312 759.5,-312 759.5,-318 753.5,-324 747.5,-324"/>
<text text-anchor="middle" x="721.5" y="-303.5" font-family="sans" font-size="10.00">final_probes</text>
</g>
<!-- 10&#45;&gt;5 -->
<g id="edge10" class="edge">
<title>10&#45;&gt;5</title>
<path fill="none" stroke="grey" stroke-width="2" d="M683.44,-291.34C653.68,-280.65 611.97,-265.68 579.03,-253.86"/>
<polygon fill="grey" stroke="grey" stroke-width="2" points="580.15,-250.54 569.56,-250.46 577.79,-257.13 580.15,-250.54"/>
</g>
<!-- 10&#45;&gt;6 -->
<g id="edge14" class="edge">
<title>10&#45;&gt;6</title>
<path fill="none" stroke="grey" stroke-width="2" d="M721.5,-287.7C721.5,-279.98 721.5,-270.71 721.5,-262.11"/>
<polygon fill="grey" stroke="grey" stroke-width="2" points="725,-262.1 721.5,-252.1 718,-262.1 725,-262.1"/>
</g>
<!-- 10&#45;&gt;7 -->
<g id="edge19" class="edge">
<title>10&#45;&gt;7</title>
<path fill="none" stroke="grey" stroke-width="2" d="M697.53,-287.88C684.95,-278.89 669.37,-267.76 655.75,-258.03"/>
<polygon fill="grey" stroke="grey" stroke-width="2" points="657.74,-255.15 647.57,-252.19 653.67,-260.85 657.74,-255.15"/>
</g>
<!-- 11 -->
<g id="node12" class="node">
<title>11</title>
<path fill="none" stroke="#d89556" stroke-width="2" stroke-dasharray="5,2" d="M460.5,-324C460.5,-324 408.5,-324 408.5,-324 402.5,-324 396.5,-318 396.5,-312 396.5,-312 396.5,-300 396.5,-300 396.5,-294 402.5,-288 408.5,-288 408.5,-288 460.5,-288 460.5,-288 466.5,-288 472.5,-294 472.5,-300 472.5,-300 472.5,-312 472.5,-312 472.5,-318 466.5,-324 460.5,-324"/>
<text text-anchor="middle" x="434.5" y="-303.5" font-family="sans" font-size="10.00">final_probes</text>
</g>
<!-- 11&#45;&gt;5 -->
<g id="edge11" class="edge">
<title>11&#45;&gt;5</title>
<path fill="none" stroke="grey" stroke-width="2" d="M457.24,-287.7C468.94,-278.8 483.36,-267.82 496.01,-258.2"/>
<polygon fill="grey" stroke="grey" stroke-width="2" points="498.18,-260.94 504.02,-252.1 493.94,-255.37 498.18,-260.94"/>
</g>
<!-- 11&#45;&gt;6 -->
<g id="edge15" class="edge">
<title>11&#45;&gt;6</title>
<path fill="none" stroke="grey" stroke-width="2" d="M472.56,-290.67C475.57,-289.71 478.57,-288.81 481.5,-288 560.07,-266.37 584.68,-272.45 667.53,-252.07"/>
<polygon fill="grey" stroke="grey" stroke-width="2" points="668.53,-255.43 677.37,-249.59 666.82,-248.64 668.53,-255.43"/>
</g>
<!-- 11&#45;&gt;7 -->
<g id="edge20" class="edge">
<title>11&#45;&gt;7</title>
<path fill="none" stroke="grey" stroke-width="2" d="M472.73,-291.03C499.73,-281.14 536.99,-267.45 578.23,-252.09"/>
<polygon fill="grey" stroke="grey" stroke-width="2" points="579.5,-255.35 587.65,-248.58 577.06,-248.79 579.5,-255.35"/>
</g>
<!-- 12 -->
<g id="node13" class="node">
<title>12</title>
<path fill="none" stroke="#56d8a9" stroke-width="2" stroke-dasharray="5,2" d="M1181.5,-468C1181.5,-468 1143.5,-468 1143.5,-468 1137.5,-468 1131.5,-462 1131.5,-456 1131.5,-456 1131.5,-444 1131.5,-444 1131.5,-438 1137.5,-432 1143.5,-432 1143.5,-432 1181.5,-432 1181.5,-432 1187.5,-432 1193.5,-438 1193.5,-444 1193.5,-444 1193.5,-456 1193.5,-456 1193.5,-462 1187.5,-468 1181.5,-468"/>
<text text-anchor="middle" x="1162.5" y="-447.5" font-family="sans" font-size="10.00">parse_gtf</text>
</g>
<!-- 12&#45;&gt;6 -->
<g id="edge16" class="edge">
<title>12&#45;&gt;6</title>
<path fill="none" stroke="grey" stroke-width="2" d="M1193.82,-445.37C1253.4,-437.15 1373.86,-413.54 1335.5,-360 1270.36,-269.08 913.67,-243.57 775.87,-237.05"/>
<polygon fill="grey" stroke="grey" stroke-width="2" points="775.7,-233.54 765.55,-236.58 775.38,-240.53 775.7,-233.54"/>
</g>
<!-- 23 -->
<g id="node24" class="node">
<title>23</title>
<path fill="none" stroke="#68d856" stroke-width="2" stroke-dasharray="5,2" d="M970.5,-396C970.5,-396 898.5,-396 898.5,-396 892.5,-396 886.5,-390 886.5,-384 886.5,-384 886.5,-372 886.5,-372 886.5,-366 892.5,-360 898.5,-360 898.5,-360 970.5,-360 970.5,-360 976.5,-360 982.5,-366 982.5,-372 982.5,-372 982.5,-384 982.5,-384 982.5,-390 976.5,-396 970.5,-396"/>
<text text-anchor="middle" x="934.5" y="-381" font-family="sans" font-size="10.00">flatten_isoforms</text>
<text text-anchor="middle" x="934.5" y="-370" font-family="sans" font-size="10.00">chrom_gtf: chrIII</text>
</g>
<!-- 12&#45;&gt;23 -->
<g id="edge47" class="edge">
<title>12&#45;&gt;23</title>
<path fill="none" stroke="grey" stroke-width="2" d="M1131.28,-439.41C1095.67,-428.48 1036.7,-410.38 992.58,-396.83"/>
<polygon fill="grey" stroke="grey" stroke-width="2" points="993.43,-393.43 982.84,-393.84 991.37,-400.12 993.43,-393.43"/>
</g>
<!-- 24 -->
<g id="node25" class="node">
<title>24</title>
<path fill="none" stroke="#68d856" stroke-width="2" stroke-dasharray="5,2" d="M1084.5,-396C1084.5,-396 1012.5,-396 1012.5,-396 1006.5,-396 1000.5,-390 1000.5,-384 1000.5,-384 1000.5,-372 1000.5,-372 1000.5,-366 1006.5,-360 1012.5,-360 1012.5,-360 1084.5,-360 1084.5,-360 1090.5,-360 1096.5,-366 1096.5,-372 1096.5,-372 1096.5,-384 1096.5,-384 1096.5,-390 1090.5,-396 1084.5,-396"/>
<text text-anchor="middle" x="1048.5" y="-381" font-family="sans" font-size="10.00">flatten_isoforms</text>
<text text-anchor="middle" x="1048.5" y="-370" font-family="sans" font-size="10.00">chrom_gtf: chrII</text>
</g>
<!-- 12&#45;&gt;24 -->
<g id="edge48" class="edge">
<title>12&#45;&gt;24</title>
<path fill="none" stroke="grey" stroke-width="2" d="M1134.61,-431.88C1119.71,-422.72 1101.17,-411.34 1085.12,-401.48"/>
<polygon fill="grey" stroke="grey" stroke-width="2" points="1086.85,-398.44 1076.49,-396.19 1083.19,-404.41 1086.85,-398.44"/>
</g>
<!-- 25 -->
<g id="node26" class="node">
<title>25</title>
<path fill="none" stroke="#68d856" stroke-width="2" stroke-dasharray="5,2" d="M1200,-396C1200,-396 1127,-396 1127,-396 1121,-396 1115,-390 1115,-384 1115,-384 1115,-372 1115,-372 1115,-366 1121,-360 1127,-360 1127,-360 1200,-360 1200,-360 1206,-360 1212,-366 1212,-372 1212,-372 1212,-384 1212,-384 1212,-390 1206,-396 1200,-396"/>
<text text-anchor="middle" x="1163.5" y="-381" font-family="sans" font-size="10.00">flatten_isoforms</text>
<text text-anchor="middle" x="1163.5" y="-370" font-family="sans" font-size="10.00">chrom_gtf: chrIV</text>
</g>
<!-- 12&#45;&gt;25 -->
<g id="edge49" class="edge">
<title>12&#45;&gt;25</title>
<path fill="none" stroke="grey" stroke-width="2" d="M1162.75,-431.7C1162.86,-423.98 1162.99,-414.71 1163.11,-406.11"/>
<polygon fill="grey" stroke="grey" stroke-width="2" points="1166.61,-406.15 1163.26,-396.1 1159.61,-406.05 1166.61,-406.15"/>
</g>
<!-- 26 -->
<g id="node27" class="node">
<title>26</title>
<path fill="none" stroke="#68d856" stroke-width="2" stroke-dasharray="5,2" d="M1314.5,-396C1314.5,-396 1242.5,-396 1242.5,-396 1236.5,-396 1230.5,-390 1230.5,-384 1230.5,-384 1230.5,-372 1230.5,-372 1230.5,-366 1236.5,-360 1242.5,-360 1242.5,-360 1314.5,-360 1314.5,-360 1320.5,-360 1326.5,-366 1326.5,-372 1326.5,-372 1326.5,-384 1326.5,-384 1326.5,-390 1320.5,-396 1314.5,-396"/>
<text text-anchor="middle" x="1278.5" y="-381" font-family="sans" font-size="10.00">flatten_isoforms</text>
<text text-anchor="middle" x="1278.5" y="-370" font-family="sans" font-size="10.00">chrom_gtf: chrI</text>
</g>
<!-- 12&#45;&gt;26 -->
<g id="edge50" class="edge">
<title>12&#45;&gt;26</title>
<path fill="none" stroke="grey" stroke-width="2" d="M1190.88,-431.88C1206.04,-422.72 1224.91,-411.34 1241.24,-401.48"/>
<polygon fill="grey" stroke="grey" stroke-width="2" points="1243.26,-404.35 1250.01,-396.19 1239.64,-398.36 1243.26,-404.35"/>
</g>
<!-- 13 -->
<g id="node14" class="node">
<title>13</title>
<path fill="none" stroke="#80d856" stroke-width="2" stroke-dasharray="5,2" d="M1102.5,-324C1102.5,-324 994.5,-324 994.5,-324 988.5,-324 982.5,-318 982.5,-312 982.5,-312 982.5,-300 982.5,-300 982.5,-294 988.5,-288 994.5,-288 994.5,-288 1102.5,-288 1102.5,-288 1108.5,-288 1114.5,-294 1114.5,-300 1114.5,-300 1114.5,-312 1114.5,-312 1114.5,-318 1108.5,-324 1102.5,-324"/>
<text text-anchor="middle" x="1048.5" y="-303.5" font-family="sans" font-size="10.00">merge_flat_annotations</text>
</g>
<!-- 13&#45;&gt;7 -->
<g id="edge21" class="edge">
<title>13&#45;&gt;7</title>
<path fill="none" stroke="grey" stroke-width="2" d="M982.42,-300.27C908.09,-293.95 783.89,-280.39 669.14,-251.82"/>
<polygon fill="grey" stroke="grey" stroke-width="2" points="669.68,-248.34 659.13,-249.28 667.96,-255.13 669.68,-248.34"/>
</g>
<!-- 14 -->
<g id="node15" class="node">
<title>14</title>
<path fill="none" stroke="#d8a456" stroke-width="2" stroke-dasharray="5,2" d="M433,-396C433,-396 394,-396 394,-396 388,-396 382,-390 382,-384 382,-384 382,-372 382,-372 382,-366 388,-360 394,-360 394,-360 433,-360 433,-360 439,-360 445,-366 445,-372 445,-372 445,-384 445,-384 445,-390 439,-396 433,-396"/>
<text text-anchor="middle" x="413.5" y="-375.5" font-family="sans" font-size="10.00">calc_prob</text>
</g>
<!-- 14&#45;&gt;8 -->
<g id="edge22" class="edge">
<title>14&#45;&gt;8</title>
<path fill="none" stroke="grey" stroke-width="2" d="M441.63,-359.88C456.67,-350.72 475.37,-339.34 491.56,-329.48"/>
<polygon fill="grey" stroke="grey" stroke-width="2" points="493.54,-332.38 500.26,-324.19 489.9,-326.4 493.54,-332.38"/>
</g>
<!-- 15 -->
<g id="node16" class="node">
<title>15</title>
<path fill="none" stroke="#56d8b9" stroke-width="2" stroke-dasharray="5,2" d="M520,-396C520,-396 475,-396 475,-396 469,-396 463,-390 463,-384 463,-384 463,-372 463,-372 463,-366 469,-360 475,-360 475,-360 520,-360 520,-360 526,-360 532,-366 532,-372 532,-372 532,-384 532,-384 532,-390 526,-396 520,-396"/>
<text text-anchor="middle" x="497.5" y="-375.5" font-family="sans" font-size="10.00">max_kmer</text>
</g>
<!-- 15&#45;&gt;8 -->
<g id="edge23" class="edge">
<title>15&#45;&gt;8</title>
<path fill="none" stroke="grey" stroke-width="2" d="M505.16,-359.7C508.69,-351.73 512.96,-342.1 516.87,-333.26"/>
<polygon fill="grey" stroke="grey" stroke-width="2" points="520.08,-334.67 520.93,-324.1 513.68,-331.83 520.08,-334.67"/>
</g>
<!-- 16 -->
<g id="node17" class="node">
<title>16</title>
<path fill="none" stroke="#d8a456" stroke-width="2" stroke-dasharray="5,2" d="M688,-396C688,-396 649,-396 649,-396 643,-396 637,-390 637,-384 637,-384 637,-372 637,-372 637,-366 643,-360 649,-360 649,-360 688,-360 688,-360 694,-360 700,-366 700,-372 700,-372 700,-384 700,-384 700,-390 694,-396 688,-396"/>
<text text-anchor="middle" x="668.5" y="-375.5" font-family="sans" font-size="10.00">calc_prob</text>
</g>
<!-- 16&#45;&gt;9 -->
<g id="edge24" class="edge">
<title>16&#45;&gt;9</title>
<path fill="none" stroke="grey" stroke-width="2" d="M657.38,-359.7C652.14,-351.56 645.8,-341.69 640.02,-332.7"/>
<polygon fill="grey" stroke="grey" stroke-width="2" points="642.85,-330.62 634.5,-324.1 636.96,-334.41 642.85,-330.62"/>
</g>
<!-- 17 -->
<g id="node18" class="node">
<title>17</title>
<path fill="none" stroke="#56d8b9" stroke-width="2" stroke-dasharray="5,2" d="M607,-396C607,-396 562,-396 562,-396 556,-396 550,-390 550,-384 550,-384 550,-372 550,-372 550,-366 556,-360 562,-360 562,-360 607,-360 607,-360 613,-360 619,-366 619,-372 619,-372 619,-384 619,-384 619,-390 613,-396 607,-396"/>
<text text-anchor="middle" x="584.5" y="-375.5" font-family="sans" font-size="10.00">max_kmer</text>
</g>
<!-- 17&#45;&gt;9 -->
<g id="edge25" class="edge">
<title>17&#45;&gt;9</title>
<path fill="none" stroke="grey" stroke-width="2" d="M594.14,-359.7C598.63,-351.64 604.06,-341.89 609.02,-332.98"/>
<polygon fill="grey" stroke="grey" stroke-width="2" points="612.16,-334.54 613.97,-324.1 606.05,-331.14 612.16,-334.54"/>
</g>
<!-- 18 -->
<g id="node19" class="node">
<title>18</title>
<path fill="none" stroke="#d8a456" stroke-width="2" stroke-dasharray="5,2" d="M856,-396C856,-396 817,-396 817,-396 811,-396 805,-390 805,-384 805,-384 805,-372 805,-372 805,-366 811,-360 817,-360 817,-360 856,-360 856,-360 862,-360 868,-366 868,-372 868,-372 868,-384 868,-384 868,-390 862,-396 856,-396"/>
<text text-anchor="middle" x="836.5" y="-375.5" font-family="sans" font-size="10.00">calc_prob</text>
</g>
<!-- 18&#45;&gt;10 -->
<g id="edge26" class="edge">
<title>18&#45;&gt;10</title>
<path fill="none" stroke="grey" stroke-width="2" d="M808.37,-359.88C793.33,-350.72 774.63,-339.34 758.44,-329.48"/>
<polygon fill="grey" stroke="grey" stroke-width="2" points="760.1,-326.4 749.74,-324.19 756.46,-332.38 760.1,-326.4"/>
</g>
<!-- 19 -->
<g id="node20" class="node">
<title>19</title>
<path fill="none" stroke="#56d8b9" stroke-width="2" stroke-dasharray="5,2" d="M775,-396C775,-396 730,-396 730,-396 724,-396 718,-390 718,-384 718,-384 718,-372 718,-372 718,-366 724,-360 730,-360 730,-360 775,-360 775,-360 781,-360 787,-366 787,-372 787,-372 787,-384 787,-384 787,-390 781,-396 775,-396"/>
<text text-anchor="middle" x="752.5" y="-375.5" font-family="sans" font-size="10.00">max_kmer</text>
</g>
<!-- 19&#45;&gt;10 -->
<g id="edge27" class="edge">
<title>19&#45;&gt;10</title>
<path fill="none" stroke="grey" stroke-width="2" d="M744.84,-359.7C741.31,-351.73 737.04,-342.1 733.13,-333.26"/>
<polygon fill="grey" stroke="grey" stroke-width="2" points="736.32,-331.83 729.07,-324.1 729.92,-334.67 736.32,-331.83"/>
</g>
<!-- 20 -->
<g id="node21" class="node">
<title>20</title>
<path fill="none" stroke="#d8a456" stroke-width="2" stroke-dasharray="5,2" d="M265,-396C265,-396 226,-396 226,-396 220,-396 214,-390 214,-384 214,-384 214,-372 214,-372 214,-366 220,-360 226,-360 226,-360 265,-360 265,-360 271,-360 277,-366 277,-372 277,-372 277,-384 277,-384 277,-390 271,-396 265,-396"/>
<text text-anchor="middle" x="245.5" y="-375.5" font-family="sans" font-size="10.00">calc_prob</text>
</g>
<!-- 20&#45;&gt;11 -->
<g id="edge28" class="edge">
<title>20&#45;&gt;11</title>
<path fill="none" stroke="grey" stroke-width="2" d="M277.31,-363.28C280.07,-362.15 282.83,-361.04 285.5,-360 319.05,-346.92 357.34,-333.33 386.7,-323.18"/>
<polygon fill="grey" stroke="grey" stroke-width="2" points="387.98,-326.44 396.3,-319.88 385.7,-319.83 387.98,-326.44"/>
</g>
<!-- 21 -->
<g id="node22" class="node">
<title>21</title>
<path fill="none" stroke="#56d8b9" stroke-width="2" stroke-dasharray="5,2" d="M352,-396C352,-396 307,-396 307,-396 301,-396 295,-390 295,-384 295,-384 295,-372 295,-372 295,-366 301,-360 307,-360 307,-360 352,-360 352,-360 358,-360 364,-366 364,-372 364,-372 364,-384 364,-384 364,-390 358,-396 352,-396"/>
<text text-anchor="middle" x="329.5" y="-375.5" font-family="sans" font-size="10.00">max_kmer</text>
</g>
<!-- 21&#45;&gt;11 -->
<g id="edge29" class="edge">
<title>21&#45;&gt;11</title>
<path fill="none" stroke="grey" stroke-width="2" d="M355.19,-359.88C368.79,-350.81 385.67,-339.55 400.36,-329.76"/>
<polygon fill="grey" stroke="grey" stroke-width="2" points="402.34,-332.65 408.72,-324.19 398.45,-326.82 402.34,-332.65"/>
</g>
<!-- 22 -->
<g id="node23" class="node">
<title>22</title>
<path fill="none" stroke="#566bd8" stroke-width="2" stroke-dasharray="5,2" d="M667,-972C667,-972 602,-972 602,-972 596,-972 590,-966 590,-960 590,-960 590,-948 590,-948 590,-942 596,-936 602,-936 602,-936 667,-936 667,-936 673,-936 679,-942 679,-948 679,-948 679,-960 679,-960 679,-966 673,-972 667,-972"/>
<text text-anchor="middle" x="634.5" y="-951.5" font-family="sans" font-size="10.00">parse_genome</text>
</g>
<!-- 22&#45;&gt;12 -->
<g id="edge30" class="edge">
<title>22&#45;&gt;12</title>
<path fill="none" stroke="grey" stroke-width="2" d="M679.43,-950.53C806.88,-942.31 1161.5,-910.49 1161.5,-811 1161.5,-811 1161.5,-811 1161.5,-593 1161.5,-553 1161.9,-506.65 1162.2,-478.08"/>
<polygon fill="grey" stroke="grey" stroke-width="2" points="1165.7,-478.09 1162.3,-468.05 1158.7,-478.01 1165.7,-478.09"/>
</g>
<!-- 28 -->
<g id="node29" class="node">
<title>28</title>
<path fill="none" stroke="#56b9d8" stroke-width="2" stroke-dasharray="5,2" d="M594.5,-468C594.5,-468 534.5,-468 534.5,-468 528.5,-468 522.5,-462 522.5,-456 522.5,-456 522.5,-444 522.5,-444 522.5,-438 528.5,-432 534.5,-432 534.5,-432 594.5,-432 594.5,-432 600.5,-432 606.5,-438 606.5,-444 606.5,-444 606.5,-456 606.5,-456 606.5,-462 600.5,-468 594.5,-468"/>
<text text-anchor="middle" x="564.5" y="-447.5" font-family="sans" font-size="10.00">build_jellyfish</text>
</g>
<!-- 22&#45;&gt;28 -->
<g id="edge52" class="edge">
<title>22&#45;&gt;28</title>
<path fill="none" stroke="grey" stroke-width="2" d="M614.55,-935.69C604.7,-926.11 593.47,-913.44 586.5,-900 567.83,-864.01 566.5,-851.54 566.5,-811 566.5,-811 566.5,-811 566.5,-593 566.5,-552.99 565.7,-506.65 565.11,-478.08"/>
<polygon fill="grey" stroke="grey" stroke-width="2" points="568.61,-477.97 564.9,-468.05 561.61,-478.12 568.61,-477.97"/>
</g>
<!-- 56 -->
<g id="node57" class="node">
<title>56</title>
<path fill="none" stroke="#d86e56" stroke-width="2" stroke-dasharray="5,2" d="M523,-900C523,-900 460,-900 460,-900 454,-900 448,-894 448,-888 448,-888 448,-876 448,-876 448,-870 454,-864 460,-864 460,-864 523,-864 523,-864 529,-864 535,-870 535,-876 535,-876 535,-888 535,-888 535,-894 529,-900 523,-900"/>
<text text-anchor="middle" x="491.5" y="-885" font-family="sans" font-size="10.00">design_probes</text>
<text text-anchor="middle" x="491.5" y="-874" font-family="sans" font-size="10.00">chrom: chrI</text>
</g>
<!-- 22&#45;&gt;56 -->
<g id="edge88" class="edge">
<title>22&#45;&gt;56</title>
<path fill="none" stroke="grey" stroke-width="2" d="M599.52,-935.88C580.3,-926.47 556.27,-914.71 535.76,-904.67"/>
<polygon fill="grey" stroke="grey" stroke-width="2" points="537.14,-901.44 526.62,-900.19 534.06,-907.73 537.14,-901.44"/>
</g>
<!-- 57 -->
<g id="node58" class="node">
<title>57</title>
<path fill="none" stroke="#56d86b" stroke-width="2" stroke-dasharray="5,2" d="M662,-900C662,-900 607,-900 607,-900 601,-900 595,-894 595,-888 595,-888 595,-876 595,-876 595,-870 601,-864 607,-864 607,-864 662,-864 662,-864 668,-864 674,-870 674,-876 674,-876 674,-888 674,-888 674,-894 668,-900 662,-900"/>
<text text-anchor="middle" x="634.5" y="-879.5" font-family="sans" font-size="10.00">build_bowtie</text>
</g>
<!-- 22&#45;&gt;57 -->
<g id="edge89" class="edge">
<title>22&#45;&gt;57</title>
<path fill="none" stroke="grey" stroke-width="2" d="M634.5,-935.7C634.5,-927.98 634.5,-918.71 634.5,-910.11"/>
<polygon fill="grey" stroke="grey" stroke-width="2" points="638,-910.1 634.5,-900.1 631,-910.1 638,-910.1"/>
</g>
<!-- 58 -->
<g id="node59" class="node">
<title>58</title>
<path fill="none" stroke="#d86e56" stroke-width="2" stroke-dasharray="5,2" d="M767,-900C767,-900 704,-900 704,-900 698,-900 692,-894 692,-888 692,-888 692,-876 692,-876 692,-870 698,-864 704,-864 704,-864 767,-864 767,-864 773,-864 779,-870 779,-876 779,-876 779,-888 779,-888 779,-894 773,-900 767,-900"/>
<text text-anchor="middle" x="735.5" y="-885" font-family="sans" font-size="10.00">design_probes</text>
<text text-anchor="middle" x="735.5" y="-874" font-family="sans" font-size="10.00">chrom: chrII</text>
</g>
<!-- 22&#45;&gt;58 -->
<g id="edge90" class="edge">
<title>22&#45;&gt;58</title>
<path fill="none" stroke="grey" stroke-width="2" d="M659.21,-935.88C672.17,-926.89 688.23,-915.76 702.27,-906.03"/>
<polygon fill="grey" stroke="grey" stroke-width="2" points="704.47,-908.76 710.7,-900.19 700.48,-903.01 704.47,-908.76"/>
</g>
<!-- 59 -->
<g id="node60" class="node">
<title>59</title>
<path fill="none" stroke="#d86e56" stroke-width="2" stroke-dasharray="5,2" d="M898,-900C898,-900 835,-900 835,-900 829,-900 823,-894 823,-888 823,-888 823,-876 823,-876 823,-870 829,-864 835,-864 835,-864 898,-864 898,-864 904,-864 910,-870 910,-876 910,-876 910,-888 910,-888 910,-894 904,-900 898,-900"/>
<text text-anchor="middle" x="866.5" y="-885" font-family="sans" font-size="10.00">design_probes</text>
<text text-anchor="middle" x="866.5" y="-874" font-family="sans" font-size="10.00">chrom: chrIII</text>
</g>
<!-- 22&#45;&gt;59 -->
<g id="edge91" class="edge">
<title>22&#45;&gt;59</title>
<path fill="none" stroke="grey" stroke-width="2" d="M679.23,-939.5C717.43,-927.98 772.46,-911.38 812.98,-899.15"/>
<polygon fill="grey" stroke="grey" stroke-width="2" points="814.13,-902.46 822.69,-896.22 812.11,-895.76 814.13,-902.46"/>
</g>
<!-- 60 -->
<g id="node61" class="node">
<title>60</title>
<path fill="none" stroke="#d86e56" stroke-width="2" stroke-dasharray="5,2" d="M329,-900C329,-900 266,-900 266,-900 260,-900 254,-894 254,-888 254,-888 254,-876 254,-876 254,-870 260,-864 266,-864 266,-864 329,-864 329,-864 335,-864 341,-870 341,-876 341,-876 341,-888 341,-888 341,-894 335,-900 329,-900"/>
<text text-anchor="middle" x="297.5" y="-885" font-family="sans" font-size="10.00">design_probes</text>
<text text-anchor="middle" x="297.5" y="-874" font-family="sans" font-size="10.00">chrom: chrIV</text>
</g>
<!-- 22&#45;&gt;60 -->
<g id="edge92" class="edge">
<title>22&#45;&gt;60</title>
<path fill="none" stroke="grey" stroke-width="2" d="M589.75,-943.7C528.01,-930.88 416.89,-907.8 350.89,-894.09"/>
<polygon fill="grey" stroke="grey" stroke-width="2" points="351.6,-890.66 341.1,-892.06 350.18,-897.52 351.6,-890.66"/>
</g>
<!-- 23&#45;&gt;13 -->
<g id="edge31" class="edge">
<title>23&#45;&gt;13</title>
<path fill="none" stroke="grey" stroke-width="2" d="M962.39,-359.88C977.29,-350.72 995.83,-339.34 1011.88,-329.48"/>
<polygon fill="grey" stroke="grey" stroke-width="2" points="1013.81,-332.41 1020.51,-324.19 1010.15,-326.44 1013.81,-332.41"/>
</g>
<!-- 24&#45;&gt;13 -->
<g id="edge32" class="edge">
<title>24&#45;&gt;13</title>
<path fill="none" stroke="grey" stroke-width="2" d="M1048.5,-359.7C1048.5,-351.98 1048.5,-342.71 1048.5,-334.11"/>
<polygon fill="grey" stroke="grey" stroke-width="2" points="1052,-334.1 1048.5,-324.1 1045,-334.1 1052,-334.1"/>
</g>
<!-- 25&#45;&gt;13 -->
<g id="edge33" class="edge">
<title>25&#45;&gt;13</title>
<path fill="none" stroke="grey" stroke-width="2" d="M1135.37,-359.88C1120.33,-350.72 1101.63,-339.34 1085.44,-329.48"/>
<polygon fill="grey" stroke="grey" stroke-width="2" points="1087.1,-326.4 1076.74,-324.19 1083.46,-332.38 1087.1,-326.4"/>
</g>
<!-- 26&#45;&gt;13 -->
<g id="edge34" class="edge">
<title>26&#45;&gt;13</title>
<path fill="none" stroke="grey" stroke-width="2" d="M1230.28,-362.33C1196.67,-352.09 1151.4,-338.32 1114.45,-327.07"/>
<polygon fill="grey" stroke="grey" stroke-width="2" points="1115.34,-323.69 1104.76,-324.12 1113.31,-330.38 1115.34,-323.69"/>
</g>
<!-- 27 -->
<g id="node28" class="node">
<title>27</title>
<path fill="none" stroke="#59d856" stroke-width="2" stroke-dasharray="5,2" d="M469,-468C469,-468 404,-468 404,-468 398,-468 392,-462 392,-456 392,-456 392,-444 392,-444 392,-438 398,-432 404,-432 404,-432 469,-432 469,-432 475,-432 481,-438 481,-444 481,-444 481,-456 481,-456 481,-462 475,-468 469,-468"/>
<text text-anchor="middle" x="436.5" y="-447.5" font-family="sans" font-size="10.00">filter_n_probes</text>
</g>
<!-- 27&#45;&gt;14 -->
<g id="edge35" class="edge">
<title>27&#45;&gt;14</title>
<path fill="none" stroke="grey" stroke-width="2" d="M430.81,-431.7C428.25,-423.9 425.17,-414.51 422.32,-405.83"/>
<polygon fill="grey" stroke="grey" stroke-width="2" points="425.57,-404.51 419.12,-396.1 418.92,-406.7 425.57,-404.51"/>
</g>
<!-- 27&#45;&gt;15 -->
<g id="edge36" class="edge">
<title>27&#45;&gt;15</title>
<path fill="none" stroke="grey" stroke-width="2" d="M451.58,-431.7C458.89,-423.3 467.81,-413.07 475.84,-403.86"/>
<polygon fill="grey" stroke="grey" stroke-width="2" points="478.66,-405.94 482.59,-396.1 473.39,-401.34 478.66,-405.94"/>
</g>
<!-- 28&#45;&gt;15 -->
<g id="edge37" class="edge">
<title>28&#45;&gt;15</title>
<path fill="none" stroke="grey" stroke-width="2" d="M547.94,-431.7C539.82,-423.22 529.91,-412.86 521.03,-403.58"/>
<polygon fill="grey" stroke="grey" stroke-width="2" points="523.31,-400.91 513.87,-396.1 518.26,-405.75 523.31,-400.91"/>
</g>
<!-- 28&#45;&gt;17 -->
<g id="edge40" class="edge">
<title>28&#45;&gt;17</title>
<path fill="none" stroke="grey" stroke-width="2" d="M569.44,-431.7C571.67,-423.9 574.35,-414.51 576.83,-405.83"/>
<polygon fill="grey" stroke="grey" stroke-width="2" points="580.23,-406.68 579.61,-396.1 573.5,-404.76 580.23,-406.68"/>
</g>
<!-- 28&#45;&gt;19 -->
<g id="edge43" class="edge">
<title>28&#45;&gt;19</title>
<path fill="none" stroke="grey" stroke-width="2" d="M606.8,-433.87C633.63,-424.19 669.28,-411.21 708.34,-396.4"/>
<polygon fill="grey" stroke="grey" stroke-width="2" points="709.69,-399.63 717.8,-392.81 707.21,-393.09 709.69,-399.63"/>
</g>
<!-- 28&#45;&gt;21 -->
<g id="edge46" class="edge">
<title>28&#45;&gt;21</title>
<path fill="none" stroke="grey" stroke-width="2" d="M522.16,-438.7C485.13,-429.39 429.79,-414.72 373.83,-396.29"/>
<polygon fill="grey" stroke="grey" stroke-width="2" points="374.71,-392.89 364.12,-393.05 372.5,-399.54 374.71,-392.89"/>
</g>
<!-- 29 -->
<g id="node30" class="node">
<title>29</title>
<path fill="none" stroke="#59d856" stroke-width="2" stroke-dasharray="5,2" d="M701,-468C701,-468 636,-468 636,-468 630,-468 624,-462 624,-456 624,-456 624,-444 624,-444 624,-438 630,-432 636,-432 636,-432 701,-432 701,-432 707,-432 713,-438 713,-444 713,-444 713,-456 713,-456 713,-462 707,-468 701,-468"/>
<text text-anchor="middle" x="668.5" y="-447.5" font-family="sans" font-size="10.00">filter_n_probes</text>
</g>
<!-- 29&#45;&gt;16 -->
<g id="edge38" class="edge">
<title>29&#45;&gt;16</title>
<path fill="none" stroke="grey" stroke-width="2" d="M668.5,-431.7C668.5,-423.98 668.5,-414.71 668.5,-406.11"/>
<polygon fill="grey" stroke="grey" stroke-width="2" points="672,-406.1 668.5,-396.1 665,-406.1 672,-406.1"/>
</g>
<!-- 29&#45;&gt;17 -->
<g id="edge39" class="edge">
<title>29&#45;&gt;17</title>
<path fill="none" stroke="grey" stroke-width="2" d="M647.74,-431.7C637.26,-422.97 624.39,-412.24 613,-402.75"/>
<polygon fill="grey" stroke="grey" stroke-width="2" points="614.95,-399.82 605.03,-396.1 610.47,-405.19 614.95,-399.82"/>
</g>
<!-- 30 -->
<g id="node31" class="node">
<title>30</title>
<path fill="none" stroke="#59d856" stroke-width="2" stroke-dasharray="5,2" d="M869,-468C869,-468 804,-468 804,-468 798,-468 792,-462 792,-456 792,-456 792,-444 792,-444 792,-438 798,-432 804,-432 804,-432 869,-432 869,-432 875,-432 881,-438 881,-444 881,-444 881,-456 881,-456 881,-462 875,-468 869,-468"/>
<text text-anchor="middle" x="836.5" y="-447.5" font-family="sans" font-size="10.00">filter_n_probes</text>
</g>
<!-- 30&#45;&gt;18 -->
<g id="edge41" class="edge">
<title>30&#45;&gt;18</title>
<path fill="none" stroke="grey" stroke-width="2" d="M836.5,-431.7C836.5,-423.98 836.5,-414.71 836.5,-406.11"/>
<polygon fill="grey" stroke="grey" stroke-width="2" points="840,-406.1 836.5,-396.1 833,-406.1 840,-406.1"/>
</g>
<!-- 30&#45;&gt;19 -->
<g id="edge42" class="edge">
<title>30&#45;&gt;19</title>
<path fill="none" stroke="grey" stroke-width="2" d="M815.74,-431.7C805.26,-422.97 792.39,-412.24 781,-402.75"/>
<polygon fill="grey" stroke="grey" stroke-width="2" points="782.95,-399.82 773.03,-396.1 778.47,-405.19 782.95,-399.82"/>
</g>
<!-- 31 -->
<g id="node32" class="node">
<title>31</title>
<path fill="none" stroke="#59d856" stroke-width="2" stroke-dasharray="5,2" d="M278,-468C278,-468 213,-468 213,-468 207,-468 201,-462 201,-456 201,-456 201,-444 201,-444 201,-438 207,-432 213,-432 213,-432 278,-432 278,-432 284,-432 290,-438 290,-444 290,-444 290,-456 290,-456 290,-462 284,-468 278,-468"/>
<text text-anchor="middle" x="245.5" y="-447.5" font-family="sans" font-size="10.00">filter_n_probes</text>
</g>
<!-- 31&#45;&gt;20 -->
<g id="edge44" class="edge">
<title>31&#45;&gt;20</title>
<path fill="none" stroke="grey" stroke-width="2" d="M245.5,-431.7C245.5,-423.98 245.5,-414.71 245.5,-406.11"/>
<polygon fill="grey" stroke="grey" stroke-width="2" points="249,-406.1 245.5,-396.1 242,-406.1 249,-406.1"/>
</g>
<!-- 31&#45;&gt;21 -->
<g id="edge45" class="edge">
<title>31&#45;&gt;21</title>
<path fill="none" stroke="grey" stroke-width="2" d="M266.26,-431.7C276.74,-422.97 289.61,-412.24 301,-402.75"/>
<polygon fill="grey" stroke="grey" stroke-width="2" points="303.53,-405.19 308.97,-396.1 299.05,-399.82 303.53,-405.19"/>
</g>
<!-- 32 -->
<g id="node33" class="node">
<title>32</title>
<path fill="none" stroke="#5692d8" stroke-width="2" stroke-dasharray="5,2" d="M451.5,-540C451.5,-540 421.5,-540 421.5,-540 415.5,-540 409.5,-534 409.5,-528 409.5,-528 409.5,-516 409.5,-516 409.5,-510 415.5,-504 421.5,-504 421.5,-504 451.5,-504 451.5,-504 457.5,-504 463.5,-510 463.5,-516 463.5,-516 463.5,-528 463.5,-528 463.5,-534 457.5,-540 451.5,-540"/>
<text text-anchor="middle" x="436.5" y="-519.5" font-family="sans" font-size="10.00">score</text>
</g>
<!-- 32&#45;&gt;27 -->
<g id="edge51" class="edge">
<title>32&#45;&gt;27</title>
<path fill="none" stroke="grey" stroke-width="2" d="M436.5,-503.7C436.5,-495.98 436.5,-486.71 436.5,-478.11"/>
<polygon fill="grey" stroke="grey" stroke-width="2" points="440,-478.1 436.5,-468.1 433,-478.1 440,-478.1"/>
</g>
<!-- 33 -->
<g id="node34" class="node">
<title>33</title>
<path fill="none" stroke="#5692d8" stroke-width="2" stroke-dasharray="5,2" d="M683.5,-540C683.5,-540 653.5,-540 653.5,-540 647.5,-540 641.5,-534 641.5,-528 641.5,-528 641.5,-516 641.5,-516 641.5,-510 647.5,-504 653.5,-504 653.5,-504 683.5,-504 683.5,-504 689.5,-504 695.5,-510 695.5,-516 695.5,-516 695.5,-528 695.5,-528 695.5,-534 689.5,-540 683.5,-540"/>
<text text-anchor="middle" x="668.5" y="-519.5" font-family="sans" font-size="10.00">score</text>
</g>
<!-- 33&#45;&gt;29 -->
<g id="edge53" class="edge">
<title>33&#45;&gt;29</title>
<path fill="none" stroke="grey" stroke-width="2" d="M668.5,-503.7C668.5,-495.98 668.5,-486.71 668.5,-478.11"/>
<polygon fill="grey" stroke="grey" stroke-width="2" points="672,-478.1 668.5,-468.1 665,-478.1 672,-478.1"/>
</g>
<!-- 34 -->
<g id="node35" class="node">
<title>34</title>
<path fill="none" stroke="#5692d8" stroke-width="2" stroke-dasharray="5,2" d="M878.5,-540C878.5,-540 848.5,-540 848.5,-540 842.5,-540 836.5,-534 836.5,-528 836.5,-528 836.5,-516 836.5,-516 836.5,-510 842.5,-504 848.5,-504 848.5,-504 878.5,-504 878.5,-504 884.5,-504 890.5,-510 890.5,-516 890.5,-516 890.5,-528 890.5,-528 890.5,-534 884.5,-540 878.5,-540"/>
<text text-anchor="middle" x="863.5" y="-519.5" font-family="sans" font-size="10.00">score</text>
</g>
<!-- 34&#45;&gt;30 -->
<g id="edge54" class="edge">
<title>34&#45;&gt;30</title>
<path fill="none" stroke="grey" stroke-width="2" d="M856.83,-503.7C853.79,-495.81 850.12,-486.3 846.74,-477.55"/>
<polygon fill="grey" stroke="grey" stroke-width="2" points="849.96,-476.17 843.1,-468.1 843.43,-478.69 849.96,-476.17"/>
</g>
<!-- 35 -->
<g id="node36" class="node">
<title>35</title>
<path fill="none" stroke="#5692d8" stroke-width="2" stroke-dasharray="5,2" d="M251.5,-540C251.5,-540 221.5,-540 221.5,-540 215.5,-540 209.5,-534 209.5,-528 209.5,-528 209.5,-516 209.5,-516 209.5,-510 215.5,-504 221.5,-504 221.5,-504 251.5,-504 251.5,-504 257.5,-504 263.5,-510 263.5,-516 263.5,-516 263.5,-528 263.5,-528 263.5,-534 257.5,-540 251.5,-540"/>
<text text-anchor="middle" x="236.5" y="-519.5" font-family="sans" font-size="10.00">score</text>
</g>
<!-- 35&#45;&gt;31 -->
<g id="edge55" class="edge">
<title>35&#45;&gt;31</title>
<path fill="none" stroke="grey" stroke-width="2" d="M238.72,-503.7C239.72,-495.98 240.91,-486.71 242.01,-478.11"/>
<polygon fill="grey" stroke="grey" stroke-width="2" points="245.5,-478.47 243.3,-468.1 238.55,-477.58 245.5,-478.47"/>
</g>
<!-- 36 -->
<g id="node37" class="node">
<title>36</title>
<path fill="none" stroke="#56d8d0" stroke-width="2" stroke-dasharray="5,2" d="M469,-612C469,-612 404,-612 404,-612 398,-612 392,-606 392,-600 392,-600 392,-588 392,-588 392,-582 398,-576 404,-576 404,-576 469,-576 469,-576 475,-576 481,-582 481,-588 481,-588 481,-600 481,-600 481,-606 475,-612 469,-612"/>
<text text-anchor="middle" x="436.5" y="-591.5" font-family="sans" font-size="10.00">predict_duplex</text>
</g>
<!-- 36&#45;&gt;32 -->
<g id="edge56" class="edge">
<title>36&#45;&gt;32</title>
<path fill="none" stroke="grey" stroke-width="2" d="M436.5,-575.7C436.5,-567.98 436.5,-558.71 436.5,-550.11"/>
<polygon fill="grey" stroke="grey" stroke-width="2" points="440,-550.1 436.5,-540.1 433,-550.1 440,-550.1"/>
</g>
<!-- 37 -->
<g id="node38" class="node">
<title>37</title>
<path fill="none" stroke="#56d8d0" stroke-width="2" stroke-dasharray="5,2" d="M701,-612C701,-612 636,-612 636,-612 630,-612 624,-606 624,-600 624,-600 624,-588 624,-588 624,-582 630,-576 636,-576 636,-576 701,-576 701,-576 707,-576 713,-582 713,-588 713,-588 713,-600 713,-600 713,-606 707,-612 701,-612"/>
<text text-anchor="middle" x="668.5" y="-591.5" font-family="sans" font-size="10.00">predict_duplex</text>
</g>
<!-- 37&#45;&gt;33 -->
<g id="edge57" class="edge">
<title>37&#45;&gt;33</title>
<path fill="none" stroke="grey" stroke-width="2" d="M668.5,-575.7C668.5,-567.98 668.5,-558.71 668.5,-550.11"/>
<polygon fill="grey" stroke="grey" stroke-width="2" points="672,-550.1 668.5,-540.1 665,-550.1 672,-550.1"/>
</g>
<!-- 38 -->
<g id="node39" class="node">
<title>38</title>
<path fill="none" stroke="#56d8d0" stroke-width="2" stroke-dasharray="5,2" d="M923,-612C923,-612 858,-612 858,-612 852,-612 846,-606 846,-600 846,-600 846,-588 846,-588 846,-582 852,-576 858,-576 858,-576 923,-576 923,-576 929,-576 935,-582 935,-588 935,-588 935,-600 935,-600 935,-606 929,-612 923,-612"/>
<text text-anchor="middle" x="890.5" y="-591.5" font-family="sans" font-size="10.00">predict_duplex</text>
</g>
<!-- 38&#45;&gt;34 -->
<g id="edge58" class="edge">
<title>38&#45;&gt;34</title>
<path fill="none" stroke="grey" stroke-width="2" d="M883.83,-575.7C880.79,-567.81 877.12,-558.3 873.74,-549.55"/>
<polygon fill="grey" stroke="grey" stroke-width="2" points="876.96,-548.17 870.1,-540.1 870.43,-550.69 876.96,-548.17"/>
</g>
<!-- 39 -->
<g id="node40" class="node">
<title>39</title>
<path fill="none" stroke="#56d8d0" stroke-width="2" stroke-dasharray="5,2" d="M252,-612C252,-612 187,-612 187,-612 181,-612 175,-606 175,-600 175,-600 175,-588 175,-588 175,-582 181,-576 187,-576 187,-576 252,-576 252,-576 258,-576 264,-582 264,-588 264,-588 264,-600 264,-600 264,-606 258,-612 252,-612"/>
<text text-anchor="middle" x="219.5" y="-591.5" font-family="sans" font-size="10.00">predict_duplex</text>
</g>
<!-- 39&#45;&gt;35 -->
<g id="edge59" class="edge">
<title>39&#45;&gt;35</title>
<path fill="none" stroke="grey" stroke-width="2" d="M223.7,-575.7C225.6,-567.9 227.88,-558.51 229.98,-549.83"/>
<polygon fill="grey" stroke="grey" stroke-width="2" points="233.39,-550.65 232.35,-540.1 226.58,-549 233.39,-550.65"/>
</g>
<!-- 40 -->
<g id="node41" class="node">
<title>40</title>
<path fill="none" stroke="#d87d56" stroke-width="2" stroke-dasharray="5,2" d="M469.5,-684C469.5,-684 403.5,-684 403.5,-684 397.5,-684 391.5,-678 391.5,-672 391.5,-672 391.5,-660 391.5,-660 391.5,-654 397.5,-648 403.5,-648 403.5,-648 469.5,-648 469.5,-648 475.5,-648 481.5,-654 481.5,-660 481.5,-660 481.5,-672 481.5,-672 481.5,-678 475.5,-684 469.5,-684"/>
<text text-anchor="middle" x="436.5" y="-663.5" font-family="sans" font-size="10.00">parse_pairwise</text>
</g>
<!-- 40&#45;&gt;36 -->
<g id="edge60" class="edge">
<title>40&#45;&gt;36</title>
<path fill="none" stroke="grey" stroke-width="2" d="M436.5,-647.7C436.5,-639.98 436.5,-630.71 436.5,-622.11"/>
<polygon fill="grey" stroke="grey" stroke-width="2" points="440,-622.1 436.5,-612.1 433,-622.1 440,-622.1"/>
</g>
<!-- 41 -->
<g id="node42" class="node">
<title>41</title>
<path fill="none" stroke="#d87d56" stroke-width="2" stroke-dasharray="5,2" d="M701.5,-684C701.5,-684 635.5,-684 635.5,-684 629.5,-684 623.5,-678 623.5,-672 623.5,-672 623.5,-660 623.5,-660 623.5,-654 629.5,-648 635.5,-648 635.5,-648 701.5,-648 701.5,-648 707.5,-648 713.5,-654 713.5,-660 713.5,-660 713.5,-672 713.5,-672 713.5,-678 707.5,-684 701.5,-684"/>
<text text-anchor="middle" x="668.5" y="-663.5" font-family="sans" font-size="10.00">parse_pairwise</text>
</g>
<!-- 41&#45;&gt;37 -->
<g id="edge61" class="edge">
<title>41&#45;&gt;37</title>
<path fill="none" stroke="grey" stroke-width="2" d="M668.5,-647.7C668.5,-639.98 668.5,-630.71 668.5,-622.11"/>
<polygon fill="grey" stroke="grey" stroke-width="2" points="672,-622.1 668.5,-612.1 665,-622.1 672,-622.1"/>
</g>
<!-- 42 -->
<g id="node43" class="node">
<title>42</title>
<path fill="none" stroke="#d87d56" stroke-width="2" stroke-dasharray="5,2" d="M977.5,-684C977.5,-684 911.5,-684 911.5,-684 905.5,-684 899.5,-678 899.5,-672 899.5,-672 899.5,-660 899.5,-660 899.5,-654 905.5,-648 911.5,-648 911.5,-648 977.5,-648 977.5,-648 983.5,-648 989.5,-654 989.5,-660 989.5,-660 989.5,-672 989.5,-672 989.5,-678 983.5,-684 977.5,-684"/>
<text text-anchor="middle" x="944.5" y="-663.5" font-family="sans" font-size="10.00">parse_pairwise</text>
</g>
<!-- 42&#45;&gt;38 -->
<g id="edge62" class="edge">
<title>42&#45;&gt;38</title>
<path fill="none" stroke="grey" stroke-width="2" d="M931.15,-647.7C924.74,-639.39 916.94,-629.28 909.89,-620.14"/>
<polygon fill="grey" stroke="grey" stroke-width="2" points="912.57,-617.88 903.69,-612.1 907.03,-622.16 912.57,-617.88"/>
</g>
<!-- 43 -->
<g id="node44" class="node">
<title>43</title>
<path fill="none" stroke="#d87d56" stroke-width="2" stroke-dasharray="5,2" d="M243.5,-684C243.5,-684 177.5,-684 177.5,-684 171.5,-684 165.5,-678 165.5,-672 165.5,-672 165.5,-660 165.5,-660 165.5,-654 171.5,-648 177.5,-648 177.5,-648 243.5,-648 243.5,-648 249.5,-648 255.5,-654 255.5,-660 255.5,-660 255.5,-672 255.5,-672 255.5,-678 249.5,-684 243.5,-684"/>
<text text-anchor="middle" x="210.5" y="-663.5" font-family="sans" font-size="10.00">parse_pairwise</text>
</g>
<!-- 43&#45;&gt;39 -->
<g id="edge63" class="edge">
<title>43&#45;&gt;39</title>
<path fill="none" stroke="grey" stroke-width="2" d="M212.72,-647.7C213.72,-639.98 214.91,-630.71 216.01,-622.11"/>
<polygon fill="grey" stroke="grey" stroke-width="2" points="219.5,-622.47 217.3,-612.1 212.55,-621.58 219.5,-622.47"/>
</g>
<!-- 44 -->
<g id="node45" class="node">
<title>44</title>
<path fill="none" stroke="#ced856" stroke-width="2" stroke-dasharray="5,2" d="M526,-756C526,-756 451,-756 451,-756 445,-756 439,-750 439,-744 439,-744 439,-732 439,-732 439,-726 445,-720 451,-720 451,-720 526,-720 526,-720 532,-720 538,-726 538,-732 538,-732 538,-744 538,-744 538,-750 532,-756 526,-756"/>
<text text-anchor="middle" x="488.5" y="-735.5" font-family="sans" font-size="10.00">sam_to_pairwise</text>
</g>
<!-- 44&#45;&gt;40 -->
<g id="edge64" class="edge">
<title>44&#45;&gt;40</title>
<path fill="none" stroke="grey" stroke-width="2" d="M475.65,-719.7C469.47,-711.39 461.96,-701.28 455.18,-692.14"/>
<polygon fill="grey" stroke="grey" stroke-width="2" points="457.98,-690.04 449.21,-684.1 452.36,-694.22 457.98,-690.04"/>
</g>
<!-- 45 -->
<g id="node46" class="node">
<title>45</title>
<path fill="none" stroke="#8fd856" stroke-width="2" stroke-dasharray="5,2" d="M409,-756C409,-756 290,-756 290,-756 284,-756 278,-750 278,-744 278,-744 278,-732 278,-732 278,-726 284,-720 290,-720 290,-720 409,-720 409,-720 415,-720 421,-726 421,-732 421,-732 421,-744 421,-744 421,-750 415,-756 409,-756"/>
<text text-anchor="middle" x="349.5" y="-735.5" font-family="sans" font-size="10.00">extract_alignment_scores</text>
</g>
<!-- 45&#45;&gt;40 -->
<g id="edge65" class="edge">
<title>45&#45;&gt;40</title>
<path fill="none" stroke="grey" stroke-width="2" d="M371.01,-719.7C381.96,-710.88 395.45,-700.03 407.32,-690.47"/>
<polygon fill="grey" stroke="grey" stroke-width="2" points="409.64,-693.1 415.24,-684.1 405.26,-687.65 409.64,-693.1"/>
</g>
<!-- 46 -->
<g id="node47" class="node">
<title>46</title>
<path fill="none" stroke="#ced856" stroke-width="2" stroke-dasharray="5,2" d="M682,-756C682,-756 607,-756 607,-756 601,-756 595,-750 595,-744 595,-744 595,-732 595,-732 595,-726 601,-720 607,-720 607,-720 682,-720 682,-720 688,-720 694,-726 694,-732 694,-732 694,-744 694,-744 694,-750 688,-756 682,-756"/>
<text text-anchor="middle" x="644.5" y="-735.5" font-family="sans" font-size="10.00">sam_to_pairwise</text>
</g>
<!-- 46&#45;&gt;41 -->
<g id="edge66" class="edge">
<title>46&#45;&gt;41</title>
<path fill="none" stroke="grey" stroke-width="2" d="M650.43,-719.7C653.11,-711.9 656.33,-702.51 659.3,-693.83"/>
<polygon fill="grey" stroke="grey" stroke-width="2" points="662.7,-694.7 662.64,-684.1 656.08,-692.43 662.7,-694.7"/>
</g>
<!-- 47 -->
<g id="node48" class="node">
<title>47</title>
<path fill="none" stroke="#8fd856" stroke-width="2" stroke-dasharray="5,2" d="M843,-756C843,-756 724,-756 724,-756 718,-756 712,-750 712,-744 712,-744 712,-732 712,-732 712,-726 718,-720 724,-720 724,-720 843,-720 843,-720 849,-720 855,-726 855,-732 855,-732 855,-744 855,-744 855,-750 849,-756 843,-756"/>
<text text-anchor="middle" x="783.5" y="-735.5" font-family="sans" font-size="10.00">extract_alignment_scores</text>
</g>
<!-- 47&#45;&gt;41 -->
<g id="edge67" class="edge">
<title>47&#45;&gt;41</title>
<path fill="none" stroke="grey" stroke-width="2" d="M755.37,-719.88C740.33,-710.72 721.63,-699.34 705.44,-689.48"/>
<polygon fill="grey" stroke="grey" stroke-width="2" points="707.1,-686.4 696.74,-684.19 703.46,-692.38 707.1,-686.4"/>
</g>
<!-- 48 -->
<g id="node49" class="node">
<title>48</title>
<path fill="none" stroke="#ced856" stroke-width="2" stroke-dasharray="5,2" d="M1121,-756C1121,-756 1046,-756 1046,-756 1040,-756 1034,-750 1034,-744 1034,-744 1034,-732 1034,-732 1034,-726 1040,-720 1046,-720 1046,-720 1121,-720 1121,-720 1127,-720 1133,-726 1133,-732 1133,-732 1133,-744 1133,-744 1133,-750 1127,-756 1121,-756"/>
<text text-anchor="middle" x="1083.5" y="-735.5" font-family="sans" font-size="10.00">sam_to_pairwise</text>
</g>
<!-- 48&#45;&gt;42 -->
<g id="edge68" class="edge">
<title>48&#45;&gt;42</title>
<path fill="none" stroke="grey" stroke-width="2" d="M1049.5,-719.88C1030.9,-710.51 1007.67,-698.81 987.79,-688.8"/>
<polygon fill="grey" stroke="grey" stroke-width="2" points="989.14,-685.56 978.63,-684.19 985.99,-691.81 989.14,-685.56"/>
</g>
<!-- 49 -->
<g id="node50" class="node">
<title>49</title>
<path fill="none" stroke="#8fd856" stroke-width="2" stroke-dasharray="5,2" d="M1004,-756C1004,-756 885,-756 885,-756 879,-756 873,-750 873,-744 873,-744 873,-732 873,-732 873,-726 879,-720 885,-720 885,-720 1004,-720 1004,-720 1010,-720 1016,-726 1016,-732 1016,-732 1016,-744 1016,-744 1016,-750 1010,-756 1004,-756"/>
<text text-anchor="middle" x="944.5" y="-735.5" font-family="sans" font-size="10.00">extract_alignment_scores</text>
</g>
<!-- 49&#45;&gt;42 -->
<g id="edge69" class="edge">
<title>49&#45;&gt;42</title>
<path fill="none" stroke="grey" stroke-width="2" d="M944.5,-719.7C944.5,-711.98 944.5,-702.71 944.5,-694.11"/>
<polygon fill="grey" stroke="grey" stroke-width="2" points="948,-694.1 944.5,-684.1 941,-694.1 948,-694.1"/>
</g>
<!-- 50 -->
<g id="node51" class="node">
<title>50</title>
<path fill="none" stroke="#ced856" stroke-width="2" stroke-dasharray="5,2" d="M248,-756C248,-756 173,-756 173,-756 167,-756 161,-750 161,-744 161,-744 161,-732 161,-732 161,-726 167,-720 173,-720 173,-720 248,-720 248,-720 254,-720 260,-726 260,-732 260,-732 260,-744 260,-744 260,-750 254,-756 248,-756"/>
<text text-anchor="middle" x="210.5" y="-735.5" font-family="sans" font-size="10.00">sam_to_pairwise</text>
</g>
<!-- 50&#45;&gt;43 -->
<g id="edge70" class="edge">
<title>50&#45;&gt;43</title>
<path fill="none" stroke="grey" stroke-width="2" d="M210.5,-719.7C210.5,-711.98 210.5,-702.71 210.5,-694.11"/>
<polygon fill="grey" stroke="grey" stroke-width="2" points="214,-694.1 210.5,-684.1 207,-694.1 214,-694.1"/>
</g>
<!-- 51 -->
<g id="node52" class="node">
<title>51</title>
<path fill="none" stroke="#8fd856" stroke-width="2" stroke-dasharray="5,2" d="M131,-756C131,-756 12,-756 12,-756 6,-756 0,-750 0,-744 0,-744 0,-732 0,-732 0,-726 6,-720 12,-720 12,-720 131,-720 131,-720 137,-720 143,-726 143,-732 143,-732 143,-744 143,-744 143,-750 137,-756 131,-756"/>
<text text-anchor="middle" x="71.5" y="-735.5" font-family="sans" font-size="10.00">extract_alignment_scores</text>
</g>
<!-- 51&#45;&gt;43 -->
<g id="edge71" class="edge">
<title>51&#45;&gt;43</title>
<path fill="none" stroke="grey" stroke-width="2" d="M105.5,-719.88C124.1,-710.51 147.33,-698.81 167.21,-688.8"/>
<polygon fill="grey" stroke="grey" stroke-width="2" points="169.01,-691.81 176.37,-684.19 165.86,-685.56 169.01,-691.81"/>
</g>
<!-- 52 -->
<g id="node53" class="node">
<title>52</title>
<path fill="none" stroke="#56d0d8" stroke-width="2" stroke-dasharray="5,2" d="M517,-828C517,-828 462,-828 462,-828 456,-828 450,-822 450,-816 450,-816 450,-804 450,-804 450,-798 456,-792 462,-792 462,-792 517,-792 517,-792 523,-792 529,-798 529,-804 529,-804 529,-816 529,-816 529,-822 523,-828 517,-828"/>
<text text-anchor="middle" x="489.5" y="-807.5" font-family="sans" font-size="10.00">align_probes</text>
</g>
<!-- 52&#45;&gt;44 -->
<g id="edge72" class="edge">
<title>52&#45;&gt;44</title>
<path fill="none" stroke="grey" stroke-width="2" d="M489.25,-791.7C489.14,-783.98 489.01,-774.71 488.89,-766.11"/>
<polygon fill="grey" stroke="grey" stroke-width="2" points="492.39,-766.05 488.74,-756.1 485.39,-766.15 492.39,-766.05"/>
</g>
<!-- 52&#45;&gt;45 -->
<g id="edge73" class="edge">
<title>52&#45;&gt;45</title>
<path fill="none" stroke="grey" stroke-width="2" d="M455.25,-791.88C436.44,-782.47 412.92,-770.71 392.83,-760.67"/>
<polygon fill="grey" stroke="grey" stroke-width="2" points="394.39,-757.53 383.88,-756.19 391.26,-763.79 394.39,-757.53"/>
</g>
<!-- 53 -->
<g id="node54" class="node">
<title>53</title>
<path fill="none" stroke="#56d0d8" stroke-width="2" stroke-dasharray="5,2" d="M717,-828C717,-828 662,-828 662,-828 656,-828 650,-822 650,-816 650,-816 650,-804 650,-804 650,-798 656,-792 662,-792 662,-792 717,-792 717,-792 723,-792 729,-798 729,-804 729,-804 729,-816 729,-816 729,-822 723,-828 717,-828"/>
<text text-anchor="middle" x="689.5" y="-807.5" font-family="sans" font-size="10.00">align_probes</text>
</g>
<!-- 53&#45;&gt;46 -->
<g id="edge74" class="edge">
<title>53&#45;&gt;46</title>
<path fill="none" stroke="grey" stroke-width="2" d="M678.38,-791.7C673.14,-783.56 666.8,-773.69 661.02,-764.7"/>
<polygon fill="grey" stroke="grey" stroke-width="2" points="663.85,-762.62 655.5,-756.1 657.96,-766.41 663.85,-762.62"/>
</g>
<!-- 53&#45;&gt;47 -->
<g id="edge75" class="edge">
<title>53&#45;&gt;47</title>
<path fill="none" stroke="grey" stroke-width="2" d="M712.74,-791.7C724.69,-782.8 739.42,-771.82 752.35,-762.2"/>
<polygon fill="grey" stroke="grey" stroke-width="2" points="754.6,-764.88 760.53,-756.1 750.42,-759.27 754.6,-764.88"/>
</g>
<!-- 54 -->
<g id="node55" class="node">
<title>54</title>
<path fill="none" stroke="#56d0d8" stroke-width="2" stroke-dasharray="5,2" d="M920,-828C920,-828 865,-828 865,-828 859,-828 853,-822 853,-816 853,-816 853,-804 853,-804 853,-798 859,-792 865,-792 865,-792 920,-792 920,-792 926,-792 932,-798 932,-804 932,-804 932,-816 932,-816 932,-822 926,-828 920,-828"/>
<text text-anchor="middle" x="892.5" y="-807.5" font-family="sans" font-size="10.00">align_probes</text>
</g>
<!-- 54&#45;&gt;48 -->
<g id="edge76" class="edge">
<title>54&#45;&gt;48</title>
<path fill="none" stroke="grey" stroke-width="2" d="M932.08,-794.5C959.58,-784.41 996.65,-770.83 1027.23,-759.62"/>
<polygon fill="grey" stroke="grey" stroke-width="2" points="1028.72,-762.8 1036.9,-756.08 1026.31,-756.23 1028.72,-762.8"/>
</g>
<!-- 54&#45;&gt;49 -->
<g id="edge77" class="edge">
<title>54&#45;&gt;49</title>
<path fill="none" stroke="grey" stroke-width="2" d="M905.35,-791.7C911.53,-783.39 919.04,-773.28 925.82,-764.14"/>
<polygon fill="grey" stroke="grey" stroke-width="2" points="928.64,-766.22 931.79,-756.1 923.02,-762.04 928.64,-766.22"/>
</g>
<!-- 55 -->
<g id="node56" class="node">
<title>55</title>
<path fill="none" stroke="#56d0d8" stroke-width="2" stroke-dasharray="5,2" d="M281,-828C281,-828 226,-828 226,-828 220,-828 214,-822 214,-816 214,-816 214,-804 214,-804 214,-798 220,-792 226,-792 226,-792 281,-792 281,-792 287,-792 293,-798 293,-804 293,-804 293,-816 293,-816 293,-822 287,-828 281,-828"/>
<text text-anchor="middle" x="253.5" y="-807.5" font-family="sans" font-size="10.00">align_probes</text>
</g>
<!-- 55&#45;&gt;50 -->
<g id="edge78" class="edge">
<title>55&#45;&gt;50</title>
<path fill="none" stroke="grey" stroke-width="2" d="M242.87,-791.7C237.87,-783.56 231.81,-773.69 226.29,-764.7"/>
<polygon fill="grey" stroke="grey" stroke-width="2" points="229.22,-762.79 221.01,-756.1 223.26,-766.46 229.22,-762.79"/>
</g>
<!-- 55&#45;&gt;51 -->
<g id="edge79" class="edge">
<title>55&#45;&gt;51</title>
<path fill="none" stroke="grey" stroke-width="2" d="M213.56,-793.64C187.61,-783.66 153.48,-770.53 125.17,-759.64"/>
<polygon fill="grey" stroke="grey" stroke-width="2" points="126.4,-756.37 115.81,-756.04 123.89,-762.9 126.4,-756.37"/>
</g>
<!-- 56&#45;&gt;52 -->
<g id="edge80" class="edge">
<title>56&#45;&gt;52</title>
<path fill="none" stroke="grey" stroke-width="2" d="M491.01,-863.7C490.79,-855.98 490.52,-846.71 490.27,-838.11"/>
<polygon fill="grey" stroke="grey" stroke-width="2" points="493.77,-838 489.99,-828.1 486.78,-838.2 493.77,-838"/>
</g>
<!-- 57&#45;&gt;52 -->
<g id="edge81" class="edge">
<title>57&#45;&gt;52</title>
<path fill="none" stroke="grey" stroke-width="2" d="M599.03,-863.88C579.38,-854.39 554.78,-842.51 533.87,-832.42"/>
<polygon fill="grey" stroke="grey" stroke-width="2" points="535.38,-829.26 524.86,-828.07 532.34,-835.57 535.38,-829.26"/>
</g>
<!-- 57&#45;&gt;53 -->
<g id="edge83" class="edge">
<title>57&#45;&gt;53</title>
<path fill="none" stroke="grey" stroke-width="2" d="M648.1,-863.7C654.62,-855.39 662.57,-845.28 669.75,-836.14"/>
<polygon fill="grey" stroke="grey" stroke-width="2" points="672.63,-838.13 676.06,-828.1 667.13,-833.81 672.63,-838.13"/>
</g>
<!-- 57&#45;&gt;54 -->
<g id="edge85" class="edge">
<title>57&#45;&gt;54</title>
<path fill="none" stroke="grey" stroke-width="2" d="M674.25,-866.89C677.37,-865.88 680.48,-864.9 683.5,-864 737.61,-847.79 800.55,-832.27 843.11,-822.26"/>
<polygon fill="grey" stroke="grey" stroke-width="2" points="843.99,-825.65 852.93,-819.97 842.4,-818.84 843.99,-825.65"/>
</g>
<!-- 57&#45;&gt;55 -->
<g id="edge87" class="edge">
<title>57&#45;&gt;55</title>
<path fill="none" stroke="grey" stroke-width="2" d="M594.64,-873.52C578.73,-870.54 560.25,-867.1 543.5,-864 459.23,-848.43 361.13,-830.55 303.34,-820.05"/>
<polygon fill="grey" stroke="grey" stroke-width="2" points="303.85,-816.58 293.38,-818.24 302.59,-823.47 303.85,-816.58"/>
</g>
<!-- 58&#45;&gt;53 -->
<g id="edge82" class="edge">
<title>58&#45;&gt;53</title>
<path fill="none" stroke="grey" stroke-width="2" d="M724.13,-863.7C718.78,-855.56 712.3,-845.69 706.39,-836.7"/>
<polygon fill="grey" stroke="grey" stroke-width="2" points="709.16,-834.54 700.74,-828.1 703.31,-838.38 709.16,-834.54"/>
</g>
<!-- 59&#45;&gt;54 -->
<g id="edge84" class="edge">
<title>59&#45;&gt;54</title>
<path fill="none" stroke="grey" stroke-width="2" d="M872.93,-863.7C875.86,-855.81 879.39,-846.3 882.64,-837.55"/>
<polygon fill="grey" stroke="grey" stroke-width="2" points="885.95,-838.7 886.15,-828.1 879.38,-836.26 885.95,-838.7"/>
</g>
<!-- 60&#45;&gt;55 -->
<g id="edge86" class="edge">
<title>60&#45;&gt;55</title>
<path fill="none" stroke="grey" stroke-width="2" d="M286.62,-863.7C281.51,-855.56 275.3,-845.69 269.66,-836.7"/>
<polygon fill="grey" stroke="grey" stroke-width="2" points="272.54,-834.71 264.25,-828.1 266.61,-838.43 272.54,-834.71"/>
</g>
</g>
</svg>
