<?xml version="1.0" encoding="UTF-8" standalone="no"?>
<!DOCTYPE svg PUBLIC "-//W3C//DTD SVG 1.1//EN"
 "http://www.w3.org/Graphics/SVG/1.1/DTD/svg11.dtd">
<!-- Generated by graphviz version 2.42.3 (20191010.1750)
 -->
<!-- Title: snakemake_dag Pages: 1 -->
<svg width="1307pt" height="980pt"
 viewBox="0.00 0.00 1306.79 980.00" xmlns="http://www.w3.org/2000/svg" xmlns:xlink="http://www.w3.org/1999/xlink">
<g id="graph0" class="graph" transform="scale(1 1) rotate(0) translate(4 976)">
<title>snakemake_dag</title>
<polygon fill="white" stroke="transparent" points="-4,4 -4,-976 1302.79,-976 1302.79,4 -4,4"/>
<!-- 0 -->
<g id="node1" class="node">
<title>0</title>
<path fill="none" stroke="#d86e56" stroke-width="2" stroke-dasharray="5,2" d="M658.5,-36C658.5,-36 628.5,-36 628.5,-36 622.5,-36 616.5,-30 616.5,-24 616.5,-24 616.5,-12 616.5,-12 616.5,-6 622.5,0 628.5,0 628.5,0 658.5,0 658.5,0 664.5,0 670.5,-6 670.5,-12 670.5,-12 670.5,-24 670.5,-24 670.5,-30 664.5,-36 658.5,-36"/>
<text text-anchor="middle" x="643.5" y="-15.5" font-family="sans" font-size="10.00">all</text>
</g>
<!-- 1 -->
<g id="node2" class="node">
<title>1</title>
<path fill="none" stroke="#ced856" stroke-width="2" stroke-dasharray="5,2" d="M658.5,-108C658.5,-108 628.5,-108 628.5,-108 622.5,-108 616.5,-102 616.5,-96 616.5,-96 616.5,-84 616.5,-84 616.5,-78 622.5,-72 628.5,-72 628.5,-72 658.5,-72 658.5,-72 664.5,-72 670.5,-78 670.5,-84 670.5,-84 670.5,-96 670.5,-96 670.5,-102 664.5,-108 658.5,-108"/>
<text text-anchor="middle" x="643.5" y="-87.5" font-family="sans" font-size="10.00">finish</text>
</g>
<!-- 1&#45;&gt;0 -->
<g id="edge1" class="edge">
<title>1&#45;&gt;0</title>
<path fill="none" stroke="grey" stroke-width="2" d="M643.5,-71.7C643.5,-63.98 643.5,-54.71 643.5,-46.11"/>
<polygon fill="grey" stroke="grey" stroke-width="2" points="647,-46.1 643.5,-36.1 640,-46.1 647,-46.1"/>
</g>
<!-- 2 -->
<g id="node3" class="node">
<title>2</title>
<path fill="none" stroke="#566bd8" stroke-width="2" stroke-dasharray="5,2" d="M574,-180C574,-180 529,-180 529,-180 523,-180 517,-174 517,-168 517,-168 517,-156 517,-156 517,-150 523,-144 529,-144 529,-144 574,-144 574,-144 580,-144 586,-150 586,-156 586,-156 586,-168 586,-168 586,-174 580,-180 574,-180"/>
<text text-anchor="middle" x="551.5" y="-159.5" font-family="sans" font-size="10.00">zip_probes</text>
</g>
<!-- 2&#45;&gt;1 -->
<g id="edge2" class="edge">
<title>2&#45;&gt;1</title>
<path fill="none" stroke="grey" stroke-width="2" d="M574.24,-143.7C585.94,-134.8 600.36,-123.82 613.01,-114.2"/>
<polygon fill="grey" stroke="grey" stroke-width="2" points="615.18,-116.94 621.02,-108.1 610.94,-111.37 615.18,-116.94"/>
</g>
<!-- 3 -->
<g id="node4" class="node">
<title>3</title>
<path fill="none" stroke="#8fd856" stroke-width="2" stroke-dasharray="5,2" d="M769.5,-180C769.5,-180 709.5,-180 709.5,-180 703.5,-180 697.5,-174 697.5,-168 697.5,-168 697.5,-156 697.5,-156 697.5,-150 703.5,-144 709.5,-144 709.5,-144 769.5,-144 769.5,-144 775.5,-144 781.5,-150 781.5,-156 781.5,-156 781.5,-168 781.5,-168 781.5,-174 775.5,-180 769.5,-180"/>
<text text-anchor="middle" x="739.5" y="-159.5" font-family="sans" font-size="10.00">zip_refseq_db</text>
</g>
<!-- 3&#45;&gt;1 -->
<g id="edge3" class="edge">
<title>3&#45;&gt;1</title>
<path fill="none" stroke="grey" stroke-width="2" d="M715.77,-143.7C703.56,-134.8 688.51,-123.82 675.32,-114.2"/>
<polygon fill="grey" stroke="grey" stroke-width="2" points="677.1,-111.17 666.96,-108.1 672.98,-116.82 677.1,-111.17"/>
</g>
<!-- 4 -->
<g id="node5" class="node">
<title>4</title>
<path fill="none" stroke="#d8a456" stroke-width="2" stroke-dasharray="5,2" d="M665.5,-180C665.5,-180 621.5,-180 621.5,-180 615.5,-180 609.5,-174 609.5,-168 609.5,-168 609.5,-156 609.5,-156 609.5,-150 615.5,-144 621.5,-144 621.5,-144 665.5,-144 665.5,-144 671.5,-144 677.5,-150 677.5,-156 677.5,-156 677.5,-168 677.5,-168 677.5,-174 671.5,-180 665.5,-180"/>
<text text-anchor="middle" x="643.5" y="-159.5" font-family="sans" font-size="10.00">zip_iso_db</text>
</g>
<!-- 4&#45;&gt;1 -->
<g id="edge4" class="edge">
<title>4&#45;&gt;1</title>
<path fill="none" stroke="grey" stroke-width="2" d="M643.5,-143.7C643.5,-135.98 643.5,-126.71 643.5,-118.11"/>
<polygon fill="grey" stroke="grey" stroke-width="2" points="647,-118.1 643.5,-108.1 640,-118.1 647,-118.1"/>
</g>
<!-- 5 -->
<g id="node6" class="node">
<title>5</title>
<path fill="none" stroke="#5692d8" stroke-width="2" stroke-dasharray="5,2" d="M577.5,-252C577.5,-252 515.5,-252 515.5,-252 509.5,-252 503.5,-246 503.5,-240 503.5,-240 503.5,-228 503.5,-228 503.5,-222 509.5,-216 515.5,-216 515.5,-216 577.5,-216 577.5,-216 583.5,-216 589.5,-222 589.5,-228 589.5,-228 589.5,-240 589.5,-240 589.5,-246 583.5,-252 577.5,-252"/>
<text text-anchor="middle" x="546.5" y="-231.5" font-family="sans" font-size="10.00">merge_probes</text>
</g>
<!-- 5&#45;&gt;2 -->
<g id="edge5" class="edge">
<title>5&#45;&gt;2</title>
<path fill="none" stroke="grey" stroke-width="2" d="M547.74,-215.7C548.29,-207.98 548.95,-198.71 549.56,-190.11"/>
<polygon fill="grey" stroke="grey" stroke-width="2" points="553.06,-190.33 550.28,-180.1 546.07,-189.83 553.06,-190.33"/>
</g>
<!-- 6 -->
<g id="node7" class="node">
<title>6</title>
<path fill="none" stroke="#d89556" stroke-width="2" stroke-dasharray="5,2" d="M773.5,-252C773.5,-252 709.5,-252 709.5,-252 703.5,-252 697.5,-246 697.5,-240 697.5,-240 697.5,-228 697.5,-228 697.5,-222 703.5,-216 709.5,-216 709.5,-216 773.5,-216 773.5,-216 779.5,-216 785.5,-222 785.5,-228 785.5,-228 785.5,-240 785.5,-240 785.5,-246 779.5,-252 773.5,-252"/>
<text text-anchor="middle" x="741.5" y="-231.5" font-family="sans" font-size="10.00">gen_refseq_db</text>
</g>
<!-- 6&#45;&gt;3 -->
<g id="edge6" class="edge">
<title>6&#45;&gt;3</title>
<path fill="none" stroke="grey" stroke-width="2" d="M741.01,-215.7C740.79,-207.98 740.52,-198.71 740.27,-190.11"/>
<polygon fill="grey" stroke="grey" stroke-width="2" points="743.77,-190 739.99,-180.1 736.78,-190.2 743.77,-190"/>
</g>
<!-- 7 -->
<g id="node8" class="node">
<title>7</title>
<path fill="none" stroke="#56a9d8" stroke-width="2" stroke-dasharray="5,2" d="M667,-252C667,-252 620,-252 620,-252 614,-252 608,-246 608,-240 608,-240 608,-228 608,-228 608,-222 614,-216 620,-216 620,-216 667,-216 667,-216 673,-216 679,-222 679,-228 679,-228 679,-240 679,-240 679,-246 673,-252 667,-252"/>
<text text-anchor="middle" x="643.5" y="-231.5" font-family="sans" font-size="10.00">gen_iso_db</text>
</g>
<!-- 7&#45;&gt;4 -->
<g id="edge7" class="edge">
<title>7&#45;&gt;4</title>
<path fill="none" stroke="grey" stroke-width="2" d="M643.5,-215.7C643.5,-207.98 643.5,-198.71 643.5,-190.11"/>
<polygon fill="grey" stroke="grey" stroke-width="2" points="647,-190.1 643.5,-180.1 640,-190.1 647,-190.1"/>
</g>
<!-- 8 -->
<g id="node9" class="node">
<title>8</title>
<path fill="none" stroke="#56d8a9" stroke-width="2" stroke-dasharray="5,2" d="M574.5,-324C574.5,-324 522.5,-324 522.5,-324 516.5,-324 510.5,-318 510.5,-312 510.5,-312 510.5,-300 510.5,-300 510.5,-294 516.5,-288 522.5,-288 522.5,-288 574.5,-288 574.5,-288 580.5,-288 586.5,-294 586.5,-300 586.5,-300 586.5,-312 586.5,-312 586.5,-318 580.5,-324 574.5,-324"/>
<text text-anchor="middle" x="548.5" y="-303.5" font-family="sans" font-size="10.00">final_probes</text>
</g>
<!-- 8&#45;&gt;5 -->
<g id="edge8" class="edge">
<title>8&#45;&gt;5</title>
<path fill="none" stroke="grey" stroke-width="2" d="M548.01,-287.7C547.79,-279.98 547.52,-270.71 547.27,-262.11"/>
<polygon fill="grey" stroke="grey" stroke-width="2" points="550.77,-262 546.99,-252.1 543.78,-262.2 550.77,-262"/>
</g>
<!-- 8&#45;&gt;6 -->
<g id="edge12" class="edge">
<title>8&#45;&gt;6</title>
<path fill="none" stroke="grey" stroke-width="2" d="M586.63,-291.17C615.5,-280.7 655.54,-266.18 687.67,-254.52"/>
<polygon fill="grey" stroke="grey" stroke-width="2" points="689.16,-257.71 697.37,-251.01 686.78,-251.13 689.16,-257.71"/>
</g>
<!-- 8&#45;&gt;7 -->
<g id="edge17" class="edge">
<title>8&#45;&gt;7</title>
<path fill="none" stroke="grey" stroke-width="2" d="M571.98,-287.7C584.06,-278.8 598.95,-267.82 612.02,-258.2"/>
<polygon fill="grey" stroke="grey" stroke-width="2" points="614.31,-260.85 620.29,-252.1 610.16,-255.22 614.31,-260.85"/>
</g>
<!-- 9 -->
<g id="node10" class="node">
<title>9</title>
<path fill="none" stroke="#56d8a9" stroke-width="2" stroke-dasharray="5,2" d="M669.5,-324C669.5,-324 617.5,-324 617.5,-324 611.5,-324 605.5,-318 605.5,-312 605.5,-312 605.5,-300 605.5,-300 605.5,-294 611.5,-288 617.5,-288 617.5,-288 669.5,-288 669.5,-288 675.5,-288 681.5,-294 681.5,-300 681.5,-300 681.5,-312 681.5,-312 681.5,-318 675.5,-324 669.5,-324"/>
<text text-anchor="middle" x="643.5" y="-303.5" font-family="sans" font-size="10.00">final_probes</text>
</g>
<!-- 9&#45;&gt;5 -->
<g id="edge9" class="edge">
<title>9&#45;&gt;5</title>
<path fill="none" stroke="grey" stroke-width="2" d="M619.52,-287.7C607.19,-278.8 591.98,-267.82 578.65,-258.2"/>
<polygon fill="grey" stroke="grey" stroke-width="2" points="580.36,-255.12 570.2,-252.1 576.26,-260.79 580.36,-255.12"/>
</g>
<!-- 9&#45;&gt;6 -->
<g id="edge13" class="edge">
<title>9&#45;&gt;6</title>
<path fill="none" stroke="grey" stroke-width="2" d="M667.47,-287.88C680.05,-278.89 695.63,-267.76 709.25,-258.03"/>
<polygon fill="grey" stroke="grey" stroke-width="2" points="711.33,-260.85 717.43,-252.19 707.26,-255.15 711.33,-260.85"/>
</g>
<!-- 9&#45;&gt;7 -->
<g id="edge18" class="edge">
<title>9&#45;&gt;7</title>
<path fill="none" stroke="grey" stroke-width="2" d="M643.5,-287.7C643.5,-279.98 643.5,-270.71 643.5,-262.11"/>
<polygon fill="grey" stroke="grey" stroke-width="2" points="647,-262.1 643.5,-252.1 640,-262.1 647,-262.1"/>
</g>
<!-- 10 -->
<g id="node11" class="node">
<title>10</title>
<path fill="none" stroke="#56d8a9" stroke-width="2" stroke-dasharray="5,2" d="M767.5,-324C767.5,-324 715.5,-324 715.5,-324 709.5,-324 703.5,-318 703.5,-312 703.5,-312 703.5,-300 703.5,-300 703.5,-294 709.5,-288 715.5,-288 715.5,-288 767.5,-288 767.5,-288 773.5,-288 779.5,-294 779.5,-300 779.5,-300 779.5,-312 779.5,-312 779.5,-318 773.5,-324 767.5,-324"/>
<text text-anchor="middle" x="741.5" y="-303.5" font-family="sans" font-size="10.00">final_probes</text>
</g>
<!-- 10&#45;&gt;5 -->
<g id="edge10" class="edge">
<title>10&#45;&gt;5</title>
<path fill="none" stroke="grey" stroke-width="2" d="M703.44,-291.34C673.68,-280.65 631.97,-265.68 599.03,-253.86"/>
<polygon fill="grey" stroke="grey" stroke-width="2" points="600.15,-250.54 589.56,-250.46 597.79,-257.13 600.15,-250.54"/>
</g>
<!-- 10&#45;&gt;6 -->
<g id="edge14" class="edge">
<title>10&#45;&gt;6</title>
<path fill="none" stroke="grey" stroke-width="2" d="M741.5,-287.7C741.5,-279.98 741.5,-270.71 741.5,-262.11"/>
<polygon fill="grey" stroke="grey" stroke-width="2" points="745,-262.1 741.5,-252.1 738,-262.1 745,-262.1"/>
</g>
<!-- 10&#45;&gt;7 -->
<g id="edge19" class="edge">
<title>10&#45;&gt;7</title>
<path fill="none" stroke="grey" stroke-width="2" d="M717.53,-287.88C704.95,-278.89 689.37,-267.76 675.75,-258.03"/>
<polygon fill="grey" stroke="grey" stroke-width="2" points="677.74,-255.15 667.57,-252.19 673.67,-260.85 677.74,-255.15"/>
</g>
<!-- 11 -->
<g id="node12" class="node">
<title>11</title>
<path fill="none" stroke="#56d8a9" stroke-width="2" stroke-dasharray="5,2" d="M480.5,-324C480.5,-324 428.5,-324 428.5,-324 422.5,-324 416.5,-318 416.5,-312 416.5,-312 416.5,-300 416.5,-300 416.5,-294 422.5,-288 428.5,-288 428.5,-288 480.5,-288 480.5,-288 486.5,-288 492.5,-294 492.5,-300 492.5,-300 492.5,-312 492.5,-312 492.5,-318 486.5,-324 480.5,-324"/>
<text text-anchor="middle" x="454.5" y="-303.5" font-family="sans" font-size="10.00">final_probes</text>
</g>
<!-- 11&#45;&gt;5 -->
<g id="edge11" class="edge">
<title>11&#45;&gt;5</title>
<path fill="none" stroke="grey" stroke-width="2" d="M477.24,-287.7C488.94,-278.8 503.36,-267.82 516.01,-258.2"/>
<polygon fill="grey" stroke="grey" stroke-width="2" points="518.18,-260.94 524.02,-252.1 513.94,-255.37 518.18,-260.94"/>
</g>
<!-- 11&#45;&gt;6 -->
<g id="edge15" class="edge">
<title>11&#45;&gt;6</title>
<path fill="none" stroke="grey" stroke-width="2" d="M492.56,-290.67C495.57,-289.71 498.57,-288.81 501.5,-288 580.07,-266.37 604.68,-272.45 687.53,-252.07"/>
<polygon fill="grey" stroke="grey" stroke-width="2" points="688.53,-255.43 697.37,-249.59 686.82,-248.64 688.53,-255.43"/>
</g>
<!-- 11&#45;&gt;7 -->
<g id="edge20" class="edge">
<title>11&#45;&gt;7</title>
<path fill="none" stroke="grey" stroke-width="2" d="M492.73,-291.03C519.73,-281.14 556.99,-267.45 598.23,-252.09"/>
<polygon fill="grey" stroke="grey" stroke-width="2" points="599.5,-255.35 607.65,-248.58 597.06,-248.79 599.5,-255.35"/>
</g>
<!-- 12 -->
<g id="node13" class="node">
<title>12</title>
<path fill="none" stroke="#56b9d8" stroke-width="2" stroke-dasharray="5,2" d="M1152.5,-468C1152.5,-468 1114.5,-468 1114.5,-468 1108.5,-468 1102.5,-462 1102.5,-456 1102.5,-456 1102.5,-444 1102.5,-444 1102.5,-438 1108.5,-432 1114.5,-432 1114.5,-432 1152.5,-432 1152.5,-432 1158.5,-432 1164.5,-438 1164.5,-444 1164.5,-444 1164.5,-456 1164.5,-456 1164.5,-462 1158.5,-468 1152.5,-468"/>
<text text-anchor="middle" x="1133.5" y="-447.5" font-family="sans" font-size="10.00">parse_gtf</text>
</g>
<!-- 12&#45;&gt;6 -->
<g id="edge16" class="edge">
<title>12&#45;&gt;6</title>
<path fill="none" stroke="grey" stroke-width="2" d="M1164.79,-444.31C1220.23,-434.63 1326.71,-409.14 1291.5,-360 1233.74,-279.38 923.06,-248.08 795.85,-238.53"/>
<polygon fill="grey" stroke="grey" stroke-width="2" points="795.8,-235.02 785.57,-237.77 795.29,-242 795.8,-235.02"/>
</g>
<!-- 23 -->
<g id="node24" class="node">
<title>23</title>
<path fill="none" stroke="#80d856" stroke-width="2" stroke-dasharray="5,2" d="M926.5,-396C926.5,-396 854.5,-396 854.5,-396 848.5,-396 842.5,-390 842.5,-384 842.5,-384 842.5,-372 842.5,-372 842.5,-366 848.5,-360 854.5,-360 854.5,-360 926.5,-360 926.5,-360 932.5,-360 938.5,-366 938.5,-372 938.5,-372 938.5,-384 938.5,-384 938.5,-390 932.5,-396 926.5,-396"/>
<text text-anchor="middle" x="890.5" y="-381" font-family="sans" font-size="10.00">flatten_isoforms</text>
<text text-anchor="middle" x="890.5" y="-370" font-family="sans" font-size="10.00">chrom_gtf: chrIII</text>
</g>
<!-- 12&#45;&gt;23 -->
<g id="edge47" class="edge">
<title>12&#45;&gt;23</title>
<path fill="none" stroke="grey" stroke-width="2" d="M1102.2,-440.21C1067.09,-430.32 1008.19,-413.64 948.31,-396.22"/>
<polygon fill="grey" stroke="grey" stroke-width="2" points="949.27,-392.85 938.69,-393.42 947.31,-399.58 949.27,-392.85"/>
</g>
<!-- 24 -->
<g id="node25" class="node">
<title>24</title>
<path fill="none" stroke="#80d856" stroke-width="2" stroke-dasharray="5,2" d="M1040.5,-396C1040.5,-396 968.5,-396 968.5,-396 962.5,-396 956.5,-390 956.5,-384 956.5,-384 956.5,-372 956.5,-372 956.5,-366 962.5,-360 968.5,-360 968.5,-360 1040.5,-360 1040.5,-360 1046.5,-360 1052.5,-366 1052.5,-372 1052.5,-372 1052.5,-384 1052.5,-384 1052.5,-390 1046.5,-396 1040.5,-396"/>
<text text-anchor="middle" x="1004.5" y="-381" font-family="sans" font-size="10.00">flatten_isoforms</text>
<text text-anchor="middle" x="1004.5" y="-370" font-family="sans" font-size="10.00">chrom_gtf: chrII</text>
</g>
<!-- 12&#45;&gt;24 -->
<g id="edge48" class="edge">
<title>12&#45;&gt;24</title>
<path fill="none" stroke="grey" stroke-width="2" d="M1102.27,-432.05C1084.97,-422.67 1063.27,-410.89 1044.71,-400.82"/>
<polygon fill="grey" stroke="grey" stroke-width="2" points="1046.35,-397.72 1035.89,-396.03 1043.01,-403.88 1046.35,-397.72"/>
</g>
<!-- 25 -->
<g id="node26" class="node">
<title>25</title>
<path fill="none" stroke="#80d856" stroke-width="2" stroke-dasharray="5,2" d="M1156,-396C1156,-396 1083,-396 1083,-396 1077,-396 1071,-390 1071,-384 1071,-384 1071,-372 1071,-372 1071,-366 1077,-360 1083,-360 1083,-360 1156,-360 1156,-360 1162,-360 1168,-366 1168,-372 1168,-372 1168,-384 1168,-384 1168,-390 1162,-396 1156,-396"/>
<text text-anchor="middle" x="1119.5" y="-381" font-family="sans" font-size="10.00">flatten_isoforms</text>
<text text-anchor="middle" x="1119.5" y="-370" font-family="sans" font-size="10.00">chrom_gtf: chrIV</text>
</g>
<!-- 12&#45;&gt;25 -->
<g id="edge49" class="edge">
<title>12&#45;&gt;25</title>
<path fill="none" stroke="grey" stroke-width="2" d="M1130.04,-431.7C1128.5,-423.98 1126.64,-414.71 1124.92,-406.11"/>
<polygon fill="grey" stroke="grey" stroke-width="2" points="1128.31,-405.22 1122.92,-396.1 1121.45,-406.6 1128.31,-405.22"/>
</g>
<!-- 26 -->
<g id="node27" class="node">
<title>26</title>
<path fill="none" stroke="#80d856" stroke-width="2" stroke-dasharray="5,2" d="M1270.5,-396C1270.5,-396 1198.5,-396 1198.5,-396 1192.5,-396 1186.5,-390 1186.5,-384 1186.5,-384 1186.5,-372 1186.5,-372 1186.5,-366 1192.5,-360 1198.5,-360 1198.5,-360 1270.5,-360 1270.5,-360 1276.5,-360 1282.5,-366 1282.5,-372 1282.5,-372 1282.5,-384 1282.5,-384 1282.5,-390 1276.5,-396 1270.5,-396"/>
<text text-anchor="middle" x="1234.5" y="-381" font-family="sans" font-size="10.00">flatten_isoforms</text>
<text text-anchor="middle" x="1234.5" y="-370" font-family="sans" font-size="10.00">chrom_gtf: chrI</text>
</g>
<!-- 12&#45;&gt;26 -->
<g id="edge50" class="edge">
<title>12&#45;&gt;26</title>
<path fill="none" stroke="grey" stroke-width="2" d="M1158.21,-431.88C1171.17,-422.89 1187.23,-411.76 1201.27,-402.03"/>
<polygon fill="grey" stroke="grey" stroke-width="2" points="1203.47,-404.76 1209.7,-396.19 1199.48,-399.01 1203.47,-404.76"/>
</g>
<!-- 13 -->
<g id="node14" class="node">
<title>13</title>
<path fill="none" stroke="#56d87b" stroke-width="2" stroke-dasharray="5,2" d="M1058.5,-324C1058.5,-324 950.5,-324 950.5,-324 944.5,-324 938.5,-318 938.5,-312 938.5,-312 938.5,-300 938.5,-300 938.5,-294 944.5,-288 950.5,-288 950.5,-288 1058.5,-288 1058.5,-288 1064.5,-288 1070.5,-294 1070.5,-300 1070.5,-300 1070.5,-312 1070.5,-312 1070.5,-318 1064.5,-324 1058.5,-324"/>
<text text-anchor="middle" x="1004.5" y="-303.5" font-family="sans" font-size="10.00">merge_flat_annotations</text>
</g>
<!-- 13&#45;&gt;7 -->
<g id="edge21" class="edge">
<title>13&#45;&gt;7</title>
<path fill="none" stroke="grey" stroke-width="2" d="M938.33,-297.72C876.04,-290 780.18,-275.91 688.83,-251.79"/>
<polygon fill="grey" stroke="grey" stroke-width="2" points="689.72,-248.4 679.15,-249.19 687.9,-255.16 689.72,-248.4"/>
</g>
<!-- 14 -->
<g id="node15" class="node">
<title>14</title>
<path fill="none" stroke="#56d86b" stroke-width="2" stroke-dasharray="5,2" d="M508,-468C508,-468 443,-468 443,-468 437,-468 431,-462 431,-456 431,-456 431,-444 431,-444 431,-438 437,-432 443,-432 443,-432 508,-432 508,-432 514,-432 520,-438 520,-444 520,-444 520,-456 520,-456 520,-462 514,-468 508,-468"/>
<text text-anchor="middle" x="475.5" y="-447.5" font-family="sans" font-size="10.00">filter_n_probes</text>
</g>
<!-- 14&#45;&gt;8 -->
<g id="edge22" class="edge">
<title>14&#45;&gt;8</title>
<path fill="none" stroke="grey" stroke-width="2" d="M476.24,-431.92C477.68,-413.21 481.94,-382.85 494.5,-360 500.42,-349.23 509.23,-339.25 518.02,-330.92"/>
<polygon fill="grey" stroke="grey" stroke-width="2" points="520.57,-333.34 525.67,-324.05 515.9,-328.13 520.57,-333.34"/>
</g>
<!-- 15 -->
<g id="node16" class="node">
<title>15</title>
<path fill="none" stroke="#a7d856" stroke-width="2" stroke-dasharray="5,2" d="M561,-396C561,-396 516,-396 516,-396 510,-396 504,-390 504,-384 504,-384 504,-372 504,-372 504,-366 510,-360 516,-360 516,-360 561,-360 561,-360 567,-360 573,-366 573,-372 573,-372 573,-384 573,-384 573,-390 567,-396 561,-396"/>
<text text-anchor="middle" x="538.5" y="-375.5" font-family="sans" font-size="10.00">max_kmer</text>
</g>
<!-- 14&#45;&gt;15 -->
<g id="edge36" class="edge">
<title>14&#45;&gt;15</title>
<path fill="none" stroke="grey" stroke-width="2" d="M491.07,-431.7C498.7,-423.22 508.02,-412.86 516.38,-403.58"/>
<polygon fill="grey" stroke="grey" stroke-width="2" points="519.02,-405.88 523.11,-396.1 513.81,-401.2 519.02,-405.88"/>
</g>
<!-- 15&#45;&gt;8 -->
<g id="edge23" class="edge">
<title>15&#45;&gt;8</title>
<path fill="none" stroke="grey" stroke-width="2" d="M540.97,-359.7C542.07,-351.98 543.4,-342.71 544.63,-334.11"/>
<polygon fill="grey" stroke="grey" stroke-width="2" points="548.11,-334.5 546.06,-324.1 541.18,-333.51 548.11,-334.5"/>
</g>
<!-- 16 -->
<g id="node17" class="node">
<title>16</title>
<path fill="none" stroke="#56d86b" stroke-width="2" stroke-dasharray="5,2" d="M719,-468C719,-468 654,-468 654,-468 648,-468 642,-462 642,-456 642,-456 642,-444 642,-444 642,-438 648,-432 654,-432 654,-432 719,-432 719,-432 725,-432 731,-438 731,-444 731,-444 731,-456 731,-456 731,-462 725,-468 719,-468"/>
<text text-anchor="middle" x="686.5" y="-447.5" font-family="sans" font-size="10.00">filter_n_probes</text>
</g>
<!-- 16&#45;&gt;9 -->
<g id="edge24" class="edge">
<title>16&#45;&gt;9</title>
<path fill="none" stroke="grey" stroke-width="2" d="M684.62,-431.93C682.29,-413.75 677.62,-384.32 669.5,-360 666.48,-350.96 662.22,-341.49 658.03,-333.1"/>
<polygon fill="grey" stroke="grey" stroke-width="2" points="661.1,-331.43 653.38,-324.17 654.89,-334.66 661.1,-331.43"/>
</g>
<!-- 17 -->
<g id="node18" class="node">
<title>17</title>
<path fill="none" stroke="#a7d856" stroke-width="2" stroke-dasharray="5,2" d="M648,-396C648,-396 603,-396 603,-396 597,-396 591,-390 591,-384 591,-384 591,-372 591,-372 591,-366 597,-360 603,-360 603,-360 648,-360 648,-360 654,-360 660,-366 660,-372 660,-372 660,-384 660,-384 660,-390 654,-396 648,-396"/>
<text text-anchor="middle" x="625.5" y="-375.5" font-family="sans" font-size="10.00">max_kmer</text>
</g>
<!-- 16&#45;&gt;17 -->
<g id="edge39" class="edge">
<title>16&#45;&gt;17</title>
<path fill="none" stroke="grey" stroke-width="2" d="M671.42,-431.7C664.11,-423.3 655.19,-413.07 647.16,-403.86"/>
<polygon fill="grey" stroke="grey" stroke-width="2" points="649.61,-401.34 640.41,-396.1 644.34,-405.94 649.61,-401.34"/>
</g>
<!-- 17&#45;&gt;9 -->
<g id="edge25" class="edge">
<title>17&#45;&gt;9</title>
<path fill="none" stroke="grey" stroke-width="2" d="M629.95,-359.7C631.95,-351.9 634.37,-342.51 636.6,-333.83"/>
<polygon fill="grey" stroke="grey" stroke-width="2" points="640,-334.66 639.1,-324.1 633.22,-332.92 640,-334.66"/>
</g>
<!-- 18 -->
<g id="node19" class="node">
<title>18</title>
<path fill="none" stroke="#56d86b" stroke-width="2" stroke-dasharray="5,2" d="M847,-468C847,-468 782,-468 782,-468 776,-468 770,-462 770,-456 770,-456 770,-444 770,-444 770,-438 776,-432 782,-432 782,-432 847,-432 847,-432 853,-432 859,-438 859,-444 859,-444 859,-456 859,-456 859,-462 853,-468 847,-468"/>
<text text-anchor="middle" x="814.5" y="-447.5" font-family="sans" font-size="10.00">filter_n_probes</text>
</g>
<!-- 18&#45;&gt;10 -->
<g id="edge26" class="edge">
<title>18&#45;&gt;10</title>
<path fill="none" stroke="grey" stroke-width="2" d="M813.76,-431.92C812.32,-413.21 808.06,-382.85 795.5,-360 789.58,-349.23 780.77,-339.25 771.98,-330.92"/>
<polygon fill="grey" stroke="grey" stroke-width="2" points="774.1,-328.13 764.33,-324.05 769.43,-333.34 774.1,-328.13"/>
</g>
<!-- 19 -->
<g id="node20" class="node">
<title>19</title>
<path fill="none" stroke="#a7d856" stroke-width="2" stroke-dasharray="5,2" d="M774,-396C774,-396 729,-396 729,-396 723,-396 717,-390 717,-384 717,-384 717,-372 717,-372 717,-366 723,-360 729,-360 729,-360 774,-360 774,-360 780,-360 786,-366 786,-372 786,-372 786,-384 786,-384 786,-390 780,-396 774,-396"/>
<text text-anchor="middle" x="751.5" y="-375.5" font-family="sans" font-size="10.00">max_kmer</text>
</g>
<!-- 18&#45;&gt;19 -->
<g id="edge42" class="edge">
<title>18&#45;&gt;19</title>
<path fill="none" stroke="grey" stroke-width="2" d="M798.93,-431.7C791.3,-423.22 781.98,-412.86 773.62,-403.58"/>
<polygon fill="grey" stroke="grey" stroke-width="2" points="776.19,-401.2 766.89,-396.1 770.98,-405.88 776.19,-401.2"/>
</g>
<!-- 19&#45;&gt;10 -->
<g id="edge27" class="edge">
<title>19&#45;&gt;10</title>
<path fill="none" stroke="grey" stroke-width="2" d="M749.03,-359.7C747.93,-351.98 746.6,-342.71 745.37,-334.11"/>
<polygon fill="grey" stroke="grey" stroke-width="2" points="748.82,-333.51 743.94,-324.1 741.89,-334.5 748.82,-333.51"/>
</g>
<!-- 20 -->
<g id="node21" class="node">
<title>20</title>
<path fill="none" stroke="#56d86b" stroke-width="2" stroke-dasharray="5,2" d="M382,-468C382,-468 317,-468 317,-468 311,-468 305,-462 305,-456 305,-456 305,-444 305,-444 305,-438 311,-432 317,-432 317,-432 382,-432 382,-432 388,-432 394,-438 394,-444 394,-444 394,-456 394,-456 394,-462 388,-468 382,-468"/>
<text text-anchor="middle" x="349.5" y="-447.5" font-family="sans" font-size="10.00">filter_n_probes</text>
</g>
<!-- 20&#45;&gt;11 -->
<g id="edge28" class="edge">
<title>20&#45;&gt;11</title>
<path fill="none" stroke="grey" stroke-width="2" d="M349.29,-431.68C349.88,-412.49 353.38,-381.43 368.5,-360 378.3,-346.11 393,-335.15 407.48,-326.88"/>
<polygon fill="grey" stroke="grey" stroke-width="2" points="409.28,-329.89 416.43,-322.08 405.97,-323.72 409.28,-329.89"/>
</g>
<!-- 21 -->
<g id="node22" class="node">
<title>21</title>
<path fill="none" stroke="#a7d856" stroke-width="2" stroke-dasharray="5,2" d="M435,-396C435,-396 390,-396 390,-396 384,-396 378,-390 378,-384 378,-384 378,-372 378,-372 378,-366 384,-360 390,-360 390,-360 435,-360 435,-360 441,-360 447,-366 447,-372 447,-372 447,-384 447,-384 447,-390 441,-396 435,-396"/>
<text text-anchor="middle" x="412.5" y="-375.5" font-family="sans" font-size="10.00">max_kmer</text>
</g>
<!-- 20&#45;&gt;21 -->
<g id="edge45" class="edge">
<title>20&#45;&gt;21</title>
<path fill="none" stroke="grey" stroke-width="2" d="M365.07,-431.7C372.7,-423.22 382.02,-412.86 390.38,-403.58"/>
<polygon fill="grey" stroke="grey" stroke-width="2" points="393.02,-405.88 397.11,-396.1 387.81,-401.2 393.02,-405.88"/>
</g>
<!-- 21&#45;&gt;11 -->
<g id="edge29" class="edge">
<title>21&#45;&gt;11</title>
<path fill="none" stroke="grey" stroke-width="2" d="M422.88,-359.7C427.76,-351.56 433.69,-341.69 439.08,-332.7"/>
<polygon fill="grey" stroke="grey" stroke-width="2" points="442.09,-334.48 444.24,-324.1 436.09,-330.88 442.09,-334.48"/>
</g>
<!-- 22 -->
<g id="node23" class="node">
<title>22</title>
<path fill="none" stroke="#d85656" stroke-width="2" stroke-dasharray="5,2" d="M667,-972C667,-972 602,-972 602,-972 596,-972 590,-966 590,-960 590,-960 590,-948 590,-948 590,-942 596,-936 602,-936 602,-936 667,-936 667,-936 673,-936 679,-942 679,-948 679,-948 679,-960 679,-960 679,-966 673,-972 667,-972"/>
<text text-anchor="middle" x="634.5" y="-951.5" font-family="sans" font-size="10.00">parse_genome</text>
</g>
<!-- 22&#45;&gt;12 -->
<g id="edge30" class="edge">
<title>22&#45;&gt;12</title>
<path fill="none" stroke="grey" stroke-width="2" d="M679.43,-950.53C806.88,-942.31 1161.5,-910.49 1161.5,-811 1161.5,-811 1161.5,-811 1161.5,-593 1161.5,-552.27 1150.27,-506.19 1142.04,-477.86"/>
<polygon fill="grey" stroke="grey" stroke-width="2" points="1145.39,-476.85 1139.17,-468.27 1138.68,-478.86 1145.39,-476.85"/>
</g>
<!-- 28 -->
<g id="node29" class="node">
<title>28</title>
<path fill="none" stroke="#56d0d8" stroke-width="2" stroke-dasharray="5,2" d="M609.5,-468C609.5,-468 549.5,-468 549.5,-468 543.5,-468 537.5,-462 537.5,-456 537.5,-456 537.5,-444 537.5,-444 537.5,-438 543.5,-432 549.5,-432 549.5,-432 609.5,-432 609.5,-432 615.5,-432 621.5,-438 621.5,-444 621.5,-444 621.5,-456 621.5,-456 621.5,-462 615.5,-468 609.5,-468"/>
<text text-anchor="middle" x="579.5" y="-447.5" font-family="sans" font-size="10.00">build_jellyfish</text>
</g>
<!-- 22&#45;&gt;28 -->
<g id="edge52" class="edge">
<title>22&#45;&gt;28</title>
<path fill="none" stroke="grey" stroke-width="2" d="M614.55,-935.69C604.7,-926.11 593.47,-913.44 586.5,-900 567.83,-864.01 566.5,-851.54 566.5,-811 566.5,-811 566.5,-811 566.5,-593 566.5,-552.83 571.72,-506.53 575.55,-478.01"/>
<polygon fill="grey" stroke="grey" stroke-width="2" points="579.03,-478.39 576.93,-468 572.1,-477.43 579.03,-478.39"/>
</g>
<!-- 52 -->
<g id="node53" class="node">
<title>52</title>
<path fill="none" stroke="#d8cb56" stroke-width="2" stroke-dasharray="5,2" d="M523,-900C523,-900 460,-900 460,-900 454,-900 448,-894 448,-888 448,-888 448,-876 448,-876 448,-870 454,-864 460,-864 460,-864 523,-864 523,-864 529,-864 535,-870 535,-876 535,-876 535,-888 535,-888 535,-894 529,-900 523,-900"/>
<text text-anchor="middle" x="491.5" y="-885" font-family="sans" font-size="10.00">design_probes</text>
<text text-anchor="middle" x="491.5" y="-874" font-family="sans" font-size="10.00">chrom: chrI</text>
</g>
<!-- 22&#45;&gt;52 -->
<g id="edge84" class="edge">
<title>22&#45;&gt;52</title>
<path fill="none" stroke="grey" stroke-width="2" d="M599.52,-935.88C580.3,-926.47 556.27,-914.71 535.76,-904.67"/>
<polygon fill="grey" stroke="grey" stroke-width="2" points="537.14,-901.44 526.62,-900.19 534.06,-907.73 537.14,-901.44"/>
</g>
<!-- 53 -->
<g id="node54" class="node">
<title>53</title>
<path fill="none" stroke="#d87d56" stroke-width="2" stroke-dasharray="5,2" d="M662,-900C662,-900 607,-900 607,-900 601,-900 595,-894 595,-888 595,-888 595,-876 595,-876 595,-870 601,-864 607,-864 607,-864 662,-864 662,-864 668,-864 674,-870 674,-876 674,-876 674,-888 674,-888 674,-894 668,-900 662,-900"/>
<text text-anchor="middle" x="634.5" y="-879.5" font-family="sans" font-size="10.00">build_bowtie</text>
</g>
<!-- 22&#45;&gt;53 -->
<g id="edge85" class="edge">
<title>22&#45;&gt;53</title>
<path fill="none" stroke="grey" stroke-width="2" d="M634.5,-935.7C634.5,-927.98 634.5,-918.71 634.5,-910.11"/>
<polygon fill="grey" stroke="grey" stroke-width="2" points="638,-910.1 634.5,-900.1 631,-910.1 638,-910.1"/>
</g>
<!-- 54 -->
<g id="node55" class="node">
<title>54</title>
<path fill="none" stroke="#d8cb56" stroke-width="2" stroke-dasharray="5,2" d="M767,-900C767,-900 704,-900 704,-900 698,-900 692,-894 692,-888 692,-888 692,-876 692,-876 692,-870 698,-864 704,-864 704,-864 767,-864 767,-864 773,-864 779,-870 779,-876 779,-876 779,-888 779,-888 779,-894 773,-900 767,-900"/>
<text text-anchor="middle" x="735.5" y="-885" font-family="sans" font-size="10.00">design_probes</text>
<text text-anchor="middle" x="735.5" y="-874" font-family="sans" font-size="10.00">chrom: chrII</text>
</g>
<!-- 22&#45;&gt;54 -->
<g id="edge86" class="edge">
<title>22&#45;&gt;54</title>
<path fill="none" stroke="grey" stroke-width="2" d="M659.21,-935.88C672.17,-926.89 688.23,-915.76 702.27,-906.03"/>
<polygon fill="grey" stroke="grey" stroke-width="2" points="704.47,-908.76 710.7,-900.19 700.48,-903.01 704.47,-908.76"/>
</g>
<!-- 55 -->
<g id="node56" class="node">
<title>55</title>
<path fill="none" stroke="#d8cb56" stroke-width="2" stroke-dasharray="5,2" d="M898,-900C898,-900 835,-900 835,-900 829,-900 823,-894 823,-888 823,-888 823,-876 823,-876 823,-870 829,-864 835,-864 835,-864 898,-864 898,-864 904,-864 910,-870 910,-876 910,-876 910,-888 910,-888 910,-894 904,-900 898,-900"/>
<text text-anchor="middle" x="866.5" y="-885" font-family="sans" font-size="10.00">design_probes</text>
<text text-anchor="middle" x="866.5" y="-874" font-family="sans" font-size="10.00">chrom: chrIII</text>
</g>
<!-- 22&#45;&gt;55 -->
<g id="edge87" class="edge">
<title>22&#45;&gt;55</title>
<path fill="none" stroke="grey" stroke-width="2" d="M679.23,-939.5C717.43,-927.98 772.46,-911.38 812.98,-899.15"/>
<polygon fill="grey" stroke="grey" stroke-width="2" points="814.13,-902.46 822.69,-896.22 812.11,-895.76 814.13,-902.46"/>
</g>
<!-- 56 -->
<g id="node57" class="node">
<title>56</title>
<path fill="none" stroke="#d8cb56" stroke-width="2" stroke-dasharray="5,2" d="M329,-900C329,-900 266,-900 266,-900 260,-900 254,-894 254,-888 254,-888 254,-876 254,-876 254,-870 260,-864 266,-864 266,-864 329,-864 329,-864 335,-864 341,-870 341,-876 341,-876 341,-888 341,-888 341,-894 335,-900 329,-900"/>
<text text-anchor="middle" x="297.5" y="-885" font-family="sans" font-size="10.00">design_probes</text>
<text text-anchor="middle" x="297.5" y="-874" font-family="sans" font-size="10.00">chrom: chrIV</text>
</g>
<!-- 22&#45;&gt;56 -->
<g id="edge88" class="edge">
<title>22&#45;&gt;56</title>
<path fill="none" stroke="grey" stroke-width="2" d="M589.75,-943.7C528.01,-930.88 416.89,-907.8 350.89,-894.09"/>
<polygon fill="grey" stroke="grey" stroke-width="2" points="351.6,-890.66 341.1,-892.06 350.18,-897.52 351.6,-890.66"/>
</g>
<!-- 23&#45;&gt;13 -->
<g id="edge31" class="edge">
<title>23&#45;&gt;13</title>
<path fill="none" stroke="grey" stroke-width="2" d="M918.39,-359.88C933.29,-350.72 951.83,-339.34 967.88,-329.48"/>
<polygon fill="grey" stroke="grey" stroke-width="2" points="969.81,-332.41 976.51,-324.19 966.15,-326.44 969.81,-332.41"/>
</g>
<!-- 24&#45;&gt;13 -->
<g id="edge32" class="edge">
<title>24&#45;&gt;13</title>
<path fill="none" stroke="grey" stroke-width="2" d="M1004.5,-359.7C1004.5,-351.98 1004.5,-342.71 1004.5,-334.11"/>
<polygon fill="grey" stroke="grey" stroke-width="2" points="1008,-334.1 1004.5,-324.1 1001,-334.1 1008,-334.1"/>
</g>
<!-- 25&#45;&gt;13 -->
<g id="edge33" class="edge">
<title>25&#45;&gt;13</title>
<path fill="none" stroke="grey" stroke-width="2" d="M1091.37,-359.88C1076.33,-350.72 1057.63,-339.34 1041.44,-329.48"/>
<polygon fill="grey" stroke="grey" stroke-width="2" points="1043.1,-326.4 1032.74,-324.19 1039.46,-332.38 1043.1,-326.4"/>
</g>
<!-- 26&#45;&gt;13 -->
<g id="edge34" class="edge">
<title>26&#45;&gt;13</title>
<path fill="none" stroke="grey" stroke-width="2" d="M1186.28,-362.33C1152.67,-352.09 1107.4,-338.32 1070.45,-327.07"/>
<polygon fill="grey" stroke="grey" stroke-width="2" points="1071.34,-323.69 1060.76,-324.12 1069.31,-330.38 1071.34,-323.69"/>
</g>
<!-- 27 -->
<g id="node28" class="node">
<title>27</title>
<path fill="none" stroke="#68d856" stroke-width="2" stroke-dasharray="5,2" d="M490.5,-540C490.5,-540 460.5,-540 460.5,-540 454.5,-540 448.5,-534 448.5,-528 448.5,-528 448.5,-516 448.5,-516 448.5,-510 454.5,-504 460.5,-504 460.5,-504 490.5,-504 490.5,-504 496.5,-504 502.5,-510 502.5,-516 502.5,-516 502.5,-528 502.5,-528 502.5,-534 496.5,-540 490.5,-540"/>
<text text-anchor="middle" x="475.5" y="-519.5" font-family="sans" font-size="10.00">score</text>
</g>
<!-- 27&#45;&gt;14 -->
<g id="edge35" class="edge">
<title>27&#45;&gt;14</title>
<path fill="none" stroke="grey" stroke-width="2" d="M475.5,-503.7C475.5,-495.98 475.5,-486.71 475.5,-478.11"/>
<polygon fill="grey" stroke="grey" stroke-width="2" points="479,-478.1 475.5,-468.1 472,-478.1 479,-478.1"/>
</g>
<!-- 28&#45;&gt;15 -->
<g id="edge37" class="edge">
<title>28&#45;&gt;15</title>
<path fill="none" stroke="grey" stroke-width="2" d="M569.37,-431.7C564.65,-423.64 558.94,-413.89 553.72,-404.98"/>
<polygon fill="grey" stroke="grey" stroke-width="2" points="556.59,-402.96 548.52,-396.1 550.55,-406.5 556.59,-402.96"/>
</g>
<!-- 28&#45;&gt;17 -->
<g id="edge40" class="edge">
<title>28&#45;&gt;17</title>
<path fill="none" stroke="grey" stroke-width="2" d="M590.87,-431.7C596.22,-423.56 602.7,-413.69 608.61,-404.7"/>
<polygon fill="grey" stroke="grey" stroke-width="2" points="611.69,-406.38 614.26,-396.1 605.84,-402.54 611.69,-406.38"/>
</g>
<!-- 28&#45;&gt;19 -->
<g id="edge43" class="edge">
<title>28&#45;&gt;19</title>
<path fill="none" stroke="grey" stroke-width="2" d="M621.58,-431.88C647.62,-421.28 681,-407.69 707.41,-396.94"/>
<polygon fill="grey" stroke="grey" stroke-width="2" points="708.86,-400.13 716.8,-393.12 706.22,-393.65 708.86,-400.13"/>
</g>
<!-- 28&#45;&gt;21 -->
<g id="edge46" class="edge">
<title>28&#45;&gt;21</title>
<path fill="none" stroke="grey" stroke-width="2" d="M538.65,-431.88C513.73,-421.43 481.89,-408.08 456.43,-397.41"/>
<polygon fill="grey" stroke="grey" stroke-width="2" points="457.59,-394.1 447.01,-393.47 454.88,-400.56 457.59,-394.1"/>
</g>
<!-- 29 -->
<g id="node30" class="node">
<title>29</title>
<path fill="none" stroke="#68d856" stroke-width="2" stroke-dasharray="5,2" d="M701.5,-540C701.5,-540 671.5,-540 671.5,-540 665.5,-540 659.5,-534 659.5,-528 659.5,-528 659.5,-516 659.5,-516 659.5,-510 665.5,-504 671.5,-504 671.5,-504 701.5,-504 701.5,-504 707.5,-504 713.5,-510 713.5,-516 713.5,-516 713.5,-528 713.5,-528 713.5,-534 707.5,-540 701.5,-540"/>
<text text-anchor="middle" x="686.5" y="-519.5" font-family="sans" font-size="10.00">score</text>
</g>
<!-- 29&#45;&gt;16 -->
<g id="edge38" class="edge">
<title>29&#45;&gt;16</title>
<path fill="none" stroke="grey" stroke-width="2" d="M686.5,-503.7C686.5,-495.98 686.5,-486.71 686.5,-478.11"/>
<polygon fill="grey" stroke="grey" stroke-width="2" points="690,-478.1 686.5,-468.1 683,-478.1 690,-478.1"/>
</g>
<!-- 30 -->
<g id="node31" class="node">
<title>30</title>
<path fill="none" stroke="#68d856" stroke-width="2" stroke-dasharray="5,2" d="M858.5,-540C858.5,-540 828.5,-540 828.5,-540 822.5,-540 816.5,-534 816.5,-528 816.5,-528 816.5,-516 816.5,-516 816.5,-510 822.5,-504 828.5,-504 828.5,-504 858.5,-504 858.5,-504 864.5,-504 870.5,-510 870.5,-516 870.5,-516 870.5,-528 870.5,-528 870.5,-534 864.5,-540 858.5,-540"/>
<text text-anchor="middle" x="843.5" y="-519.5" font-family="sans" font-size="10.00">score</text>
</g>
<!-- 30&#45;&gt;18 -->
<g id="edge41" class="edge">
<title>30&#45;&gt;18</title>
<path fill="none" stroke="grey" stroke-width="2" d="M836.33,-503.7C833.07,-495.81 829.13,-486.3 825.5,-477.55"/>
<polygon fill="grey" stroke="grey" stroke-width="2" points="828.65,-476 821.59,-468.1 822.18,-478.68 828.65,-476"/>
</g>
<!-- 31 -->
<g id="node32" class="node">
<title>31</title>
<path fill="none" stroke="#68d856" stroke-width="2" stroke-dasharray="5,2" d="M288.5,-540C288.5,-540 258.5,-540 258.5,-540 252.5,-540 246.5,-534 246.5,-528 246.5,-528 246.5,-516 246.5,-516 246.5,-510 252.5,-504 258.5,-504 258.5,-504 288.5,-504 288.5,-504 294.5,-504 300.5,-510 300.5,-516 300.5,-516 300.5,-528 300.5,-528 300.5,-534 294.5,-540 288.5,-540"/>
<text text-anchor="middle" x="273.5" y="-519.5" font-family="sans" font-size="10.00">score</text>
</g>
<!-- 31&#45;&gt;20 -->
<g id="edge44" class="edge">
<title>31&#45;&gt;20</title>
<path fill="none" stroke="grey" stroke-width="2" d="M292.29,-503.7C301.67,-495.05 313.18,-484.45 323.41,-475.03"/>
<polygon fill="grey" stroke="grey" stroke-width="2" points="325.95,-477.45 330.93,-468.1 321.2,-472.3 325.95,-477.45"/>
</g>
<!-- 32 -->
<g id="node33" class="node">
<title>32</title>
<path fill="none" stroke="#567bd8" stroke-width="2" stroke-dasharray="5,2" d="M508,-612C508,-612 443,-612 443,-612 437,-612 431,-606 431,-600 431,-600 431,-588 431,-588 431,-582 437,-576 443,-576 443,-576 508,-576 508,-576 514,-576 520,-582 520,-588 520,-588 520,-600 520,-600 520,-606 514,-612 508,-612"/>
<text text-anchor="middle" x="475.5" y="-591.5" font-family="sans" font-size="10.00">predict_duplex</text>
</g>
<!-- 32&#45;&gt;27 -->
<g id="edge51" class="edge">
<title>32&#45;&gt;27</title>
<path fill="none" stroke="grey" stroke-width="2" d="M475.5,-575.7C475.5,-567.98 475.5,-558.71 475.5,-550.11"/>
<polygon fill="grey" stroke="grey" stroke-width="2" points="479,-550.1 475.5,-540.1 472,-550.1 479,-550.1"/>
</g>
<!-- 33 -->
<g id="node34" class="node">
<title>33</title>
<path fill="none" stroke="#567bd8" stroke-width="2" stroke-dasharray="5,2" d="M719,-612C719,-612 654,-612 654,-612 648,-612 642,-606 642,-600 642,-600 642,-588 642,-588 642,-582 648,-576 654,-576 654,-576 719,-576 719,-576 725,-576 731,-582 731,-588 731,-588 731,-600 731,-600 731,-606 725,-612 719,-612"/>
<text text-anchor="middle" x="686.5" y="-591.5" font-family="sans" font-size="10.00">predict_duplex</text>
</g>
<!-- 33&#45;&gt;29 -->
<g id="edge53" class="edge">
<title>33&#45;&gt;29</title>
<path fill="none" stroke="grey" stroke-width="2" d="M686.5,-575.7C686.5,-567.98 686.5,-558.71 686.5,-550.11"/>
<polygon fill="grey" stroke="grey" stroke-width="2" points="690,-550.1 686.5,-540.1 683,-550.1 690,-550.1"/>
</g>
<!-- 34 -->
<g id="node35" class="node">
<title>34</title>
<path fill="none" stroke="#567bd8" stroke-width="2" stroke-dasharray="5,2" d="M919,-612C919,-612 854,-612 854,-612 848,-612 842,-606 842,-600 842,-600 842,-588 842,-588 842,-582 848,-576 854,-576 854,-576 919,-576 919,-576 925,-576 931,-582 931,-588 931,-588 931,-600 931,-600 931,-606 925,-612 919,-612"/>
<text text-anchor="middle" x="886.5" y="-591.5" font-family="sans" font-size="10.00">predict_duplex</text>
</g>
<!-- 34&#45;&gt;30 -->
<g id="edge54" class="edge">
<title>34&#45;&gt;30</title>
<path fill="none" stroke="grey" stroke-width="2" d="M875.87,-575.7C870.87,-567.56 864.81,-557.69 859.29,-548.7"/>
<polygon fill="grey" stroke="grey" stroke-width="2" points="862.22,-546.79 854.01,-540.1 856.26,-550.46 862.22,-546.79"/>
</g>
<!-- 35 -->
<g id="node36" class="node">
<title>35</title>
<path fill="none" stroke="#567bd8" stroke-width="2" stroke-dasharray="5,2" d="M268,-612C268,-612 203,-612 203,-612 197,-612 191,-606 191,-600 191,-600 191,-588 191,-588 191,-582 197,-576 203,-576 203,-576 268,-576 268,-576 274,-576 280,-582 280,-588 280,-588 280,-600 280,-600 280,-606 274,-612 268,-612"/>
<text text-anchor="middle" x="235.5" y="-591.5" font-family="sans" font-size="10.00">predict_duplex</text>
</g>
<!-- 35&#45;&gt;31 -->
<g id="edge55" class="edge">
<title>35&#45;&gt;31</title>
<path fill="none" stroke="grey" stroke-width="2" d="M244.89,-575.7C249.26,-567.64 254.56,-557.89 259.4,-548.98"/>
<polygon fill="grey" stroke="grey" stroke-width="2" points="262.52,-550.56 264.21,-540.1 256.37,-547.22 262.52,-550.56"/>
</g>
<!-- 36 -->
<g id="node37" class="node">
<title>36</title>
<path fill="none" stroke="#56d8d0" stroke-width="2" stroke-dasharray="5,2" d="M508.5,-684C508.5,-684 442.5,-684 442.5,-684 436.5,-684 430.5,-678 430.5,-672 430.5,-672 430.5,-660 430.5,-660 430.5,-654 436.5,-648 442.5,-648 442.5,-648 508.5,-648 508.5,-648 514.5,-648 520.5,-654 520.5,-660 520.5,-660 520.5,-672 520.5,-672 520.5,-678 514.5,-684 508.5,-684"/>
<text text-anchor="middle" x="475.5" y="-663.5" font-family="sans" font-size="10.00">parse_pairwise</text>
</g>
<!-- 36&#45;&gt;32 -->
<g id="edge56" class="edge">
<title>36&#45;&gt;32</title>
<path fill="none" stroke="grey" stroke-width="2" d="M475.5,-647.7C475.5,-639.98 475.5,-630.71 475.5,-622.11"/>
<polygon fill="grey" stroke="grey" stroke-width="2" points="479,-622.1 475.5,-612.1 472,-622.1 479,-622.1"/>
</g>
<!-- 37 -->
<g id="node38" class="node">
<title>37</title>
<path fill="none" stroke="#56d8d0" stroke-width="2" stroke-dasharray="5,2" d="M719.5,-684C719.5,-684 653.5,-684 653.5,-684 647.5,-684 641.5,-678 641.5,-672 641.5,-672 641.5,-660 641.5,-660 641.5,-654 647.5,-648 653.5,-648 653.5,-648 719.5,-648 719.5,-648 725.5,-648 731.5,-654 731.5,-660 731.5,-660 731.5,-672 731.5,-672 731.5,-678 725.5,-684 719.5,-684"/>
<text text-anchor="middle" x="686.5" y="-663.5" font-family="sans" font-size="10.00">parse_pairwise</text>
</g>
<!-- 37&#45;&gt;33 -->
<g id="edge57" class="edge">
<title>37&#45;&gt;33</title>
<path fill="none" stroke="grey" stroke-width="2" d="M686.5,-647.7C686.5,-639.98 686.5,-630.71 686.5,-622.11"/>
<polygon fill="grey" stroke="grey" stroke-width="2" points="690,-622.1 686.5,-612.1 683,-622.1 690,-622.1"/>
</g>
<!-- 38 -->
<g id="node39" class="node">
<title>38</title>
<path fill="none" stroke="#56d8d0" stroke-width="2" stroke-dasharray="5,2" d="M977.5,-684C977.5,-684 911.5,-684 911.5,-684 905.5,-684 899.5,-678 899.5,-672 899.5,-672 899.5,-660 899.5,-660 899.5,-654 905.5,-648 911.5,-648 911.5,-648 977.5,-648 977.5,-648 983.5,-648 989.5,-654 989.5,-660 989.5,-660 989.5,-672 989.5,-672 989.5,-678 983.5,-684 977.5,-684"/>
<text text-anchor="middle" x="944.5" y="-663.5" font-family="sans" font-size="10.00">parse_pairwise</text>
</g>
<!-- 38&#45;&gt;34 -->
<g id="edge58" class="edge">
<title>38&#45;&gt;34</title>
<path fill="none" stroke="grey" stroke-width="2" d="M930.16,-647.7C923.21,-639.3 914.73,-629.07 907.1,-619.86"/>
<polygon fill="grey" stroke="grey" stroke-width="2" points="909.75,-617.57 900.67,-612.1 904.36,-622.04 909.75,-617.57"/>
</g>
<!-- 39 -->
<g id="node40" class="node">
<title>39</title>
<path fill="none" stroke="#56d8d0" stroke-width="2" stroke-dasharray="5,2" d="M243.5,-684C243.5,-684 177.5,-684 177.5,-684 171.5,-684 165.5,-678 165.5,-672 165.5,-672 165.5,-660 165.5,-660 165.5,-654 171.5,-648 177.5,-648 177.5,-648 243.5,-648 243.5,-648 249.5,-648 255.5,-654 255.5,-660 255.5,-660 255.5,-672 255.5,-672 255.5,-678 249.5,-684 243.5,-684"/>
<text text-anchor="middle" x="210.5" y="-663.5" font-family="sans" font-size="10.00">parse_pairwise</text>
</g>
<!-- 39&#45;&gt;35 -->
<g id="edge59" class="edge">
<title>39&#45;&gt;35</title>
<path fill="none" stroke="grey" stroke-width="2" d="M216.68,-647.7C219.5,-639.81 222.89,-630.3 226.02,-621.55"/>
<polygon fill="grey" stroke="grey" stroke-width="2" points="229.32,-622.7 229.39,-612.1 222.73,-620.34 229.32,-622.7"/>
</g>
<!-- 40 -->
<g id="node41" class="node">
<title>40</title>
<path fill="none" stroke="#b6d856" stroke-width="2" stroke-dasharray="5,2" d="M526,-756C526,-756 451,-756 451,-756 445,-756 439,-750 439,-744 439,-744 439,-732 439,-732 439,-726 445,-720 451,-720 451,-720 526,-720 526,-720 532,-720 538,-726 538,-732 538,-732 538,-744 538,-744 538,-750 532,-756 526,-756"/>
<text text-anchor="middle" x="488.5" y="-735.5" font-family="sans" font-size="10.00">sam_to_pairwise</text>
</g>
<!-- 40&#45;&gt;36 -->
<g id="edge60" class="edge">
<title>40&#45;&gt;36</title>
<path fill="none" stroke="grey" stroke-width="2" d="M485.29,-719.7C483.85,-711.98 482.13,-702.71 480.54,-694.11"/>
<polygon fill="grey" stroke="grey" stroke-width="2" points="483.94,-693.3 478.68,-684.1 477.06,-694.58 483.94,-693.3"/>
</g>
<!-- 41 -->
<g id="node42" class="node">
<title>41</title>
<path fill="none" stroke="#56d8b9" stroke-width="2" stroke-dasharray="5,2" d="M409,-756C409,-756 290,-756 290,-756 284,-756 278,-750 278,-744 278,-744 278,-732 278,-732 278,-726 284,-720 290,-720 290,-720 409,-720 409,-720 415,-720 421,-726 421,-732 421,-732 421,-744 421,-744 421,-750 415,-756 409,-756"/>
<text text-anchor="middle" x="349.5" y="-735.5" font-family="sans" font-size="10.00">extract_alignment_scores</text>
</g>
<!-- 41&#45;&gt;36 -->
<g id="edge61" class="edge">
<title>41&#45;&gt;36</title>
<path fill="none" stroke="grey" stroke-width="2" d="M380.32,-719.88C396.95,-710.64 417.66,-699.13 435.52,-689.21"/>
<polygon fill="grey" stroke="grey" stroke-width="2" points="437.52,-692.11 444.56,-684.19 434.12,-685.99 437.52,-692.11"/>
</g>
<!-- 42 -->
<g id="node43" class="node">
<title>42</title>
<path fill="none" stroke="#b6d856" stroke-width="2" stroke-dasharray="5,2" d="M682,-756C682,-756 607,-756 607,-756 601,-756 595,-750 595,-744 595,-744 595,-732 595,-732 595,-726 601,-720 607,-720 607,-720 682,-720 682,-720 688,-720 694,-726 694,-732 694,-732 694,-744 694,-744 694,-750 688,-756 682,-756"/>
<text text-anchor="middle" x="644.5" y="-735.5" font-family="sans" font-size="10.00">sam_to_pairwise</text>
</g>
<!-- 42&#45;&gt;37 -->
<g id="edge62" class="edge">
<title>42&#45;&gt;37</title>
<path fill="none" stroke="grey" stroke-width="2" d="M654.88,-719.7C659.76,-711.56 665.69,-701.69 671.08,-692.7"/>
<polygon fill="grey" stroke="grey" stroke-width="2" points="674.09,-694.48 676.24,-684.1 668.09,-690.88 674.09,-694.48"/>
</g>
<!-- 43 -->
<g id="node44" class="node">
<title>43</title>
<path fill="none" stroke="#56d8b9" stroke-width="2" stroke-dasharray="5,2" d="M843,-756C843,-756 724,-756 724,-756 718,-756 712,-750 712,-744 712,-744 712,-732 712,-732 712,-726 718,-720 724,-720 724,-720 843,-720 843,-720 849,-720 855,-726 855,-732 855,-732 855,-744 855,-744 855,-750 849,-756 843,-756"/>
<text text-anchor="middle" x="783.5" y="-735.5" font-family="sans" font-size="10.00">extract_alignment_scores</text>
</g>
<!-- 43&#45;&gt;37 -->
<g id="edge63" class="edge">
<title>43&#45;&gt;37</title>
<path fill="none" stroke="grey" stroke-width="2" d="M759.52,-719.7C747.19,-710.8 731.98,-699.82 718.65,-690.2"/>
<polygon fill="grey" stroke="grey" stroke-width="2" points="720.36,-687.12 710.2,-684.1 716.26,-692.79 720.36,-687.12"/>
</g>
<!-- 44 -->
<g id="node45" class="node">
<title>44</title>
<path fill="none" stroke="#b6d856" stroke-width="2" stroke-dasharray="5,2" d="M1121,-756C1121,-756 1046,-756 1046,-756 1040,-756 1034,-750 1034,-744 1034,-744 1034,-732 1034,-732 1034,-726 1040,-720 1046,-720 1046,-720 1121,-720 1121,-720 1127,-720 1133,-726 1133,-732 1133,-732 1133,-744 1133,-744 1133,-750 1127,-756 1121,-756"/>
<text text-anchor="middle" x="1083.5" y="-735.5" font-family="sans" font-size="10.00">sam_to_pairwise</text>
</g>
<!-- 44&#45;&gt;38 -->
<g id="edge64" class="edge">
<title>44&#45;&gt;38</title>
<path fill="none" stroke="grey" stroke-width="2" d="M1049.5,-719.88C1030.9,-710.51 1007.67,-698.81 987.79,-688.8"/>
<polygon fill="grey" stroke="grey" stroke-width="2" points="989.14,-685.56 978.63,-684.19 985.99,-691.81 989.14,-685.56"/>
</g>
<!-- 45 -->
<g id="node46" class="node">
<title>45</title>
<path fill="none" stroke="#56d8b9" stroke-width="2" stroke-dasharray="5,2" d="M1004,-756C1004,-756 885,-756 885,-756 879,-756 873,-750 873,-744 873,-744 873,-732 873,-732 873,-726 879,-720 885,-720 885,-720 1004,-720 1004,-720 1010,-720 1016,-726 1016,-732 1016,-732 1016,-744 1016,-744 1016,-750 1010,-756 1004,-756"/>
<text text-anchor="middle" x="944.5" y="-735.5" font-family="sans" font-size="10.00">extract_alignment_scores</text>
</g>
<!-- 45&#45;&gt;38 -->
<g id="edge65" class="edge">
<title>45&#45;&gt;38</title>
<path fill="none" stroke="grey" stroke-width="2" d="M944.5,-719.7C944.5,-711.98 944.5,-702.71 944.5,-694.11"/>
<polygon fill="grey" stroke="grey" stroke-width="2" points="948,-694.1 944.5,-684.1 941,-694.1 948,-694.1"/>
</g>
<!-- 46 -->
<g id="node47" class="node">
<title>46</title>
<path fill="none" stroke="#b6d856" stroke-width="2" stroke-dasharray="5,2" d="M248,-756C248,-756 173,-756 173,-756 167,-756 161,-750 161,-744 161,-744 161,-732 161,-732 161,-726 167,-720 173,-720 173,-720 248,-720 248,-720 254,-720 260,-726 260,-732 260,-732 260,-744 260,-744 260,-750 254,-756 248,-756"/>
<text text-anchor="middle" x="210.5" y="-735.5" font-family="sans" font-size="10.00">sam_to_pairwise</text>
</g>
<!-- 46&#45;&gt;39 -->
<g id="edge66" class="edge">
<title>46&#45;&gt;39</title>
<path fill="none" stroke="grey" stroke-width="2" d="M210.5,-719.7C210.5,-711.98 210.5,-702.71 210.5,-694.11"/>
<polygon fill="grey" stroke="grey" stroke-width="2" points="214,-694.1 210.5,-684.1 207,-694.1 214,-694.1"/>
</g>
<!-- 47 -->
<g id="node48" class="node">
<title>47</title>
<path fill="none" stroke="#56d8b9" stroke-width="2" stroke-dasharray="5,2" d="M131,-756C131,-756 12,-756 12,-756 6,-756 0,-750 0,-744 0,-744 0,-732 0,-732 0,-726 6,-720 12,-720 12,-720 131,-720 131,-720 137,-720 143,-726 143,-732 143,-732 143,-744 143,-744 143,-750 137,-756 131,-756"/>
<text text-anchor="middle" x="71.5" y="-735.5" font-family="sans" font-size="10.00">extract_alignment_scores</text>
</g>
<!-- 47&#45;&gt;39 -->
<g id="edge67" class="edge">
<title>47&#45;&gt;39</title>
<path fill="none" stroke="grey" stroke-width="2" d="M105.5,-719.88C124.1,-710.51 147.33,-698.81 167.21,-688.8"/>
<polygon fill="grey" stroke="grey" stroke-width="2" points="169.01,-691.81 176.37,-684.19 165.86,-685.56 169.01,-691.81"/>
</g>
<!-- 48 -->
<g id="node49" class="node">
<title>48</title>
<path fill="none" stroke="#56d892" stroke-width="2" stroke-dasharray="5,2" d="M517,-828C517,-828 462,-828 462,-828 456,-828 450,-822 450,-816 450,-816 450,-804 450,-804 450,-798 456,-792 462,-792 462,-792 517,-792 517,-792 523,-792 529,-798 529,-804 529,-804 529,-816 529,-816 529,-822 523,-828 517,-828"/>
<text text-anchor="middle" x="489.5" y="-807.5" font-family="sans" font-size="10.00">align_probes</text>
</g>
<!-- 48&#45;&gt;40 -->
<g id="edge68" class="edge">
<title>48&#45;&gt;40</title>
<path fill="none" stroke="grey" stroke-width="2" d="M489.25,-791.7C489.14,-783.98 489.01,-774.71 488.89,-766.11"/>
<polygon fill="grey" stroke="grey" stroke-width="2" points="492.39,-766.05 488.74,-756.1 485.39,-766.15 492.39,-766.05"/>
</g>
<!-- 48&#45;&gt;41 -->
<g id="edge69" class="edge">
<title>48&#45;&gt;41</title>
<path fill="none" stroke="grey" stroke-width="2" d="M455.25,-791.88C436.44,-782.47 412.92,-770.71 392.83,-760.67"/>
<polygon fill="grey" stroke="grey" stroke-width="2" points="394.39,-757.53 383.88,-756.19 391.26,-763.79 394.39,-757.53"/>
</g>
<!-- 49 -->
<g id="node50" class="node">
<title>49</title>
<path fill="none" stroke="#56d892" stroke-width="2" stroke-dasharray="5,2" d="M717,-828C717,-828 662,-828 662,-828 656,-828 650,-822 650,-816 650,-816 650,-804 650,-804 650,-798 656,-792 662,-792 662,-792 717,-792 717,-792 723,-792 729,-798 729,-804 729,-804 729,-816 729,-816 729,-822 723,-828 717,-828"/>
<text text-anchor="middle" x="689.5" y="-807.5" font-family="sans" font-size="10.00">align_probes</text>
</g>
<!-- 49&#45;&gt;42 -->
<g id="edge70" class="edge">
<title>49&#45;&gt;42</title>
<path fill="none" stroke="grey" stroke-width="2" d="M678.38,-791.7C673.14,-783.56 666.8,-773.69 661.02,-764.7"/>
<polygon fill="grey" stroke="grey" stroke-width="2" points="663.85,-762.62 655.5,-756.1 657.96,-766.41 663.85,-762.62"/>
</g>
<!-- 49&#45;&gt;43 -->
<g id="edge71" class="edge">
<title>49&#45;&gt;43</title>
<path fill="none" stroke="grey" stroke-width="2" d="M712.74,-791.7C724.69,-782.8 739.42,-771.82 752.35,-762.2"/>
<polygon fill="grey" stroke="grey" stroke-width="2" points="754.6,-764.88 760.53,-756.1 750.42,-759.27 754.6,-764.88"/>
</g>
<!-- 50 -->
<g id="node51" class="node">
<title>50</title>
<path fill="none" stroke="#56d892" stroke-width="2" stroke-dasharray="5,2" d="M920,-828C920,-828 865,-828 865,-828 859,-828 853,-822 853,-816 853,-816 853,-804 853,-804 853,-798 859,-792 865,-792 865,-792 920,-792 920,-792 926,-792 932,-798 932,-804 932,-804 932,-816 932,-816 932,-822 926,-828 920,-828"/>
<text text-anchor="middle" x="892.5" y="-807.5" font-family="sans" font-size="10.00">align_probes</text>
</g>
<!-- 50&#45;&gt;44 -->
<g id="edge72" class="edge">
<title>50&#45;&gt;44</title>
<path fill="none" stroke="grey" stroke-width="2" d="M932.08,-794.5C959.58,-784.41 996.65,-770.83 1027.23,-759.62"/>
<polygon fill="grey" stroke="grey" stroke-width="2" points="1028.72,-762.8 1036.9,-756.08 1026.31,-756.23 1028.72,-762.8"/>
</g>
<!-- 50&#45;&gt;45 -->
<g id="edge73" class="edge">
<title>50&#45;&gt;45</title>
<path fill="none" stroke="grey" stroke-width="2" d="M905.35,-791.7C911.53,-783.39 919.04,-773.28 925.82,-764.14"/>
<polygon fill="grey" stroke="grey" stroke-width="2" points="928.64,-766.22 931.79,-756.1 923.02,-762.04 928.64,-766.22"/>
</g>
<!-- 51 -->
<g id="node52" class="node">
<title>51</title>
<path fill="none" stroke="#56d892" stroke-width="2" stroke-dasharray="5,2" d="M281,-828C281,-828 226,-828 226,-828 220,-828 214,-822 214,-816 214,-816 214,-804 214,-804 214,-798 220,-792 226,-792 226,-792 281,-792 281,-792 287,-792 293,-798 293,-804 293,-804 293,-816 293,-816 293,-822 287,-828 281,-828"/>
<text text-anchor="middle" x="253.5" y="-807.5" font-family="sans" font-size="10.00">align_probes</text>
</g>
<!-- 51&#45;&gt;46 -->
<g id="edge74" class="edge">
<title>51&#45;&gt;46</title>
<path fill="none" stroke="grey" stroke-width="2" d="M242.87,-791.7C237.87,-783.56 231.81,-773.69 226.29,-764.7"/>
<polygon fill="grey" stroke="grey" stroke-width="2" points="229.22,-762.79 221.01,-756.1 223.26,-766.46 229.22,-762.79"/>
</g>
<!-- 51&#45;&gt;47 -->
<g id="edge75" class="edge">
<title>51&#45;&gt;47</title>
<path fill="none" stroke="grey" stroke-width="2" d="M213.56,-793.64C187.61,-783.66 153.48,-770.53 125.17,-759.64"/>
<polygon fill="grey" stroke="grey" stroke-width="2" points="126.4,-756.37 115.81,-756.04 123.89,-762.9 126.4,-756.37"/>
</g>
<!-- 52&#45;&gt;48 -->
<g id="edge76" class="edge">
<title>52&#45;&gt;48</title>
<path fill="none" stroke="grey" stroke-width="2" d="M491.01,-863.7C490.79,-855.98 490.52,-846.71 490.27,-838.11"/>
<polygon fill="grey" stroke="grey" stroke-width="2" points="493.77,-838 489.99,-828.1 486.78,-838.2 493.77,-838"/>
</g>
<!-- 53&#45;&gt;48 -->
<g id="edge77" class="edge">
<title>53&#45;&gt;48</title>
<path fill="none" stroke="grey" stroke-width="2" d="M599.03,-863.88C579.38,-854.39 554.78,-842.51 533.87,-832.42"/>
<polygon fill="grey" stroke="grey" stroke-width="2" points="535.38,-829.26 524.86,-828.07 532.34,-835.57 535.38,-829.26"/>
</g>
<!-- 53&#45;&gt;49 -->
<g id="edge79" class="edge">
<title>53&#45;&gt;49</title>
<path fill="none" stroke="grey" stroke-width="2" d="M648.1,-863.7C654.62,-855.39 662.57,-845.28 669.75,-836.14"/>
<polygon fill="grey" stroke="grey" stroke-width="2" points="672.63,-838.13 676.06,-828.1 667.13,-833.81 672.63,-838.13"/>
</g>
<!-- 53&#45;&gt;50 -->
<g id="edge81" class="edge">
<title>53&#45;&gt;50</title>
<path fill="none" stroke="grey" stroke-width="2" d="M674.25,-866.89C677.37,-865.88 680.48,-864.9 683.5,-864 737.61,-847.79 800.55,-832.27 843.11,-822.26"/>
<polygon fill="grey" stroke="grey" stroke-width="2" points="843.99,-825.65 852.93,-819.97 842.4,-818.84 843.99,-825.65"/>
</g>
<!-- 53&#45;&gt;51 -->
<g id="edge83" class="edge">
<title>53&#45;&gt;51</title>
<path fill="none" stroke="grey" stroke-width="2" d="M594.64,-873.52C578.73,-870.54 560.25,-867.1 543.5,-864 459.23,-848.43 361.13,-830.55 303.34,-820.05"/>
<polygon fill="grey" stroke="grey" stroke-width="2" points="303.85,-816.58 293.38,-818.24 302.59,-823.47 303.85,-816.58"/>
</g>
<!-- 54&#45;&gt;49 -->
<g id="edge78" class="edge">
<title>54&#45;&gt;49</title>
<path fill="none" stroke="grey" stroke-width="2" d="M724.13,-863.7C718.78,-855.56 712.3,-845.69 706.39,-836.7"/>
<polygon fill="grey" stroke="grey" stroke-width="2" points="709.16,-834.54 700.74,-828.1 703.31,-838.38 709.16,-834.54"/>
</g>
<!-- 55&#45;&gt;50 -->
<g id="edge80" class="edge">
<title>55&#45;&gt;50</title>
<path fill="none" stroke="grey" stroke-width="2" d="M872.93,-863.7C875.86,-855.81 879.39,-846.3 882.64,-837.55"/>
<polygon fill="grey" stroke="grey" stroke-width="2" points="885.95,-838.7 886.15,-828.1 879.38,-836.26 885.95,-838.7"/>
</g>
<!-- 56&#45;&gt;51 -->
<g id="edge82" class="edge">
<title>56&#45;&gt;51</title>
<path fill="none" stroke="grey" stroke-width="2" d="M286.62,-863.7C281.51,-855.56 275.3,-845.69 269.66,-836.7"/>
<polygon fill="grey" stroke="grey" stroke-width="2" points="272.54,-834.71 264.25,-828.1 266.61,-838.43 272.54,-834.71"/>
</g>
</g>
</svg>
