<?xml version="1.0" encoding="UTF-8" standalone="no"?>
<!DOCTYPE svg PUBLIC "-//W3C//DTD SVG 1.1//EN"
 "http://www.w3.org/Graphics/SVG/1.1/DTD/svg11.dtd">
<!-- Generated by graphviz version 2.38.0 (20140413.2041)
 -->
<!-- Title: snakemake_dag Pages: 1 -->
<svg width="1306pt" height="980pt"
 viewBox="0.00 0.00 1306.47 980.00" xmlns="http://www.w3.org/2000/svg" xmlns:xlink="http://www.w3.org/1999/xlink">
<g id="graph0" class="graph" transform="scale(1 1) rotate(0) translate(4 976)">
<title>snakemake_dag</title>
<polygon fill="white" stroke="none" points="-4,4 -4,-976 1302.47,-976 1302.47,4 -4,4"/>
<!-- 0 -->
<g id="node1" class="node"><title>0</title>
<path fill="none" stroke="#61d856" stroke-width="2" stroke-dasharray="5,2" d="M658.5,-36C658.5,-36 628.5,-36 628.5,-36 622.5,-36 616.5,-30 616.5,-24 616.5,-24 616.5,-12 616.5,-12 616.5,-6 622.5,-0 628.5,-0 628.5,-0 658.5,-0 658.5,-0 664.5,-0 670.5,-6 670.5,-12 670.5,-12 670.5,-24 670.5,-24 670.5,-30 664.5,-36 658.5,-36"/>
<text text-anchor="middle" x="643.5" y="-15.5" font-family="sans" font-size="10.00">all</text>
</g>
<!-- 1 -->
<g id="node2" class="node"><title>1</title>
<path fill="none" stroke="#56a9d8" stroke-width="2" stroke-dasharray="5,2" d="M658.5,-108C658.5,-108 628.5,-108 628.5,-108 622.5,-108 616.5,-102 616.5,-96 616.5,-96 616.5,-84 616.5,-84 616.5,-78 622.5,-72 628.5,-72 628.5,-72 658.5,-72 658.5,-72 664.5,-72 670.5,-78 670.5,-84 670.5,-84 670.5,-96 670.5,-96 670.5,-102 664.5,-108 658.5,-108"/>
<text text-anchor="middle" x="643.5" y="-87.5" font-family="sans" font-size="10.00">finish</text>
</g>
<!-- 1&#45;&gt;0 -->
<g id="edge1" class="edge"><title>1&#45;&gt;0</title>
<path fill="none" stroke="grey" stroke-width="2" d="M643.5,-71.6966C643.5,-63.9827 643.5,-54.7125 643.5,-46.1124"/>
<polygon fill="grey" stroke="grey" stroke-width="2" points="647,-46.1043 643.5,-36.1043 640,-46.1044 647,-46.1043"/>
</g>
<!-- 2 -->
<g id="node3" class="node"><title>2</title>
<path fill="none" stroke="#d8d356" stroke-width="2" stroke-dasharray="5,2" d="M574,-180C574,-180 529,-180 529,-180 523,-180 517,-174 517,-168 517,-168 517,-156 517,-156 517,-150 523,-144 529,-144 529,-144 574,-144 574,-144 580,-144 586,-150 586,-156 586,-156 586,-168 586,-168 586,-174 580,-180 574,-180"/>
<text text-anchor="middle" x="551.5" y="-159.5" font-family="sans" font-size="10.00">zip_probes</text>
</g>
<!-- 2&#45;&gt;1 -->
<g id="edge2" class="edge"><title>2&#45;&gt;1</title>
<path fill="none" stroke="grey" stroke-width="2" d="M574.242,-143.697C585.94,-134.796 600.361,-123.823 613.01,-114.199"/>
<polygon fill="grey" stroke="grey" stroke-width="2" points="615.181,-116.945 621.02,-108.104 610.942,-111.374 615.181,-116.945"/>
</g>
<!-- 3 -->
<g id="node4" class="node"><title>3</title>
<path fill="none" stroke="#c6d856" stroke-width="2" stroke-dasharray="5,2" d="M769.5,-180C769.5,-180 709.5,-180 709.5,-180 703.5,-180 697.5,-174 697.5,-168 697.5,-168 697.5,-156 697.5,-156 697.5,-150 703.5,-144 709.5,-144 709.5,-144 769.5,-144 769.5,-144 775.5,-144 781.5,-150 781.5,-156 781.5,-156 781.5,-168 781.5,-168 781.5,-174 775.5,-180 769.5,-180"/>
<text text-anchor="middle" x="739.5" y="-159.5" font-family="sans" font-size="10.00">zip_refseq_db</text>
</g>
<!-- 3&#45;&gt;1 -->
<g id="edge3" class="edge"><title>3&#45;&gt;1</title>
<path fill="none" stroke="grey" stroke-width="2" d="M715.77,-143.697C703.563,-134.796 688.515,-123.823 675.316,-114.199"/>
<polygon fill="grey" stroke="grey" stroke-width="2" points="677.1,-111.168 666.957,-108.104 672.975,-116.824 677.1,-111.168"/>
</g>
<!-- 4 -->
<g id="node5" class="node"><title>4</title>
<path fill="none" stroke="#d89556" stroke-width="2" stroke-dasharray="5,2" d="M665.5,-180C665.5,-180 621.5,-180 621.5,-180 615.5,-180 609.5,-174 609.5,-168 609.5,-168 609.5,-156 609.5,-156 609.5,-150 615.5,-144 621.5,-144 621.5,-144 665.5,-144 665.5,-144 671.5,-144 677.5,-150 677.5,-156 677.5,-156 677.5,-168 677.5,-168 677.5,-174 671.5,-180 665.5,-180"/>
<text text-anchor="middle" x="643.5" y="-159.5" font-family="sans" font-size="10.00">zip_iso_db</text>
</g>
<!-- 4&#45;&gt;1 -->
<g id="edge4" class="edge"><title>4&#45;&gt;1</title>
<path fill="none" stroke="grey" stroke-width="2" d="M643.5,-143.697C643.5,-135.983 643.5,-126.712 643.5,-118.112"/>
<polygon fill="grey" stroke="grey" stroke-width="2" points="647,-118.104 643.5,-108.104 640,-118.104 647,-118.104"/>
</g>
<!-- 5 -->
<g id="node6" class="node"><title>5</title>
<path fill="none" stroke="#56d8a2" stroke-width="2" stroke-dasharray="5,2" d="M577.5,-252C577.5,-252 515.5,-252 515.5,-252 509.5,-252 503.5,-246 503.5,-240 503.5,-240 503.5,-228 503.5,-228 503.5,-222 509.5,-216 515.5,-216 515.5,-216 577.5,-216 577.5,-216 583.5,-216 589.5,-222 589.5,-228 589.5,-228 589.5,-240 589.5,-240 589.5,-246 583.5,-252 577.5,-252"/>
<text text-anchor="middle" x="546.5" y="-231.5" font-family="sans" font-size="10.00">merge_probes</text>
</g>
<!-- 5&#45;&gt;2 -->
<g id="edge5" class="edge"><title>5&#45;&gt;2</title>
<path fill="none" stroke="grey" stroke-width="2" d="M547.736,-215.697C548.287,-207.983 548.949,-198.712 549.563,-190.112"/>
<polygon fill="grey" stroke="grey" stroke-width="2" points="553.057,-190.328 550.278,-180.104 546.075,-189.83 553.057,-190.328"/>
</g>
<!-- 6 -->
<g id="node7" class="node"><title>6</title>
<path fill="none" stroke="#78d856" stroke-width="2" stroke-dasharray="5,2" d="M773.5,-252C773.5,-252 709.5,-252 709.5,-252 703.5,-252 697.5,-246 697.5,-240 697.5,-240 697.5,-228 697.5,-228 697.5,-222 703.5,-216 709.5,-216 709.5,-216 773.5,-216 773.5,-216 779.5,-216 785.5,-222 785.5,-228 785.5,-228 785.5,-240 785.5,-240 785.5,-246 779.5,-252 773.5,-252"/>
<text text-anchor="middle" x="741.5" y="-231.5" font-family="sans" font-size="10.00">gen_refseq_db</text>
</g>
<!-- 6&#45;&gt;3 -->
<g id="edge6" class="edge"><title>6&#45;&gt;3</title>
<path fill="none" stroke="grey" stroke-width="2" d="M741.006,-215.697C740.785,-207.983 740.52,-198.712 740.275,-190.112"/>
<polygon fill="grey" stroke="grey" stroke-width="2" points="743.773,-190 739.989,-180.104 736.776,-190.2 743.773,-190"/>
</g>
<!-- 7 -->
<g id="node8" class="node"><title>7</title>
<path fill="none" stroke="#56d8b1" stroke-width="2" stroke-dasharray="5,2" d="M667,-252C667,-252 620,-252 620,-252 614,-252 608,-246 608,-240 608,-240 608,-228 608,-228 608,-222 614,-216 620,-216 620,-216 667,-216 667,-216 673,-216 679,-222 679,-228 679,-228 679,-240 679,-240 679,-246 673,-252 667,-252"/>
<text text-anchor="middle" x="643.5" y="-231.5" font-family="sans" font-size="10.00">gen_iso_db</text>
</g>
<!-- 7&#45;&gt;4 -->
<g id="edge7" class="edge"><title>7&#45;&gt;4</title>
<path fill="none" stroke="grey" stroke-width="2" d="M643.5,-215.697C643.5,-207.983 643.5,-198.712 643.5,-190.112"/>
<polygon fill="grey" stroke="grey" stroke-width="2" points="647,-190.104 643.5,-180.104 640,-190.104 647,-190.104"/>
</g>
<!-- 8 -->
<g id="node9" class="node"><title>8</title>
<path fill="none" stroke="#566bd8" stroke-width="2" stroke-dasharray="5,2" d="M574.5,-324C574.5,-324 522.5,-324 522.5,-324 516.5,-324 510.5,-318 510.5,-312 510.5,-312 510.5,-300 510.5,-300 510.5,-294 516.5,-288 522.5,-288 522.5,-288 574.5,-288 574.5,-288 580.5,-288 586.5,-294 586.5,-300 586.5,-300 586.5,-312 586.5,-312 586.5,-318 580.5,-324 574.5,-324"/>
<text text-anchor="middle" x="548.5" y="-303.5" font-family="sans" font-size="10.00">final_probes</text>
</g>
<!-- 8&#45;&gt;5 -->
<g id="edge8" class="edge"><title>8&#45;&gt;5</title>
<path fill="none" stroke="grey" stroke-width="2" d="M548.006,-287.697C547.785,-279.983 547.52,-270.712 547.275,-262.112"/>
<polygon fill="grey" stroke="grey" stroke-width="2" points="550.773,-262 546.989,-252.104 543.776,-262.2 550.773,-262"/>
</g>
<!-- 8&#45;&gt;6 -->
<g id="edge12" class="edge"><title>8&#45;&gt;6</title>
<path fill="none" stroke="grey" stroke-width="2" d="M586.631,-291.17C615.502,-280.699 655.539,-266.178 687.672,-254.523"/>
<polygon fill="grey" stroke="grey" stroke-width="2" points="689.162,-257.706 697.369,-251.006 686.775,-251.125 689.162,-257.706"/>
</g>
<!-- 8&#45;&gt;7 -->
<g id="edge17" class="edge"><title>8&#45;&gt;7</title>
<path fill="none" stroke="grey" stroke-width="2" d="M571.983,-287.697C584.063,-278.796 598.954,-267.823 612.016,-258.199"/>
<polygon fill="grey" stroke="grey" stroke-width="2" points="614.313,-260.854 620.287,-252.104 610.16,-255.219 614.313,-260.854"/>
</g>
<!-- 9 -->
<g id="node10" class="node"><title>9</title>
<path fill="none" stroke="#566bd8" stroke-width="2" stroke-dasharray="5,2" d="M669.5,-324C669.5,-324 617.5,-324 617.5,-324 611.5,-324 605.5,-318 605.5,-312 605.5,-312 605.5,-300 605.5,-300 605.5,-294 611.5,-288 617.5,-288 617.5,-288 669.5,-288 669.5,-288 675.5,-288 681.5,-294 681.5,-300 681.5,-300 681.5,-312 681.5,-312 681.5,-318 675.5,-324 669.5,-324"/>
<text text-anchor="middle" x="643.5" y="-303.5" font-family="sans" font-size="10.00">final_probes</text>
</g>
<!-- 9&#45;&gt;5 -->
<g id="edge9" class="edge"><title>9&#45;&gt;5</title>
<path fill="none" stroke="grey" stroke-width="2" d="M619.522,-287.697C607.189,-278.796 591.984,-267.823 578.647,-258.199"/>
<polygon fill="grey" stroke="grey" stroke-width="2" points="580.359,-255.118 570.202,-252.104 576.263,-260.794 580.359,-255.118"/>
</g>
<!-- 9&#45;&gt;6 -->
<g id="edge13" class="edge"><title>9&#45;&gt;6</title>
<path fill="none" stroke="grey" stroke-width="2" d="M667.473,-287.876C680.05,-278.893 695.632,-267.763 709.252,-258.034"/>
<polygon fill="grey" stroke="grey" stroke-width="2" points="711.331,-260.85 717.434,-252.19 707.263,-255.154 711.331,-260.85"/>
</g>
<!-- 9&#45;&gt;7 -->
<g id="edge18" class="edge"><title>9&#45;&gt;7</title>
<path fill="none" stroke="grey" stroke-width="2" d="M643.5,-287.697C643.5,-279.983 643.5,-270.712 643.5,-262.112"/>
<polygon fill="grey" stroke="grey" stroke-width="2" points="647,-262.104 643.5,-252.104 640,-262.104 647,-262.104"/>
</g>
<!-- 10 -->
<g id="node11" class="node"><title>10</title>
<path fill="none" stroke="#566bd8" stroke-width="2" stroke-dasharray="5,2" d="M767.5,-324C767.5,-324 715.5,-324 715.5,-324 709.5,-324 703.5,-318 703.5,-312 703.5,-312 703.5,-300 703.5,-300 703.5,-294 709.5,-288 715.5,-288 715.5,-288 767.5,-288 767.5,-288 773.5,-288 779.5,-294 779.5,-300 779.5,-300 779.5,-312 779.5,-312 779.5,-318 773.5,-324 767.5,-324"/>
<text text-anchor="middle" x="741.5" y="-303.5" font-family="sans" font-size="10.00">final_probes</text>
</g>
<!-- 10&#45;&gt;5 -->
<g id="edge10" class="edge"><title>10&#45;&gt;5</title>
<path fill="none" stroke="grey" stroke-width="2" d="M703.439,-291.337C673.68,-280.654 631.974,-265.683 599.035,-253.859"/>
<polygon fill="grey" stroke="grey" stroke-width="2" points="600.151,-250.541 589.557,-250.456 597.786,-257.129 600.151,-250.541"/>
</g>
<!-- 10&#45;&gt;6 -->
<g id="edge14" class="edge"><title>10&#45;&gt;6</title>
<path fill="none" stroke="grey" stroke-width="2" d="M741.5,-287.697C741.5,-279.983 741.5,-270.712 741.5,-262.112"/>
<polygon fill="grey" stroke="grey" stroke-width="2" points="745,-262.104 741.5,-252.104 738,-262.104 745,-262.104"/>
</g>
<!-- 10&#45;&gt;7 -->
<g id="edge19" class="edge"><title>10&#45;&gt;7</title>
<path fill="none" stroke="grey" stroke-width="2" d="M717.527,-287.876C704.95,-278.893 689.368,-267.763 675.748,-258.034"/>
<polygon fill="grey" stroke="grey" stroke-width="2" points="677.737,-255.154 667.566,-252.19 673.669,-260.85 677.737,-255.154"/>
</g>
<!-- 11 -->
<g id="node12" class="node"><title>11</title>
<path fill="none" stroke="#566bd8" stroke-width="2" stroke-dasharray="5,2" d="M480.5,-324C480.5,-324 428.5,-324 428.5,-324 422.5,-324 416.5,-318 416.5,-312 416.5,-312 416.5,-300 416.5,-300 416.5,-294 422.5,-288 428.5,-288 428.5,-288 480.5,-288 480.5,-288 486.5,-288 492.5,-294 492.5,-300 492.5,-300 492.5,-312 492.5,-312 492.5,-318 486.5,-324 480.5,-324"/>
<text text-anchor="middle" x="454.5" y="-303.5" font-family="sans" font-size="10.00">final_probes</text>
</g>
<!-- 11&#45;&gt;5 -->
<g id="edge11" class="edge"><title>11&#45;&gt;5</title>
<path fill="none" stroke="grey" stroke-width="2" d="M477.242,-287.697C488.94,-278.796 503.361,-267.823 516.01,-258.199"/>
<polygon fill="grey" stroke="grey" stroke-width="2" points="518.181,-260.945 524.02,-252.104 513.942,-255.374 518.181,-260.945"/>
</g>
<!-- 11&#45;&gt;6 -->
<g id="edge15" class="edge"><title>11&#45;&gt;6</title>
<path fill="none" stroke="grey" stroke-width="2" d="M492.559,-290.672C495.567,-289.712 498.572,-288.807 501.5,-288 582.67,-265.612 605.877,-272.676 687.5,-252 687.601,-251.974 687.703,-251.949 687.804,-251.923"/>
<polygon fill="grey" stroke="grey" stroke-width="2" points="688.671,-255.314 697.413,-249.329 686.846,-248.556 688.671,-255.314"/>
</g>
<!-- 11&#45;&gt;7 -->
<g id="edge20" class="edge"><title>11&#45;&gt;7</title>
<path fill="none" stroke="grey" stroke-width="2" d="M492.734,-291.028C519.731,-281.141 556.987,-267.45 598.227,-252.088"/>
<polygon fill="grey" stroke="grey" stroke-width="2" points="599.502,-255.348 607.649,-248.575 597.056,-248.789 599.502,-255.348"/>
</g>
<!-- 12 -->
<g id="node13" class="node"><title>12</title>
<path fill="none" stroke="#56c1d8" stroke-width="2" stroke-dasharray="5,2" d="M1159.5,-468C1159.5,-468 1121.5,-468 1121.5,-468 1115.5,-468 1109.5,-462 1109.5,-456 1109.5,-456 1109.5,-444 1109.5,-444 1109.5,-438 1115.5,-432 1121.5,-432 1121.5,-432 1159.5,-432 1159.5,-432 1165.5,-432 1171.5,-438 1171.5,-444 1171.5,-444 1171.5,-456 1171.5,-456 1171.5,-462 1165.5,-468 1159.5,-468"/>
<text text-anchor="middle" x="1140.5" y="-447.5" font-family="sans" font-size="10.00">parse_gtf</text>
</g>
<!-- 12&#45;&gt;6 -->
<g id="edge16" class="edge"><title>12&#45;&gt;6</title>
<path fill="none" stroke="grey" stroke-width="2" d="M1171.56,-448.069C1207.24,-445.134 1264.35,-434.307 1291.5,-396 1300.75,-382.947 1300.82,-373.006 1291.5,-360 1233.74,-279.384 923.056,-248.084 795.852,-238.529"/>
<polygon fill="grey" stroke="grey" stroke-width="2" points="795.798,-235.015 785.569,-237.774 795.286,-241.996 795.798,-235.015"/>
</g>
<!-- 23 -->
<g id="node24" class="node"><title>23</title>
<path fill="none" stroke="#56d8c9" stroke-width="2" stroke-dasharray="5,2" d="M926.5,-396C926.5,-396 854.5,-396 854.5,-396 848.5,-396 842.5,-390 842.5,-384 842.5,-384 842.5,-372 842.5,-372 842.5,-366 848.5,-360 854.5,-360 854.5,-360 926.5,-360 926.5,-360 932.5,-360 938.5,-366 938.5,-372 938.5,-372 938.5,-384 938.5,-384 938.5,-390 932.5,-396 926.5,-396"/>
<text text-anchor="middle" x="890.5" y="-381" font-family="sans" font-size="10.00">flatten_isoforms</text>
<text text-anchor="middle" x="890.5" y="-370" font-family="sans" font-size="10.00">chrom_gtf: chrIII</text>
</g>
<!-- 12&#45;&gt;23 -->
<g id="edge47" class="edge"><title>12&#45;&gt;23</title>
<path fill="none" stroke="grey" stroke-width="2" d="M1109.35,-440.672C1073.02,-430.906 1010.9,-414.06 948.318,-396.207"/>
<polygon fill="grey" stroke="grey" stroke-width="2" points="949.257,-392.835 938.68,-393.45 947.332,-399.565 949.257,-392.835"/>
</g>
<!-- 24 -->
<g id="node25" class="node"><title>24</title>
<path fill="none" stroke="#56d8c9" stroke-width="2" stroke-dasharray="5,2" d="M1040.5,-396C1040.5,-396 968.5,-396 968.5,-396 962.5,-396 956.5,-390 956.5,-384 956.5,-384 956.5,-372 956.5,-372 956.5,-366 962.5,-360 968.5,-360 968.5,-360 1040.5,-360 1040.5,-360 1046.5,-360 1052.5,-366 1052.5,-372 1052.5,-372 1052.5,-384 1052.5,-384 1052.5,-390 1046.5,-396 1040.5,-396"/>
<text text-anchor="middle" x="1004.5" y="-381" font-family="sans" font-size="10.00">flatten_isoforms</text>
<text text-anchor="middle" x="1004.5" y="-370" font-family="sans" font-size="10.00">chrom_gtf: chrII</text>
</g>
<!-- 12&#45;&gt;24 -->
<g id="edge48" class="edge"><title>12&#45;&gt;24</title>
<path fill="none" stroke="grey" stroke-width="2" d="M1109.3,-432.941C1090.8,-423.42 1067.1,-411.223 1046.93,-400.837"/>
<polygon fill="grey" stroke="grey" stroke-width="2" points="1048.43,-397.672 1037.93,-396.208 1045.22,-403.896 1048.43,-397.672"/>
</g>
<!-- 25 -->
<g id="node26" class="node"><title>25</title>
<path fill="none" stroke="#56d8c9" stroke-width="2" stroke-dasharray="5,2" d="M1156,-396C1156,-396 1083,-396 1083,-396 1077,-396 1071,-390 1071,-384 1071,-384 1071,-372 1071,-372 1071,-366 1077,-360 1083,-360 1083,-360 1156,-360 1156,-360 1162,-360 1168,-366 1168,-372 1168,-372 1168,-384 1168,-384 1168,-390 1162,-396 1156,-396"/>
<text text-anchor="middle" x="1119.5" y="-381" font-family="sans" font-size="10.00">flatten_isoforms</text>
<text text-anchor="middle" x="1119.5" y="-370" font-family="sans" font-size="10.00">chrom_gtf: chrIV</text>
</g>
<!-- 12&#45;&gt;25 -->
<g id="edge49" class="edge"><title>12&#45;&gt;25</title>
<path fill="none" stroke="grey" stroke-width="2" d="M1135.31,-431.697C1132.97,-423.898 1130.15,-414.509 1127.55,-405.829"/>
<polygon fill="grey" stroke="grey" stroke-width="2" points="1130.86,-404.677 1124.63,-396.104 1124.15,-406.688 1130.86,-404.677"/>
</g>
<!-- 26 -->
<g id="node27" class="node"><title>26</title>
<path fill="none" stroke="#56d8c9" stroke-width="2" stroke-dasharray="5,2" d="M1270.5,-396C1270.5,-396 1198.5,-396 1198.5,-396 1192.5,-396 1186.5,-390 1186.5,-384 1186.5,-384 1186.5,-372 1186.5,-372 1186.5,-366 1192.5,-360 1198.5,-360 1198.5,-360 1270.5,-360 1270.5,-360 1276.5,-360 1282.5,-366 1282.5,-372 1282.5,-372 1282.5,-384 1282.5,-384 1282.5,-390 1276.5,-396 1270.5,-396"/>
<text text-anchor="middle" x="1234.5" y="-381" font-family="sans" font-size="10.00">flatten_isoforms</text>
<text text-anchor="middle" x="1234.5" y="-370" font-family="sans" font-size="10.00">chrom_gtf: chrI</text>
</g>
<!-- 12&#45;&gt;26 -->
<g id="edge50" class="edge"><title>12&#45;&gt;26</title>
<path fill="none" stroke="grey" stroke-width="2" d="M1163.74,-431.697C1175.69,-422.796 1190.42,-411.823 1203.35,-402.199"/>
<polygon fill="grey" stroke="grey" stroke-width="2" points="1205.6,-404.884 1211.53,-396.104 1201.42,-399.27 1205.6,-404.884"/>
</g>
<!-- 13 -->
<g id="node14" class="node"><title>13</title>
<path fill="none" stroke="#5682d8" stroke-width="2" stroke-dasharray="5,2" d="M1058.5,-324C1058.5,-324 950.5,-324 950.5,-324 944.5,-324 938.5,-318 938.5,-312 938.5,-312 938.5,-300 938.5,-300 938.5,-294 944.5,-288 950.5,-288 950.5,-288 1058.5,-288 1058.5,-288 1064.5,-288 1070.5,-294 1070.5,-300 1070.5,-300 1070.5,-312 1070.5,-312 1070.5,-318 1064.5,-324 1058.5,-324"/>
<text text-anchor="middle" x="1004.5" y="-303.5" font-family="sans" font-size="10.00">merge_flat_annotations</text>
</g>
<!-- 13&#45;&gt;7 -->
<g id="edge21" class="edge"><title>13&#45;&gt;7</title>
<path fill="none" stroke="grey" stroke-width="2" d="M938.334,-297.717C876.041,-290.001 780.18,-275.913 688.834,-251.787"/>
<polygon fill="grey" stroke="grey" stroke-width="2" points="689.72,-248.401 679.155,-249.188 687.905,-255.162 689.72,-248.401"/>
</g>
<!-- 14 -->
<g id="node15" class="node"><title>14</title>
<path fill="none" stroke="#d86e56" stroke-width="2" stroke-dasharray="5,2" d="M508,-468C508,-468 443,-468 443,-468 437,-468 431,-462 431,-456 431,-456 431,-444 431,-444 431,-438 437,-432 443,-432 443,-432 508,-432 508,-432 514,-432 520,-438 520,-444 520,-444 520,-456 520,-456 520,-462 514,-468 508,-468"/>
<text text-anchor="middle" x="475.5" y="-447.5" font-family="sans" font-size="10.00">filter_n_probes</text>
</g>
<!-- 14&#45;&gt;8 -->
<g id="edge22" class="edge"><title>14&#45;&gt;8</title>
<path fill="none" stroke="grey" stroke-width="2" d="M476.236,-431.918C477.68,-413.215 481.944,-382.846 494.5,-360 500.421,-349.226 509.23,-339.247 518.023,-330.921"/>
<polygon fill="grey" stroke="grey" stroke-width="2" points="520.572,-333.336 525.674,-324.051 515.895,-328.128 520.572,-333.336"/>
</g>
<!-- 15 -->
<g id="node16" class="node"><title>15</title>
<path fill="none" stroke="#d85656" stroke-width="2" stroke-dasharray="5,2" d="M561,-396C561,-396 516,-396 516,-396 510,-396 504,-390 504,-384 504,-384 504,-372 504,-372 504,-366 510,-360 516,-360 516,-360 561,-360 561,-360 567,-360 573,-366 573,-372 573,-372 573,-384 573,-384 573,-390 567,-396 561,-396"/>
<text text-anchor="middle" x="538.5" y="-375.5" font-family="sans" font-size="10.00">max_kmer</text>
</g>
<!-- 14&#45;&gt;15 -->
<g id="edge36" class="edge"><title>14&#45;&gt;15</title>
<path fill="none" stroke="grey" stroke-width="2" d="M491.073,-431.697C498.702,-423.22 508.023,-412.864 516.376,-403.583"/>
<polygon fill="grey" stroke="grey" stroke-width="2" points="519.018,-405.879 523.106,-396.104 513.815,-401.196 519.018,-405.879"/>
</g>
<!-- 15&#45;&gt;8 -->
<g id="edge23" class="edge"><title>15&#45;&gt;8</title>
<path fill="none" stroke="grey" stroke-width="2" d="M540.972,-359.697C542.074,-351.983 543.398,-342.712 544.627,-334.112"/>
<polygon fill="grey" stroke="grey" stroke-width="2" points="548.107,-334.499 546.057,-324.104 541.177,-333.509 548.107,-334.499"/>
</g>
<!-- 16 -->
<g id="node17" class="node"><title>16</title>
<path fill="none" stroke="#d86e56" stroke-width="2" stroke-dasharray="5,2" d="M719,-468C719,-468 654,-468 654,-468 648,-468 642,-462 642,-456 642,-456 642,-444 642,-444 642,-438 648,-432 654,-432 654,-432 719,-432 719,-432 725,-432 731,-438 731,-444 731,-444 731,-456 731,-456 731,-462 725,-468 719,-468"/>
<text text-anchor="middle" x="686.5" y="-447.5" font-family="sans" font-size="10.00">filter_n_probes</text>
</g>
<!-- 16&#45;&gt;9 -->
<g id="edge24" class="edge"><title>16&#45;&gt;9</title>
<path fill="none" stroke="grey" stroke-width="2" d="M684.301,-431.954C681.673,-413.802 676.587,-384.39 668.5,-360 665.554,-351.116 661.497,-341.772 657.508,-333.447"/>
<polygon fill="grey" stroke="grey" stroke-width="2" points="660.512,-331.626 652.926,-324.23 654.243,-334.742 660.512,-331.626"/>
</g>
<!-- 17 -->
<g id="node18" class="node"><title>17</title>
<path fill="none" stroke="#d85656" stroke-width="2" stroke-dasharray="5,2" d="M648,-396C648,-396 603,-396 603,-396 597,-396 591,-390 591,-384 591,-384 591,-372 591,-372 591,-366 597,-360 603,-360 603,-360 648,-360 648,-360 654,-360 660,-366 660,-372 660,-372 660,-384 660,-384 660,-390 654,-396 648,-396"/>
<text text-anchor="middle" x="625.5" y="-375.5" font-family="sans" font-size="10.00">max_kmer</text>
</g>
<!-- 16&#45;&gt;17 -->
<g id="edge39" class="edge"><title>16&#45;&gt;17</title>
<path fill="none" stroke="grey" stroke-width="2" d="M671.421,-431.697C664.108,-423.305 655.19,-413.07 647.165,-403.861"/>
<polygon fill="grey" stroke="grey" stroke-width="2" points="649.614,-401.344 640.405,-396.104 644.336,-405.943 649.614,-401.344"/>
</g>
<!-- 17&#45;&gt;9 -->
<g id="edge25" class="edge"><title>17&#45;&gt;9</title>
<path fill="none" stroke="grey" stroke-width="2" d="M629.949,-359.697C631.955,-351.898 634.369,-342.509 636.601,-333.829"/>
<polygon fill="grey" stroke="grey" stroke-width="2" points="640.001,-334.661 639.102,-324.104 633.222,-332.918 640.001,-334.661"/>
</g>
<!-- 18 -->
<g id="node19" class="node"><title>18</title>
<path fill="none" stroke="#d86e56" stroke-width="2" stroke-dasharray="5,2" d="M847,-468C847,-468 782,-468 782,-468 776,-468 770,-462 770,-456 770,-456 770,-444 770,-444 770,-438 776,-432 782,-432 782,-432 847,-432 847,-432 853,-432 859,-438 859,-444 859,-444 859,-456 859,-456 859,-462 853,-468 847,-468"/>
<text text-anchor="middle" x="814.5" y="-447.5" font-family="sans" font-size="10.00">filter_n_probes</text>
</g>
<!-- 18&#45;&gt;10 -->
<g id="edge26" class="edge"><title>18&#45;&gt;10</title>
<path fill="none" stroke="grey" stroke-width="2" d="M813.764,-431.918C812.32,-413.215 808.056,-382.846 795.5,-360 789.579,-349.226 780.77,-339.247 771.977,-330.921"/>
<polygon fill="grey" stroke="grey" stroke-width="2" points="774.105,-328.128 764.326,-324.051 769.428,-333.336 774.105,-328.128"/>
</g>
<!-- 19 -->
<g id="node20" class="node"><title>19</title>
<path fill="none" stroke="#d85656" stroke-width="2" stroke-dasharray="5,2" d="M774,-396C774,-396 729,-396 729,-396 723,-396 717,-390 717,-384 717,-384 717,-372 717,-372 717,-366 723,-360 729,-360 729,-360 774,-360 774,-360 780,-360 786,-366 786,-372 786,-372 786,-384 786,-384 786,-390 780,-396 774,-396"/>
<text text-anchor="middle" x="751.5" y="-375.5" font-family="sans" font-size="10.00">max_kmer</text>
</g>
<!-- 18&#45;&gt;19 -->
<g id="edge42" class="edge"><title>18&#45;&gt;19</title>
<path fill="none" stroke="grey" stroke-width="2" d="M798.927,-431.697C791.298,-423.22 781.977,-412.864 773.624,-403.583"/>
<polygon fill="grey" stroke="grey" stroke-width="2" points="776.185,-401.196 766.894,-396.104 770.982,-405.879 776.185,-401.196"/>
</g>
<!-- 19&#45;&gt;10 -->
<g id="edge27" class="edge"><title>19&#45;&gt;10</title>
<path fill="none" stroke="grey" stroke-width="2" d="M749.028,-359.697C747.926,-351.983 746.602,-342.712 745.373,-334.112"/>
<polygon fill="grey" stroke="grey" stroke-width="2" points="748.823,-333.509 743.943,-324.104 741.893,-334.499 748.823,-333.509"/>
</g>
<!-- 20 -->
<g id="node21" class="node"><title>20</title>
<path fill="none" stroke="#d86e56" stroke-width="2" stroke-dasharray="5,2" d="M382,-468C382,-468 317,-468 317,-468 311,-468 305,-462 305,-456 305,-456 305,-444 305,-444 305,-438 311,-432 317,-432 317,-432 382,-432 382,-432 388,-432 394,-438 394,-444 394,-444 394,-456 394,-456 394,-462 388,-468 382,-468"/>
<text text-anchor="middle" x="349.5" y="-447.5" font-family="sans" font-size="10.00">filter_n_probes</text>
</g>
<!-- 20&#45;&gt;11 -->
<g id="edge28" class="edge"><title>20&#45;&gt;11</title>
<path fill="none" stroke="grey" stroke-width="2" d="M349.288,-431.68C349.88,-412.49 353.381,-381.431 368.5,-360 378.296,-346.115 392.996,-335.148 407.485,-326.88"/>
<polygon fill="grey" stroke="grey" stroke-width="2" points="409.276,-329.891 416.433,-322.078 405.966,-323.722 409.276,-329.891"/>
</g>
<!-- 21 -->
<g id="node22" class="node"><title>21</title>
<path fill="none" stroke="#d85656" stroke-width="2" stroke-dasharray="5,2" d="M435,-396C435,-396 390,-396 390,-396 384,-396 378,-390 378,-384 378,-384 378,-372 378,-372 378,-366 384,-360 390,-360 390,-360 435,-360 435,-360 441,-360 447,-366 447,-372 447,-372 447,-384 447,-384 447,-390 441,-396 435,-396"/>
<text text-anchor="middle" x="412.5" y="-375.5" font-family="sans" font-size="10.00">max_kmer</text>
</g>
<!-- 20&#45;&gt;21 -->
<g id="edge45" class="edge"><title>20&#45;&gt;21</title>
<path fill="none" stroke="grey" stroke-width="2" d="M365.073,-431.697C372.702,-423.22 382.023,-412.864 390.376,-403.583"/>
<polygon fill="grey" stroke="grey" stroke-width="2" points="393.018,-405.879 397.106,-396.104 387.815,-401.196 393.018,-405.879"/>
</g>
<!-- 21&#45;&gt;11 -->
<g id="edge29" class="edge"><title>21&#45;&gt;11</title>
<path fill="none" stroke="grey" stroke-width="2" d="M422.882,-359.697C427.765,-351.559 433.687,-341.689 439.079,-332.701"/>
<polygon fill="grey" stroke="grey" stroke-width="2" points="442.094,-334.48 444.237,-324.104 436.091,-330.879 442.094,-334.48"/>
</g>
<!-- 22 -->
<g id="node23" class="node"><title>22</title>
<path fill="none" stroke="#d8bc56" stroke-width="2" stroke-dasharray="5,2" d="M667,-972C667,-972 602,-972 602,-972 596,-972 590,-966 590,-960 590,-960 590,-948 590,-948 590,-942 596,-936 602,-936 602,-936 667,-936 667,-936 673,-936 679,-942 679,-948 679,-948 679,-960 679,-960 679,-966 673,-972 667,-972"/>
<text text-anchor="middle" x="634.5" y="-951.5" font-family="sans" font-size="10.00">parse_genome</text>
</g>
<!-- 22&#45;&gt;12 -->
<g id="edge30" class="edge"><title>22&#45;&gt;12</title>
<path fill="none" stroke="grey" stroke-width="2" d="M679.432,-950.53C806.875,-942.309 1161.5,-910.494 1161.5,-811 1161.5,-811 1161.5,-811 1161.5,-593 1161.5,-552.782 1153.15,-506.839 1146.99,-478.372"/>
<polygon fill="grey" stroke="grey" stroke-width="2" points="1150.35,-477.362 1144.75,-468.366 1143.51,-478.889 1150.35,-477.362"/>
</g>
<!-- 28 -->
<g id="node29" class="node"><title>28</title>
<path fill="none" stroke="#56d863" stroke-width="2" stroke-dasharray="5,2" d="M609.5,-468C609.5,-468 549.5,-468 549.5,-468 543.5,-468 537.5,-462 537.5,-456 537.5,-456 537.5,-444 537.5,-444 537.5,-438 543.5,-432 549.5,-432 549.5,-432 609.5,-432 609.5,-432 615.5,-432 621.5,-438 621.5,-444 621.5,-444 621.5,-456 621.5,-456 621.5,-462 615.5,-468 609.5,-468"/>
<text text-anchor="middle" x="579.5" y="-447.5" font-family="sans" font-size="10.00">build_jellyfish</text>
</g>
<!-- 22&#45;&gt;28 -->
<g id="edge52" class="edge"><title>22&#45;&gt;28</title>
<path fill="none" stroke="grey" stroke-width="2" d="M614.062,-935.794C603.995,-926.246 592.536,-913.573 585.5,-900 566.885,-864.091 566.5,-851.447 566.5,-811 566.5,-811 566.5,-811 566.5,-593 566.5,-552.829 571.723,-506.53 575.548,-478.013"/>
<polygon fill="grey" stroke="grey" stroke-width="2" points="579.029,-478.388 576.932,-468.003 572.095,-477.43 579.029,-478.388"/>
</g>
<!-- 52 -->
<g id="node53" class="node"><title>52</title>
<path fill="none" stroke="#5692d8" stroke-width="2" stroke-dasharray="5,2" d="M523,-900C523,-900 460,-900 460,-900 454,-900 448,-894 448,-888 448,-888 448,-876 448,-876 448,-870 454,-864 460,-864 460,-864 523,-864 523,-864 529,-864 535,-870 535,-876 535,-876 535,-888 535,-888 535,-894 529,-900 523,-900"/>
<text text-anchor="middle" x="491.5" y="-885" font-family="sans" font-size="10.00">design_probes</text>
<text text-anchor="middle" x="491.5" y="-874" font-family="sans" font-size="10.00">chrom: chrI</text>
</g>
<!-- 22&#45;&gt;52 -->
<g id="edge84" class="edge"><title>22&#45;&gt;52</title>
<path fill="none" stroke="grey" stroke-width="2" d="M599.518,-935.876C580.302,-926.469 556.274,-914.708 535.763,-904.667"/>
<polygon fill="grey" stroke="grey" stroke-width="2" points="537.137,-901.443 526.616,-900.19 534.059,-907.73 537.137,-901.443"/>
</g>
<!-- 53 -->
<g id="node54" class="node"><title>53</title>
<path fill="none" stroke="#9fd856" stroke-width="2" stroke-dasharray="5,2" d="M662,-900C662,-900 607,-900 607,-900 601,-900 595,-894 595,-888 595,-888 595,-876 595,-876 595,-870 601,-864 607,-864 607,-864 662,-864 662,-864 668,-864 674,-870 674,-876 674,-876 674,-888 674,-888 674,-894 668,-900 662,-900"/>
<text text-anchor="middle" x="634.5" y="-879.5" font-family="sans" font-size="10.00">build_bowtie</text>
</g>
<!-- 22&#45;&gt;53 -->
<g id="edge85" class="edge"><title>22&#45;&gt;53</title>
<path fill="none" stroke="grey" stroke-width="2" d="M634.5,-935.697C634.5,-927.983 634.5,-918.712 634.5,-910.112"/>
<polygon fill="grey" stroke="grey" stroke-width="2" points="638,-910.104 634.5,-900.104 631,-910.104 638,-910.104"/>
</g>
<!-- 54 -->
<g id="node55" class="node"><title>54</title>
<path fill="none" stroke="#5692d8" stroke-width="2" stroke-dasharray="5,2" d="M767,-900C767,-900 704,-900 704,-900 698,-900 692,-894 692,-888 692,-888 692,-876 692,-876 692,-870 698,-864 704,-864 704,-864 767,-864 767,-864 773,-864 779,-870 779,-876 779,-876 779,-888 779,-888 779,-894 773,-900 767,-900"/>
<text text-anchor="middle" x="735.5" y="-885" font-family="sans" font-size="10.00">design_probes</text>
<text text-anchor="middle" x="735.5" y="-874" font-family="sans" font-size="10.00">chrom: chrII</text>
</g>
<!-- 22&#45;&gt;54 -->
<g id="edge86" class="edge"><title>22&#45;&gt;54</title>
<path fill="none" stroke="grey" stroke-width="2" d="M659.207,-935.876C672.169,-926.893 688.228,-915.763 702.265,-906.034"/>
<polygon fill="grey" stroke="grey" stroke-width="2" points="704.472,-908.763 710.698,-900.19 700.485,-903.009 704.472,-908.763"/>
</g>
<!-- 55 -->
<g id="node56" class="node"><title>55</title>
<path fill="none" stroke="#5692d8" stroke-width="2" stroke-dasharray="5,2" d="M898,-900C898,-900 835,-900 835,-900 829,-900 823,-894 823,-888 823,-888 823,-876 823,-876 823,-870 829,-864 835,-864 835,-864 898,-864 898,-864 904,-864 910,-870 910,-876 910,-876 910,-888 910,-888 910,-894 904,-900 898,-900"/>
<text text-anchor="middle" x="866.5" y="-885" font-family="sans" font-size="10.00">design_probes</text>
<text text-anchor="middle" x="866.5" y="-874" font-family="sans" font-size="10.00">chrom: chrIII</text>
</g>
<!-- 22&#45;&gt;55 -->
<g id="edge87" class="edge"><title>22&#45;&gt;55</title>
<path fill="none" stroke="grey" stroke-width="2" d="M679.232,-939.503C717.428,-927.979 772.455,-911.376 812.981,-899.148"/>
<polygon fill="grey" stroke="grey" stroke-width="2" points="814.13,-902.457 822.692,-896.218 812.107,-895.756 814.13,-902.457"/>
</g>
<!-- 56 -->
<g id="node57" class="node"><title>56</title>
<path fill="none" stroke="#5692d8" stroke-width="2" stroke-dasharray="5,2" d="M373,-900C373,-900 310,-900 310,-900 304,-900 298,-894 298,-888 298,-888 298,-876 298,-876 298,-870 304,-864 310,-864 310,-864 373,-864 373,-864 379,-864 385,-870 385,-876 385,-876 385,-888 385,-888 385,-894 379,-900 373,-900"/>
<text text-anchor="middle" x="341.5" y="-885" font-family="sans" font-size="10.00">design_probes</text>
<text text-anchor="middle" x="341.5" y="-874" font-family="sans" font-size="10.00">chrom: chrIV</text>
</g>
<!-- 22&#45;&gt;56 -->
<g id="edge88" class="edge"><title>22&#45;&gt;56</title>
<path fill="none" stroke="grey" stroke-width="2" d="M590,-942.369C537.746,-929.885 451.123,-909.19 395.188,-895.827"/>
<polygon fill="grey" stroke="grey" stroke-width="2" points="395.999,-892.422 385.459,-893.502 394.372,-899.23 395.999,-892.422"/>
</g>
<!-- 23&#45;&gt;13 -->
<g id="edge31" class="edge"><title>23&#45;&gt;13</title>
<path fill="none" stroke="grey" stroke-width="2" d="M918.388,-359.876C933.293,-350.724 951.829,-339.342 967.882,-329.485"/>
<polygon fill="grey" stroke="grey" stroke-width="2" points="969.815,-332.405 976.505,-324.19 966.152,-326.44 969.815,-332.405"/>
</g>
<!-- 24&#45;&gt;13 -->
<g id="edge32" class="edge"><title>24&#45;&gt;13</title>
<path fill="none" stroke="grey" stroke-width="2" d="M1004.5,-359.697C1004.5,-351.983 1004.5,-342.712 1004.5,-334.112"/>
<polygon fill="grey" stroke="grey" stroke-width="2" points="1008,-334.104 1004.5,-324.104 1001,-334.104 1008,-334.104"/>
</g>
<!-- 25&#45;&gt;13 -->
<g id="edge33" class="edge"><title>25&#45;&gt;13</title>
<path fill="none" stroke="grey" stroke-width="2" d="M1091.37,-359.876C1076.33,-350.724 1057.63,-339.342 1041.44,-329.485"/>
<polygon fill="grey" stroke="grey" stroke-width="2" points="1043.1,-326.4 1032.74,-324.19 1039.46,-332.379 1043.1,-326.4"/>
</g>
<!-- 26&#45;&gt;13 -->
<g id="edge34" class="edge"><title>26&#45;&gt;13</title>
<path fill="none" stroke="grey" stroke-width="2" d="M1186.28,-362.326C1152.67,-352.095 1107.4,-338.318 1070.45,-327.072"/>
<polygon fill="grey" stroke="grey" stroke-width="2" points="1071.34,-323.685 1060.76,-324.122 1069.31,-330.382 1071.34,-323.685"/>
</g>
<!-- 27 -->
<g id="node28" class="node"><title>27</title>
<path fill="none" stroke="#d8ac56" stroke-width="2" stroke-dasharray="5,2" d="M490.5,-540C490.5,-540 460.5,-540 460.5,-540 454.5,-540 448.5,-534 448.5,-528 448.5,-528 448.5,-516 448.5,-516 448.5,-510 454.5,-504 460.5,-504 460.5,-504 490.5,-504 490.5,-504 496.5,-504 502.5,-510 502.5,-516 502.5,-516 502.5,-528 502.5,-528 502.5,-534 496.5,-540 490.5,-540"/>
<text text-anchor="middle" x="475.5" y="-519.5" font-family="sans" font-size="10.00">score</text>
</g>
<!-- 27&#45;&gt;14 -->
<g id="edge35" class="edge"><title>27&#45;&gt;14</title>
<path fill="none" stroke="grey" stroke-width="2" d="M475.5,-503.697C475.5,-495.983 475.5,-486.712 475.5,-478.112"/>
<polygon fill="grey" stroke="grey" stroke-width="2" points="479,-478.104 475.5,-468.104 472,-478.104 479,-478.104"/>
</g>
<!-- 28&#45;&gt;15 -->
<g id="edge37" class="edge"><title>28&#45;&gt;15</title>
<path fill="none" stroke="grey" stroke-width="2" d="M569.365,-431.697C564.648,-423.644 558.938,-413.894 553.718,-404.982"/>
<polygon fill="grey" stroke="grey" stroke-width="2" points="556.592,-402.964 548.518,-396.104 550.552,-406.502 556.592,-402.964"/>
</g>
<!-- 28&#45;&gt;17 -->
<g id="edge40" class="edge"><title>28&#45;&gt;17</title>
<path fill="none" stroke="grey" stroke-width="2" d="M590.871,-431.697C596.218,-423.559 602.704,-413.689 608.611,-404.701"/>
<polygon fill="grey" stroke="grey" stroke-width="2" points="611.693,-406.384 614.26,-396.104 605.843,-402.539 611.693,-406.384"/>
</g>
<!-- 28&#45;&gt;19 -->
<g id="edge43" class="edge"><title>28&#45;&gt;19</title>
<path fill="none" stroke="grey" stroke-width="2" d="M621.576,-431.876C647.617,-421.278 681.004,-407.69 707.411,-396.943"/>
<polygon fill="grey" stroke="grey" stroke-width="2" points="708.855,-400.134 716.798,-393.123 706.217,-393.651 708.855,-400.134"/>
</g>
<!-- 28&#45;&gt;21 -->
<g id="edge46" class="edge"><title>28&#45;&gt;21</title>
<path fill="none" stroke="grey" stroke-width="2" d="M538.647,-431.876C513.731,-421.432 481.888,-408.085 456.43,-397.414"/>
<polygon fill="grey" stroke="grey" stroke-width="2" points="457.589,-394.104 447.013,-393.467 454.883,-400.56 457.589,-394.104"/>
</g>
<!-- 29 -->
<g id="node30" class="node"><title>29</title>
<path fill="none" stroke="#d8ac56" stroke-width="2" stroke-dasharray="5,2" d="M701.5,-540C701.5,-540 671.5,-540 671.5,-540 665.5,-540 659.5,-534 659.5,-528 659.5,-528 659.5,-516 659.5,-516 659.5,-510 665.5,-504 671.5,-504 671.5,-504 701.5,-504 701.5,-504 707.5,-504 713.5,-510 713.5,-516 713.5,-516 713.5,-528 713.5,-528 713.5,-534 707.5,-540 701.5,-540"/>
<text text-anchor="middle" x="686.5" y="-519.5" font-family="sans" font-size="10.00">score</text>
</g>
<!-- 29&#45;&gt;16 -->
<g id="edge38" class="edge"><title>29&#45;&gt;16</title>
<path fill="none" stroke="grey" stroke-width="2" d="M686.5,-503.697C686.5,-495.983 686.5,-486.712 686.5,-478.112"/>
<polygon fill="grey" stroke="grey" stroke-width="2" points="690,-478.104 686.5,-468.104 683,-478.104 690,-478.104"/>
</g>
<!-- 30 -->
<g id="node31" class="node"><title>30</title>
<path fill="none" stroke="#d8ac56" stroke-width="2" stroke-dasharray="5,2" d="M865.5,-540C865.5,-540 835.5,-540 835.5,-540 829.5,-540 823.5,-534 823.5,-528 823.5,-528 823.5,-516 823.5,-516 823.5,-510 829.5,-504 835.5,-504 835.5,-504 865.5,-504 865.5,-504 871.5,-504 877.5,-510 877.5,-516 877.5,-516 877.5,-528 877.5,-528 877.5,-534 871.5,-540 865.5,-540"/>
<text text-anchor="middle" x="850.5" y="-519.5" font-family="sans" font-size="10.00">score</text>
</g>
<!-- 30&#45;&gt;18 -->
<g id="edge41" class="edge"><title>30&#45;&gt;18</title>
<path fill="none" stroke="grey" stroke-width="2" d="M841.601,-503.697C837.503,-495.728 832.551,-486.1 828.007,-477.264"/>
<polygon fill="grey" stroke="grey" stroke-width="2" points="830.983,-475.396 823.297,-468.104 824.758,-478.598 830.983,-475.396"/>
</g>
<!-- 31 -->
<g id="node32" class="node"><title>31</title>
<path fill="none" stroke="#d8ac56" stroke-width="2" stroke-dasharray="5,2" d="M333.5,-540C333.5,-540 303.5,-540 303.5,-540 297.5,-540 291.5,-534 291.5,-528 291.5,-528 291.5,-516 291.5,-516 291.5,-510 297.5,-504 303.5,-504 303.5,-504 333.5,-504 333.5,-504 339.5,-504 345.5,-510 345.5,-516 345.5,-516 345.5,-528 345.5,-528 345.5,-534 339.5,-540 333.5,-540"/>
<text text-anchor="middle" x="318.5" y="-519.5" font-family="sans" font-size="10.00">score</text>
</g>
<!-- 31&#45;&gt;20 -->
<g id="edge44" class="edge"><title>31&#45;&gt;20</title>
<path fill="none" stroke="grey" stroke-width="2" d="M326.163,-503.697C329.692,-495.728 333.956,-486.1 337.869,-477.264"/>
<polygon fill="grey" stroke="grey" stroke-width="2" points="341.076,-478.665 341.925,-468.104 334.676,-475.831 341.076,-478.665"/>
</g>
<!-- 32 -->
<g id="node33" class="node"><title>32</title>
<path fill="none" stroke="#56d0d8" stroke-width="2" stroke-dasharray="5,2" d="M508,-612C508,-612 443,-612 443,-612 437,-612 431,-606 431,-600 431,-600 431,-588 431,-588 431,-582 437,-576 443,-576 443,-576 508,-576 508,-576 514,-576 520,-582 520,-588 520,-588 520,-600 520,-600 520,-606 514,-612 508,-612"/>
<text text-anchor="middle" x="475.5" y="-591.5" font-family="sans" font-size="10.00">predict_duplex</text>
</g>
<!-- 32&#45;&gt;27 -->
<g id="edge51" class="edge"><title>32&#45;&gt;27</title>
<path fill="none" stroke="grey" stroke-width="2" d="M475.5,-575.697C475.5,-567.983 475.5,-558.712 475.5,-550.112"/>
<polygon fill="grey" stroke="grey" stroke-width="2" points="479,-550.104 475.5,-540.104 472,-550.104 479,-550.104"/>
</g>
<!-- 33 -->
<g id="node34" class="node"><title>33</title>
<path fill="none" stroke="#56d0d8" stroke-width="2" stroke-dasharray="5,2" d="M719,-612C719,-612 654,-612 654,-612 648,-612 642,-606 642,-600 642,-600 642,-588 642,-588 642,-582 648,-576 654,-576 654,-576 719,-576 719,-576 725,-576 731,-582 731,-588 731,-588 731,-600 731,-600 731,-606 725,-612 719,-612"/>
<text text-anchor="middle" x="686.5" y="-591.5" font-family="sans" font-size="10.00">predict_duplex</text>
</g>
<!-- 33&#45;&gt;29 -->
<g id="edge53" class="edge"><title>33&#45;&gt;29</title>
<path fill="none" stroke="grey" stroke-width="2" d="M686.5,-575.697C686.5,-567.983 686.5,-558.712 686.5,-550.112"/>
<polygon fill="grey" stroke="grey" stroke-width="2" points="690,-550.104 686.5,-540.104 683,-550.104 690,-550.104"/>
</g>
<!-- 34 -->
<g id="node35" class="node"><title>34</title>
<path fill="none" stroke="#56d0d8" stroke-width="2" stroke-dasharray="5,2" d="M941,-612C941,-612 876,-612 876,-612 870,-612 864,-606 864,-600 864,-600 864,-588 864,-588 864,-582 870,-576 876,-576 876,-576 941,-576 941,-576 947,-576 953,-582 953,-588 953,-588 953,-600 953,-600 953,-606 947,-612 941,-612"/>
<text text-anchor="middle" x="908.5" y="-591.5" font-family="sans" font-size="10.00">predict_duplex</text>
</g>
<!-- 34&#45;&gt;30 -->
<g id="edge54" class="edge"><title>34&#45;&gt;30</title>
<path fill="none" stroke="grey" stroke-width="2" d="M894.163,-575.697C887.209,-567.305 878.73,-557.07 871.099,-547.861"/>
<polygon fill="grey" stroke="grey" stroke-width="2" points="873.747,-545.571 864.672,-540.104 868.357,-550.038 873.747,-545.571"/>
</g>
<!-- 35 -->
<g id="node36" class="node"><title>35</title>
<path fill="none" stroke="#56d0d8" stroke-width="2" stroke-dasharray="5,2" d="M275,-612C275,-612 210,-612 210,-612 204,-612 198,-606 198,-600 198,-600 198,-588 198,-588 198,-582 204,-576 210,-576 210,-576 275,-576 275,-576 281,-576 287,-582 287,-588 287,-588 287,-600 287,-600 287,-606 281,-612 275,-612"/>
<text text-anchor="middle" x="242.5" y="-591.5" font-family="sans" font-size="10.00">predict_duplex</text>
</g>
<!-- 35&#45;&gt;31 -->
<g id="edge55" class="edge"><title>35&#45;&gt;31</title>
<path fill="none" stroke="grey" stroke-width="2" d="M261.287,-575.697C270.674,-567.05 282.184,-556.449 292.413,-547.027"/>
<polygon fill="grey" stroke="grey" stroke-width="2" points="294.945,-549.454 299.93,-540.104 290.203,-544.305 294.945,-549.454"/>
</g>
<!-- 36 -->
<g id="node37" class="node"><title>36</title>
<path fill="none" stroke="#56d88a" stroke-width="2" stroke-dasharray="5,2" d="M508.5,-684C508.5,-684 442.5,-684 442.5,-684 436.5,-684 430.5,-678 430.5,-672 430.5,-672 430.5,-660 430.5,-660 430.5,-654 436.5,-648 442.5,-648 442.5,-648 508.5,-648 508.5,-648 514.5,-648 520.5,-654 520.5,-660 520.5,-660 520.5,-672 520.5,-672 520.5,-678 514.5,-684 508.5,-684"/>
<text text-anchor="middle" x="475.5" y="-663.5" font-family="sans" font-size="10.00">parse_pairwise</text>
</g>
<!-- 36&#45;&gt;32 -->
<g id="edge56" class="edge"><title>36&#45;&gt;32</title>
<path fill="none" stroke="grey" stroke-width="2" d="M475.5,-647.697C475.5,-639.983 475.5,-630.712 475.5,-622.112"/>
<polygon fill="grey" stroke="grey" stroke-width="2" points="479,-622.104 475.5,-612.104 472,-622.104 479,-622.104"/>
</g>
<!-- 37 -->
<g id="node38" class="node"><title>37</title>
<path fill="none" stroke="#56d88a" stroke-width="2" stroke-dasharray="5,2" d="M719.5,-684C719.5,-684 653.5,-684 653.5,-684 647.5,-684 641.5,-678 641.5,-672 641.5,-672 641.5,-660 641.5,-660 641.5,-654 647.5,-648 653.5,-648 653.5,-648 719.5,-648 719.5,-648 725.5,-648 731.5,-654 731.5,-660 731.5,-660 731.5,-672 731.5,-672 731.5,-678 725.5,-684 719.5,-684"/>
<text text-anchor="middle" x="686.5" y="-663.5" font-family="sans" font-size="10.00">parse_pairwise</text>
</g>
<!-- 37&#45;&gt;33 -->
<g id="edge57" class="edge"><title>37&#45;&gt;33</title>
<path fill="none" stroke="grey" stroke-width="2" d="M686.5,-647.697C686.5,-639.983 686.5,-630.712 686.5,-622.112"/>
<polygon fill="grey" stroke="grey" stroke-width="2" points="690,-622.104 686.5,-612.104 683,-622.104 690,-622.104"/>
</g>
<!-- 38 -->
<g id="node39" class="node"><title>38</title>
<path fill="none" stroke="#56d88a" stroke-width="2" stroke-dasharray="5,2" d="M977.5,-684C977.5,-684 911.5,-684 911.5,-684 905.5,-684 899.5,-678 899.5,-672 899.5,-672 899.5,-660 899.5,-660 899.5,-654 905.5,-648 911.5,-648 911.5,-648 977.5,-648 977.5,-648 983.5,-648 989.5,-654 989.5,-660 989.5,-660 989.5,-672 989.5,-672 989.5,-678 983.5,-684 977.5,-684"/>
<text text-anchor="middle" x="944.5" y="-663.5" font-family="sans" font-size="10.00">parse_pairwise</text>
</g>
<!-- 38&#45;&gt;34 -->
<g id="edge58" class="edge"><title>38&#45;&gt;34</title>
<path fill="none" stroke="grey" stroke-width="2" d="M935.601,-647.697C931.503,-639.728 926.551,-630.1 922.007,-621.264"/>
<polygon fill="grey" stroke="grey" stroke-width="2" points="924.983,-619.396 917.297,-612.104 918.758,-622.598 924.983,-619.396"/>
</g>
<!-- 39 -->
<g id="node40" class="node"><title>39</title>
<path fill="none" stroke="#56d88a" stroke-width="2" stroke-dasharray="5,2" d="M243.5,-684C243.5,-684 177.5,-684 177.5,-684 171.5,-684 165.5,-678 165.5,-672 165.5,-672 165.5,-660 165.5,-660 165.5,-654 171.5,-648 177.5,-648 177.5,-648 243.5,-648 243.5,-648 249.5,-648 255.5,-654 255.5,-660 255.5,-660 255.5,-672 255.5,-672 255.5,-678 249.5,-684 243.5,-684"/>
<text text-anchor="middle" x="210.5" y="-663.5" font-family="sans" font-size="10.00">parse_pairwise</text>
</g>
<!-- 39&#45;&gt;35 -->
<g id="edge59" class="edge"><title>39&#45;&gt;35</title>
<path fill="none" stroke="grey" stroke-width="2" d="M218.41,-647.697C222.053,-639.728 226.454,-630.1 230.494,-621.264"/>
<polygon fill="grey" stroke="grey" stroke-width="2" points="233.706,-622.654 234.681,-612.104 227.34,-619.744 233.706,-622.654"/>
</g>
<!-- 40 -->
<g id="node41" class="node"><title>40</title>
<path fill="none" stroke="#88d856" stroke-width="2" stroke-dasharray="5,2" d="M526,-756C526,-756 451,-756 451,-756 445,-756 439,-750 439,-744 439,-744 439,-732 439,-732 439,-726 445,-720 451,-720 451,-720 526,-720 526,-720 532,-720 538,-726 538,-732 538,-732 538,-744 538,-744 538,-750 532,-756 526,-756"/>
<text text-anchor="middle" x="488.5" y="-735.5" font-family="sans" font-size="10.00">sam_to_pairwise</text>
</g>
<!-- 40&#45;&gt;36 -->
<g id="edge60" class="edge"><title>40&#45;&gt;36</title>
<path fill="none" stroke="grey" stroke-width="2" d="M485.287,-719.697C483.854,-711.983 482.132,-702.712 480.535,-694.112"/>
<polygon fill="grey" stroke="grey" stroke-width="2" points="483.944,-693.297 478.677,-684.104 477.061,-694.575 483.944,-693.297"/>
</g>
<!-- 41 -->
<g id="node42" class="node"><title>41</title>
<path fill="none" stroke="#b6d856" stroke-width="2" stroke-dasharray="5,2" d="M409,-756C409,-756 290,-756 290,-756 284,-756 278,-750 278,-744 278,-744 278,-732 278,-732 278,-726 284,-720 290,-720 290,-720 409,-720 409,-720 415,-720 421,-726 421,-732 421,-732 421,-744 421,-744 421,-750 415,-756 409,-756"/>
<text text-anchor="middle" x="349.5" y="-735.5" font-family="sans" font-size="10.00">extract_alignment_scores</text>
</g>
<!-- 41&#45;&gt;36 -->
<g id="edge61" class="edge"><title>41&#45;&gt;36</title>
<path fill="none" stroke="grey" stroke-width="2" d="M380.323,-719.876C396.95,-710.639 417.665,-699.131 435.519,-689.212"/>
<polygon fill="grey" stroke="grey" stroke-width="2" points="437.517,-692.106 444.558,-684.19 434.117,-685.987 437.517,-692.106"/>
</g>
<!-- 42 -->
<g id="node43" class="node"><title>42</title>
<path fill="none" stroke="#88d856" stroke-width="2" stroke-dasharray="5,2" d="M682,-756C682,-756 607,-756 607,-756 601,-756 595,-750 595,-744 595,-744 595,-732 595,-732 595,-726 601,-720 607,-720 607,-720 682,-720 682,-720 688,-720 694,-726 694,-732 694,-732 694,-744 694,-744 694,-750 688,-756 682,-756"/>
<text text-anchor="middle" x="644.5" y="-735.5" font-family="sans" font-size="10.00">sam_to_pairwise</text>
</g>
<!-- 42&#45;&gt;37 -->
<g id="edge62" class="edge"><title>42&#45;&gt;37</title>
<path fill="none" stroke="grey" stroke-width="2" d="M654.882,-719.697C659.765,-711.559 665.687,-701.689 671.079,-692.701"/>
<polygon fill="grey" stroke="grey" stroke-width="2" points="674.094,-694.48 676.237,-684.104 668.091,-690.879 674.094,-694.48"/>
</g>
<!-- 43 -->
<g id="node44" class="node"><title>43</title>
<path fill="none" stroke="#b6d856" stroke-width="2" stroke-dasharray="5,2" d="M843,-756C843,-756 724,-756 724,-756 718,-756 712,-750 712,-744 712,-744 712,-732 712,-732 712,-726 718,-720 724,-720 724,-720 843,-720 843,-720 849,-720 855,-726 855,-732 855,-732 855,-744 855,-744 855,-750 849,-756 843,-756"/>
<text text-anchor="middle" x="783.5" y="-735.5" font-family="sans" font-size="10.00">extract_alignment_scores</text>
</g>
<!-- 43&#45;&gt;37 -->
<g id="edge63" class="edge"><title>43&#45;&gt;37</title>
<path fill="none" stroke="grey" stroke-width="2" d="M759.522,-719.697C747.189,-710.796 731.984,-699.823 718.647,-690.199"/>
<polygon fill="grey" stroke="grey" stroke-width="2" points="720.359,-687.118 710.202,-684.104 716.263,-692.794 720.359,-687.118"/>
</g>
<!-- 44 -->
<g id="node45" class="node"><title>44</title>
<path fill="none" stroke="#88d856" stroke-width="2" stroke-dasharray="5,2" d="M1121,-756C1121,-756 1046,-756 1046,-756 1040,-756 1034,-750 1034,-744 1034,-744 1034,-732 1034,-732 1034,-726 1040,-720 1046,-720 1046,-720 1121,-720 1121,-720 1127,-720 1133,-726 1133,-732 1133,-732 1133,-744 1133,-744 1133,-750 1127,-756 1121,-756"/>
<text text-anchor="middle" x="1083.5" y="-735.5" font-family="sans" font-size="10.00">sam_to_pairwise</text>
</g>
<!-- 44&#45;&gt;38 -->
<g id="edge64" class="edge"><title>44&#45;&gt;38</title>
<path fill="none" stroke="grey" stroke-width="2" d="M1049.5,-719.876C1030.9,-710.512 1007.67,-698.814 987.794,-688.803"/>
<polygon fill="grey" stroke="grey" stroke-width="2" points="989.14,-685.562 978.634,-684.19 985.991,-691.814 989.14,-685.562"/>
</g>
<!-- 45 -->
<g id="node46" class="node"><title>45</title>
<path fill="none" stroke="#b6d856" stroke-width="2" stroke-dasharray="5,2" d="M1004,-756C1004,-756 885,-756 885,-756 879,-756 873,-750 873,-744 873,-744 873,-732 873,-732 873,-726 879,-720 885,-720 885,-720 1004,-720 1004,-720 1010,-720 1016,-726 1016,-732 1016,-732 1016,-744 1016,-744 1016,-750 1010,-756 1004,-756"/>
<text text-anchor="middle" x="944.5" y="-735.5" font-family="sans" font-size="10.00">extract_alignment_scores</text>
</g>
<!-- 45&#45;&gt;38 -->
<g id="edge65" class="edge"><title>45&#45;&gt;38</title>
<path fill="none" stroke="grey" stroke-width="2" d="M944.5,-719.697C944.5,-711.983 944.5,-702.712 944.5,-694.112"/>
<polygon fill="grey" stroke="grey" stroke-width="2" points="948,-694.104 944.5,-684.104 941,-694.104 948,-694.104"/>
</g>
<!-- 46 -->
<g id="node47" class="node"><title>46</title>
<path fill="none" stroke="#88d856" stroke-width="2" stroke-dasharray="5,2" d="M248,-756C248,-756 173,-756 173,-756 167,-756 161,-750 161,-744 161,-744 161,-732 161,-732 161,-726 167,-720 173,-720 173,-720 248,-720 248,-720 254,-720 260,-726 260,-732 260,-732 260,-744 260,-744 260,-750 254,-756 248,-756"/>
<text text-anchor="middle" x="210.5" y="-735.5" font-family="sans" font-size="10.00">sam_to_pairwise</text>
</g>
<!-- 46&#45;&gt;39 -->
<g id="edge66" class="edge"><title>46&#45;&gt;39</title>
<path fill="none" stroke="grey" stroke-width="2" d="M210.5,-719.697C210.5,-711.983 210.5,-702.712 210.5,-694.112"/>
<polygon fill="grey" stroke="grey" stroke-width="2" points="214,-694.104 210.5,-684.104 207,-694.104 214,-694.104"/>
</g>
<!-- 47 -->
<g id="node48" class="node"><title>47</title>
<path fill="none" stroke="#b6d856" stroke-width="2" stroke-dasharray="5,2" d="M131,-756C131,-756 12,-756 12,-756 6,-756 0,-750 0,-744 0,-744 0,-732 0,-732 0,-726 6,-720 12,-720 12,-720 131,-720 131,-720 137,-720 143,-726 143,-732 143,-732 143,-744 143,-744 143,-750 137,-756 131,-756"/>
<text text-anchor="middle" x="71.5" y="-735.5" font-family="sans" font-size="10.00">extract_alignment_scores</text>
</g>
<!-- 47&#45;&gt;39 -->
<g id="edge67" class="edge"><title>47&#45;&gt;39</title>
<path fill="none" stroke="grey" stroke-width="2" d="M105.503,-719.876C124.098,-710.512 147.327,-698.814 167.206,-688.803"/>
<polygon fill="grey" stroke="grey" stroke-width="2" points="169.009,-691.814 176.366,-684.19 165.86,-685.562 169.009,-691.814"/>
</g>
<!-- 48 -->
<g id="node49" class="node"><title>48</title>
<path fill="none" stroke="#d87d56" stroke-width="2" stroke-dasharray="5,2" d="M518,-828C518,-828 463,-828 463,-828 457,-828 451,-822 451,-816 451,-816 451,-804 451,-804 451,-798 457,-792 463,-792 463,-792 518,-792 518,-792 524,-792 530,-798 530,-804 530,-804 530,-816 530,-816 530,-822 524,-828 518,-828"/>
<text text-anchor="middle" x="490.5" y="-807.5" font-family="sans" font-size="10.00">align_probes</text>
</g>
<!-- 48&#45;&gt;40 -->
<g id="edge68" class="edge"><title>48&#45;&gt;40</title>
<path fill="none" stroke="grey" stroke-width="2" d="M490.006,-791.697C489.785,-783.983 489.52,-774.712 489.275,-766.112"/>
<polygon fill="grey" stroke="grey" stroke-width="2" points="492.773,-766 488.989,-756.104 485.776,-766.2 492.773,-766"/>
</g>
<!-- 48&#45;&gt;41 -->
<g id="edge69" class="edge"><title>48&#45;&gt;41</title>
<path fill="none" stroke="grey" stroke-width="2" d="M456.008,-791.876C437.06,-782.469 413.368,-770.708 393.144,-760.667"/>
<polygon fill="grey" stroke="grey" stroke-width="2" points="394.638,-757.502 384.125,-756.19 391.526,-763.771 394.638,-757.502"/>
</g>
<!-- 49 -->
<g id="node50" class="node"><title>49</title>
<path fill="none" stroke="#d87d56" stroke-width="2" stroke-dasharray="5,2" d="M718,-828C718,-828 663,-828 663,-828 657,-828 651,-822 651,-816 651,-816 651,-804 651,-804 651,-798 657,-792 663,-792 663,-792 718,-792 718,-792 724,-792 730,-798 730,-804 730,-804 730,-816 730,-816 730,-822 724,-828 718,-828"/>
<text text-anchor="middle" x="690.5" y="-807.5" font-family="sans" font-size="10.00">align_probes</text>
</g>
<!-- 49&#45;&gt;42 -->
<g id="edge70" class="edge"><title>49&#45;&gt;42</title>
<path fill="none" stroke="grey" stroke-width="2" d="M679.129,-791.697C673.782,-783.559 667.296,-773.689 661.389,-764.701"/>
<polygon fill="grey" stroke="grey" stroke-width="2" points="664.157,-762.539 655.74,-756.104 658.307,-766.384 664.157,-762.539"/>
</g>
<!-- 49&#45;&gt;43 -->
<g id="edge71" class="edge"><title>49&#45;&gt;43</title>
<path fill="none" stroke="grey" stroke-width="2" d="M713.489,-791.697C725.314,-782.796 739.892,-771.823 752.679,-762.199"/>
<polygon fill="grey" stroke="grey" stroke-width="2" points="754.891,-764.915 760.776,-756.104 750.681,-759.322 754.891,-764.915"/>
</g>
<!-- 50 -->
<g id="node51" class="node"><title>50</title>
<path fill="none" stroke="#d87d56" stroke-width="2" stroke-dasharray="5,2" d="M920,-828C920,-828 865,-828 865,-828 859,-828 853,-822 853,-816 853,-816 853,-804 853,-804 853,-798 859,-792 865,-792 865,-792 920,-792 920,-792 926,-792 932,-798 932,-804 932,-804 932,-816 932,-816 932,-822 926,-828 920,-828"/>
<text text-anchor="middle" x="892.5" y="-807.5" font-family="sans" font-size="10.00">align_probes</text>
</g>
<!-- 50&#45;&gt;44 -->
<g id="edge72" class="edge"><title>50&#45;&gt;44</title>
<path fill="none" stroke="grey" stroke-width="2" d="M932.075,-794.496C959.584,-784.414 996.651,-770.829 1027.23,-759.624"/>
<polygon fill="grey" stroke="grey" stroke-width="2" points="1028.72,-762.804 1036.9,-756.077 1026.31,-756.232 1028.72,-762.804"/>
</g>
<!-- 50&#45;&gt;45 -->
<g id="edge73" class="edge"><title>50&#45;&gt;45</title>
<path fill="none" stroke="grey" stroke-width="2" d="M905.354,-791.697C911.525,-783.389 919.037,-773.277 925.824,-764.141"/>
<polygon fill="grey" stroke="grey" stroke-width="2" points="928.64,-766.219 931.794,-756.104 923.021,-762.045 928.64,-766.219"/>
</g>
<!-- 51 -->
<g id="node52" class="node"><title>51</title>
<path fill="none" stroke="#d87d56" stroke-width="2" stroke-dasharray="5,2" d="M280,-828C280,-828 225,-828 225,-828 219,-828 213,-822 213,-816 213,-816 213,-804 213,-804 213,-798 219,-792 225,-792 225,-792 280,-792 280,-792 286,-792 292,-798 292,-804 292,-804 292,-816 292,-816 292,-822 286,-828 280,-828"/>
<text text-anchor="middle" x="252.5" y="-807.5" font-family="sans" font-size="10.00">align_probes</text>
</g>
<!-- 51&#45;&gt;46 -->
<g id="edge74" class="edge"><title>51&#45;&gt;46</title>
<path fill="none" stroke="grey" stroke-width="2" d="M242.118,-791.697C237.235,-783.559 231.313,-773.689 225.921,-764.701"/>
<polygon fill="grey" stroke="grey" stroke-width="2" points="228.909,-762.879 220.763,-756.104 222.906,-766.48 228.909,-762.879"/>
</g>
<!-- 51&#45;&gt;47 -->
<g id="edge75" class="edge"><title>51&#45;&gt;47</title>
<path fill="none" stroke="grey" stroke-width="2" d="M212.779,-793.638C187.087,-783.702 153.322,-770.644 125.243,-759.785"/>
<polygon fill="grey" stroke="grey" stroke-width="2" points="126.161,-756.387 115.571,-756.044 123.636,-762.916 126.161,-756.387"/>
</g>
<!-- 52&#45;&gt;48 -->
<g id="edge76" class="edge"><title>52&#45;&gt;48</title>
<path fill="none" stroke="grey" stroke-width="2" d="M491.253,-863.697C491.143,-855.983 491.01,-846.712 490.887,-838.112"/>
<polygon fill="grey" stroke="grey" stroke-width="2" points="494.387,-838.053 490.744,-828.104 487.388,-838.153 494.387,-838.053"/>
</g>
<!-- 53&#45;&gt;48 -->
<g id="edge77" class="edge"><title>53&#45;&gt;48</title>
<path fill="none" stroke="grey" stroke-width="2" d="M599.274,-863.876C579.923,-854.469 555.727,-842.708 535.073,-832.667"/>
<polygon fill="grey" stroke="grey" stroke-width="2" points="536.386,-829.414 525.862,-828.19 533.325,-835.71 536.386,-829.414"/>
</g>
<!-- 53&#45;&gt;49 -->
<g id="edge79" class="edge"><title>53&#45;&gt;49</title>
<path fill="none" stroke="grey" stroke-width="2" d="M648.343,-863.697C654.989,-855.389 663.078,-845.277 670.387,-836.141"/>
<polygon fill="grey" stroke="grey" stroke-width="2" points="673.303,-838.099 676.817,-828.104 667.836,-833.727 673.303,-838.099"/>
</g>
<!-- 53&#45;&gt;50 -->
<g id="edge81" class="edge"><title>53&#45;&gt;50</title>
<path fill="none" stroke="grey" stroke-width="2" d="M674.218,-866.612C677.011,-865.699 679.792,-864.819 682.5,-864 736.81,-847.568 800.061,-832.092 842.84,-822.155"/>
<polygon fill="grey" stroke="grey" stroke-width="2" points="843.763,-825.534 852.719,-819.874 842.188,-818.714 843.763,-825.534"/>
</g>
<!-- 53&#45;&gt;51 -->
<g id="edge83" class="edge"><title>53&#45;&gt;51</title>
<path fill="none" stroke="grey" stroke-width="2" d="M594.641,-873.513C578.735,-870.536 560.254,-867.091 543.5,-864 458.702,-848.357 359.946,-830.433 302.027,-819.95"/>
<polygon fill="grey" stroke="grey" stroke-width="2" points="302.511,-816.481 292.048,-818.144 301.265,-823.369 302.511,-816.481"/>
</g>
<!-- 54&#45;&gt;49 -->
<g id="edge78" class="edge"><title>54&#45;&gt;49</title>
<path fill="none" stroke="grey" stroke-width="2" d="M724.376,-863.697C719.145,-855.559 712.8,-845.689 707.022,-836.701"/>
<polygon fill="grey" stroke="grey" stroke-width="2" points="709.847,-834.623 701.496,-828.104 703.959,-838.409 709.847,-834.623"/>
</g>
<!-- 55&#45;&gt;50 -->
<g id="edge80" class="edge"><title>55&#45;&gt;50</title>
<path fill="none" stroke="grey" stroke-width="2" d="M872.927,-863.697C875.855,-855.813 879.387,-846.304 882.64,-837.546"/>
<polygon fill="grey" stroke="grey" stroke-width="2" points="885.946,-838.697 886.147,-828.104 879.384,-836.26 885.946,-838.697"/>
</g>
<!-- 56&#45;&gt;51 -->
<g id="edge82" class="edge"><title>56&#45;&gt;51</title>
<path fill="none" stroke="grey" stroke-width="2" d="M319.5,-863.697C308.291,-854.881 294.498,-844.032 282.346,-834.474"/>
<polygon fill="grey" stroke="grey" stroke-width="2" points="284.271,-831.535 274.247,-828.104 279.943,-837.038 284.271,-831.535"/>
</g>
</g>
</svg>
